<svg width="243" height="306" viewBox="0 0 343 306" fill="none" xmlns="http://www.w3.org/2000/svg">
<g filter="url(#filter0_d_133_1062)">
<path d="M338.45 198.791C339.186 226.404 311.573 253.088 280.823 271.175C270.055 277.525 258.94 282.792 248.484 286.703C214.828 299.291 186.517 298.323 165.605 297.664C165.295 297.625 165.024 297.625 164.715 297.625C164.056 297.586 163.358 297.586 162.702 297.549C128.077 296.115 93.0283 288.64 62.2019 272.49C61.3873 272.065 60.5748 271.639 59.7602 271.175C33.1933 256.96 6.66339 236.668 4.1848 204.329C2.94756 188.411 7.98063 172.222 17.5462 159.48C27.8873 145.733 42.9908 138.025 56.6251 128.071C66.2276 121.062 70.4892 110.916 74.9806 100.382C78.1178 93.0611 81.5259 85.8203 85.4387 78.8482C87.6054 75.0544 89.8521 71.3755 92.3307 67.7725C109.644 42.5598 138.302 24.0873 168.664 19.7478C200.305 15.2563 230.514 30.0109 251.233 53.7525C263.743 68.0434 272.343 85.7033 276.058 104.332C279.118 119.552 275.982 138.607 287.832 150.534C301.581 164.362 321.332 160.256 332.526 177.489C338.101 186.049 338.335 194.995 338.45 198.791Z" fill="#E3EDF9"/>
<path d="M227.035 143.56C255.142 119.478 263.497 75.51 244.272 47.2155C233.188 30.9036 216.107 24.4629 207.715 21.9843C204.229 16.9061 195.387 5.6129 180.415 1.49901C154.304 -5.67207 131.644 15.0574 128.443 17.9874C98.4412 45.4345 87.1501 112.478 128.11 145.227C154.722 166.504 198.098 168.353 227.035 143.56Z" fill="#1A2D4F"/>
<path d="M191.011 103.597V143.331H158.789V103.597H191.011Z" fill="#F8A2AA"/>
<path d="M191.011 103.597V122.728C174.01 123.968 164.288 121.76 158.789 118.391V103.597H191.011Z" fill="#F35D69"/>
<path d="M222.841 79.7326C219.765 87.9131 212.292 92.6713 206.147 90.363C200 88.0547 197.507 79.552 200.578 71.3714C203.65 63.1929 211.125 58.4327 217.272 60.741C223.419 63.0493 225.912 71.552 222.841 79.7326Z" fill="#F8A2AA"/>
<path d="M132.136 79.7326C135.209 87.9131 142.682 92.6713 148.827 90.363C154.975 88.0547 157.468 79.552 154.396 71.3714C151.324 63.1929 143.85 58.4327 137.702 60.741C131.555 63.0493 129.062 71.552 132.136 79.7326Z" fill="#F8A2AA"/>
<path d="M207.466 72.1532C212.651 86.4113 196.294 114.872 175.368 114.872C157.638 114.872 143.265 95.747 143.265 72.1532C143.265 46.4542 169.056 26.3034 175.368 29.4365C177.904 30.6963 175.821 34.9661 178.105 42.3014C183.554 59.7931 203.051 60.0065 207.466 72.1532Z" fill="#F8A2AA"/>
<path d="M265.35 255.025H81.4889V219.211C81.4889 168.439 122.646 127.279 173.42 127.279C224.193 127.279 265.35 168.439 265.35 219.211V255.025Z" fill="#F9A52F"/>
<path d="M242.119 197.878V255.518H292.748V197.878H242.119Z" fill="#3F51B5"/>
<path d="M308.867 226.893C308.867 231.911 304.774 235.976 299.757 235.976C296.925 235.976 294.402 234.688 292.748 232.669V244.891C294.907 245.761 297.291 246.211 299.757 246.211C310.439 246.211 319.102 237.574 319.102 226.893C319.102 216.213 310.439 207.55 299.757 207.55C297.291 207.55 294.907 207.998 292.748 208.868V221.09C294.402 219.071 296.925 217.783 299.757 217.783C304.774 217.783 308.867 221.847 308.867 226.893Z" fill="#4F66B9"/>
<path d="M329.668 271.173H21.0671V255.518H329.668V271.173Z" fill="#D07D74"/>
<path d="M74.0327 220.007C72.9739 192.662 73.3556 158.182 82.4184 156.23C82.7303 156.165 83.8136 155.947 84.9032 156.509C92.2404 160.291 83.7685 191.078 74.0327 220.007Z" fill="#56C5AA"/>
<path d="M74.0326 220.007C60.663 196.565 54.2142 192.305 50.8574 193.348C49.5894 193.742 48.6825 194.919 48.346 196.015C46.0254 203.584 68.1008 216.607 74.0326 220.007Z" fill="#56C5AA"/>
<path d="M74.0327 220.007C74.0327 220.007 86.5078 184.102 95.1315 186.236C103.755 188.37 74.0327 220.007 74.0327 220.007Z" fill="#56C5AA"/>
<path d="M54.4563 255.025H88.5943L91.6166 213.23H51.4319L54.4563 255.025Z" fill="#F36486"/>
<path d="M243.617 247.772C243.617 252.032 240.131 255.518 235.872 255.518H110.968C106.708 255.518 103.222 252.032 103.222 247.772V169.832C103.222 165.572 106.708 162.086 110.968 162.086H235.872C240.131 162.086 243.617 165.572 243.617 169.832V247.772Z" fill="white"/>
<path d="M184.258 211.695C184.258 217.68 179.406 222.533 173.421 222.533C167.433 222.533 162.579 217.68 162.579 211.695C162.579 205.708 167.433 200.857 173.421 200.857C179.406 200.857 184.258 205.708 184.258 211.695Z" fill="#E3EDF9"/>
<path d="M280.823 271.175C270.055 277.525 258.94 282.792 248.484 286.703C214.828 299.291 186.517 298.323 165.605 297.664C165.295 297.625 165.025 297.625 164.715 297.625C164.056 297.586 163.359 297.586 162.702 297.549C128.078 296.115 93.0285 288.64 62.2021 272.49C61.3875 272.065 60.5749 271.639 59.7604 271.175H280.823Z" fill="#BA7269"/>
</g>
<defs>
<filter id="filter0_d_133_1062" x="0" y="3.05176e-05" width="342.464" height="306" filterUnits="userSpaceOnUse" color-interpolation-filters="sRGB">
<feFlood flood-opacity="0" result="BackgroundImageFix"/>
<feColorMatrix in="SourceAlpha" type="matrix" values="0 0 0 0 0 0 0 0 0 0 0 0 0 0 0 0 0 0 127 0" result="hardAlpha"/>
<feOffset dy="4"/>
<feGaussianBlur stdDeviation="2"/>
<feComposite in2="hardAlpha" operator="out"/>
<feColorMatrix type="matrix" values="0 0 0 0 0 0 0 0 0 0 0 0 0 0 0 0 0 0 0.25 0"/>
<feBlend mode="normal" in2="BackgroundImageFix" result="effect1_dropShadow_133_1062"/>
<feBlend mode="normal" in="SourceGraphic" in2="effect1_dropShadow_133_1062" result="shape"/>
</filter>
</defs>
</svg>
