<svg width="293" height="267" viewBox="0 0 393 267" fill="none" xmlns="http://www.w3.org/2000/svg">
<g filter="url(#filter0_d_133_975)">
<path d="M371.109 184.396C357.686 208.25 336.803 224.949 312.036 236.408L311.686 236.572C278.594 251.771 238.626 257.665 200.087 258.79C162.902 259.887 127.075 256.52 100.04 252.754C71.9768 248.849 53.3853 244.524 52.6829 244.312C50.6257 243.681 48.6376 242.909 48.6376 242.909C47.1638 242.369 45.6907 241.738 44.2635 241.086L44.1463 241.038L43.7259 240.828C32.3829 235.565 22.9349 227.474 16.0601 217.605C7.75797 205.632 3.3148 191.085 4.08613 175.907C4.905 160.051 8.55278 142.534 17.6736 125.533C36.757 89.9155 80.2083 55.8188 124.361 52.7332C141.154 51.5628 164.679 53.5975 188.487 38.7946C193.956 35.3932 195.767 34.1882 200.855 30.9639C208.133 26.3517 245.452 2.69601 289.976 7.6797C300.896 8.90012 337.326 14.6538 363.369 45.1546C398.934 86.8086 391.616 147.959 371.109 184.396Z" fill="#E3EDF9"/>
<path d="M322.49 215.384C318.631 223.965 314.935 231.145 312.036 236.408L311.686 236.572C278.594 251.771 238.626 257.665 200.087 258.79C187.434 258.882 175.742 258.322 165.216 257.384C148.097 246.789 140.403 230.631 144.263 219.407C145.291 216.412 147.164 213.746 149.922 211.665C175.507 192.207 216.691 191.692 225.273 169.453C230.98 154.625 245.315 113.279 254.226 87.3919C256.984 79.3918 277.237 58.1808 301.395 59.303C321.484 60.2174 335.049 76.9837 336.381 78.668C366.479 116.998 333.715 190.267 322.49 215.384Z" fill="#4F66B9"/>
<path d="M284.9 227.132L284.742 227.122L248.394 222.318C247.728 222.229 247.264 221.619 247.348 220.957C247.437 220.298 248.005 219.846 248.709 219.913L285.058 224.718C285.724 224.804 286.186 225.415 286.101 226.079C286.021 226.685 285.499 227.132 284.9 227.132Z" fill="#1A2D4F"/>
<path d="M90.239 150.609C88.9945 118.561 89.4434 78.1483 100.066 75.8615C100.432 75.7825 101.701 75.5304 102.979 76.1868C111.577 80.618 101.65 116.703 90.239 150.609Z" fill="#56C5AA"/>
<path d="M90.239 150.609C74.568 123.132 67.011 118.141 63.0763 119.363C61.5896 119.825 60.5257 121.206 60.1317 122.49C57.4127 131.364 83.2844 146.623 90.239 150.609Z" fill="#56C5AA"/>
<path d="M90.2389 150.609C90.2389 150.609 104.859 108.528 114.967 111.028C125.073 113.529 90.2389 150.609 90.2389 150.609Z" fill="#56C5AA"/>
<path d="M109.445 195.826H69.4332L65.8901 146.84H112.987L109.445 195.826Z" fill="#F36486"/>
<path d="M200.094 54.5349C200.094 54.5349 183.007 51.2009 186.757 33.9052C190.508 16.6076 201.762 16.8174 201.762 16.8174C201.762 16.8174 220.308 -11.7315 254.902 5.56416C289.495 22.8598 264.07 47.4511 283.451 63.9133C302.831 80.3754 331.476 156.151 269.223 149.002L200.094 54.5349Z" fill="#1A2D4F"/>
<path d="M247.312 227.513C245.581 230.412 239.406 240.562 228.859 246.945C197.661 265.866 150.188 238.645 134.66 229.734C120.44 221.573 109.847 212.895 102.994 206.652L52.6912 244.302C49.8144 243.413 47.0089 242.339 44.2711 241.076L44.1554 241.028L43.7334 240.818C32.392 235.556 22.944 227.465 16.0682 217.596C30.895 200.991 67.6585 162.101 88.1908 161.025C114.313 159.645 181.759 195.403 181.759 195.403L255.847 192.9C256.105 198.933 255.893 213.06 247.312 227.513Z" fill="#213E6F"/>
<path d="M237.188 95.3805C237.188 95.3805 207.457 113.44 208.847 120.387C210.237 127.335 210.237 127.335 210.237 127.335L181.755 195.409C191.199 198.619 202.787 201.759 216.21 203.744C231.15 205.957 244.39 206.154 255.133 205.595C259.373 192.088 285.73 106.374 262.89 93.7135C261.017 92.6759 258.711 92.0715 255.839 92.1504L237.188 95.3805Z" fill="#F9A52F"/>
<path d="M151.792 153.71L129.489 144.596C128.028 143.997 127.029 142.18 127.029 140.118V82.9279C127.029 79.7922 129.273 77.5438 131.499 78.4524L153.801 87.569C155.262 88.1638 156.261 89.9809 156.261 92.0445V149.233C156.261 152.372 154.017 154.621 151.792 153.71Z" fill="white"/>
<path d="M259.075 136.75C247.194 151.997 235.127 162.405 225.283 169.445C222.405 171.503 219.716 173.256 217.282 174.775C201.194 184.808 194.786 184.575 192.283 184.317C169.505 181.932 158.912 144.045 158.35 141.989L142.985 140.959C142.985 140.959 133.279 129.477 135.245 125.666C137.231 121.852 142.096 120.309 142.096 120.309C142.096 120.309 131.385 115.796 136.742 112.266C142.096 108.711 156.76 115.188 156.76 115.188C156.76 115.188 155.216 106.208 163.424 110.393C171.609 114.557 175.632 138.597 175.632 138.597C183.022 153.868 195.815 152.582 208.56 145.45C227.947 134.646 247.194 110.393 247.194 110.393L259.075 136.75Z" fill="#F8A2AA"/>
<path d="M263.579 139.939C259.296 144.542 254.097 149.543 247.879 154.526C239.814 160.99 232.029 165.834 225.282 169.445C220.58 162.756 213.565 152.746 208.56 145.45C220.091 137.897 227.406 130.07 232.041 124.101C237.675 116.849 240.846 110.426 248.44 108.239C252.959 106.94 259.135 107.111 263.3 110.486C269.789 115.741 270.892 128.347 263.579 139.939Z" fill="#F9A52F"/>
<path d="M194.05 96.3449C194.05 96.3449 192.162 86.4891 181.124 94.4777C170.086 102.466 165.432 105.887 167.447 109.282C169.461 112.676 181.755 105.313 181.755 105.313" fill="#F8A2AA"/>
<path d="M181.742 120.418V120.453C179.449 121.227 177.865 120.613 176.799 119.352C174.052 116.155 174.311 108.984 174.311 108.984C175.678 108.368 177.047 107.754 178.414 107.142C179.524 111.567 180.633 115.993 181.742 120.418Z" fill="#F8A2AA"/>
<path d="M184.358 121.163C183.324 121.452 182.452 121.163 181.742 120.453V120.418C181.257 119.968 180.837 119.321 180.514 118.578L180.481 118.515C178.608 114.378 178.414 107.142 178.414 107.142C180.267 104.693 182.119 102.247 183.973 99.8001C185.546 102.861 187.116 105.921 188.687 108.984C188.687 108.984 189.883 119.514 184.358 121.163Z" fill="#F8A2AA"/>
<path d="M198.316 155.795L185.392 153.308L190.658 150.498C178.285 149.949 176.799 119.352 176.799 119.352C177.865 120.613 179.449 121.227 181.742 120.453C182.452 121.163 183.324 121.452 184.358 121.163C189.883 119.514 188.687 108.984 188.687 108.984L181.193 107.625C181.29 106.849 181.58 106.01 182.033 105.105L193.954 96.4141C195.086 96.2852 196.15 96.3506 197.088 96.5758H197.217C201.417 97.546 204.227 101.552 204.195 105.85V106.526C204.066 124.264 203.55 132.339 207.394 134.116C208.428 134.571 208.913 134.214 209.396 134.763C212.691 138.382 198.316 155.795 198.316 155.795Z" fill="#F8A2AA"/>
<path d="M196.601 121.839L196.233 121.797C194.866 121.475 191.49 120.368 189.661 117.028C187.642 113.308 188.431 108.539 191.613 105.159C192.225 104.509 193.247 104.48 193.898 105.09C194.547 105.702 194.579 106.728 193.967 107.375C191.775 109.7 191.168 113.034 192.497 115.485C193.698 117.675 196.027 118.43 196.97 118.653C197.842 118.857 198.377 119.727 198.173 120.593C197.998 121.338 197.336 121.839 196.601 121.839Z" fill="#F35D69"/>
<path d="M183.669 112.283C182.928 112.283 182.256 112.151 181.648 111.885C180.884 111.554 179.147 110.451 179.594 107.392C179.723 106.507 180.554 105.914 181.426 106.027C182.31 106.156 182.918 106.978 182.791 107.862C182.726 108.312 182.741 108.838 182.934 108.921C183.357 109.103 184.695 109.34 187.906 107.569C190.033 106.407 191.761 105.021 191.777 105.009C192.458 104.462 193.488 104.526 194.052 105.186C194.616 105.852 194.589 106.815 193.942 107.4L192.857 106.204L193.929 107.411C193.725 107.588 191.835 109.103 189.465 110.401C187.188 111.658 185.272 112.283 183.669 112.283Z" fill="#F35D69"/>
<path d="M182.031 106.722C181.796 106.722 181.559 106.67 181.332 106.564C180.527 106.178 180.188 105.211 180.575 104.407C182.177 101.074 186.042 96.6567 191.671 95.1783C192.408 94.9878 193.093 94.88 193.781 94.8088C194.651 94.726 195.465 95.3535 195.561 96.239C195.654 97.1264 195.014 97.9253 194.129 98.0196C193.584 98.0793 193.045 98.162 192.477 98.3045C188.221 99.4248 184.893 102.88 183.49 105.806C183.209 106.383 182.631 106.722 182.031 106.722Z" fill="#F35D69"/>
<path d="M208.562 147.065C208.01 147.065 207.473 146.782 207.17 146.276C206.716 145.508 206.964 144.519 207.732 144.061C207.911 143.955 225.864 133.136 235.577 116.63C236.029 115.858 237.023 115.61 237.789 116.06C238.557 116.513 238.815 117.502 238.36 118.272C228.22 135.508 210.148 146.382 209.386 146.838C209.126 146.992 208.843 147.065 208.562 147.065Z" fill="#F35D69"/>
<path d="M255.853 92.1504C252.88 95.1225 232.626 115.315 224.484 115.184C224.031 115.184 223.126 115.121 222.707 114.539C220.251 111.179 237.181 95.3805 237.181 95.3805C236.89 93.9906 236.566 92.6355 236.276 91.2457L235.048 85.6883C233.981 86.7567 232.366 88.2408 230.203 89.7923C227.456 91.7962 221.123 96.06 215.923 96.2217C206.198 96.4796 199.671 76.9028 199.671 76.9028C198.121 76.385 196.572 75.9 194.988 75.3822C196.15 71.9577 197.282 68.5351 198.412 65.1106C194.535 55.224 198.412 35.3566 198.412 35.3566L200.093 29.0216C202.031 32.1554 208.524 41.8168 221.479 46.7581C233.207 51.2182 243.448 49.1816 247.196 48.2769C248.455 54.739 249.749 61.1683 251.007 67.6304V67.6631C251.912 72.2502 252.817 76.8701 253.754 81.4573C254.432 85.0088 255.142 88.5969 255.853 92.1504Z" fill="#F8A2AA"/>
<path d="M255.169 60.6177C253.09 66.9373 248.442 71.0837 244.786 69.8825C241.131 68.6794 239.851 62.5812 241.93 56.2616C244.009 49.9419 248.657 45.7937 252.315 46.9948C255.97 48.1979 257.248 54.2962 255.169 60.6177Z" fill="#F8A2AA"/>
<path d="M253.754 81.4572L236.276 91.2456L235.048 85.6883L251.008 67.663C251.912 72.2502 252.817 76.8701 253.754 81.4572Z" fill="#F35D69"/>
<path d="M314.585 230.772L311.686 236.572C278.594 251.771 238.626 257.665 200.087 258.79C162.903 259.887 127.075 256.52 100.04 252.754C102.074 244.92 110.376 226.258 144.263 219.407C148.706 218.518 153.57 217.817 158.926 217.37C216.668 212.623 314.585 230.772 314.585 230.772Z" fill="#4F66B9"/>
</g>
<defs>
<filter id="filter0_d_133_975" x="0" y="0" width="392.266" height="267" filterUnits="userSpaceOnUse" color-interpolation-filters="sRGB">
<feFlood flood-opacity="0" result="BackgroundImageFix"/>
<feColorMatrix in="SourceAlpha" type="matrix" values="0 0 0 0 0 0 0 0 0 0 0 0 0 0 0 0 0 0 127 0" result="hardAlpha"/>
<feOffset dy="4"/>
<feGaussianBlur stdDeviation="2"/>
<feComposite in2="hardAlpha" operator="out"/>
<feColorMatrix type="matrix" values="0 0 0 0 0 0 0 0 0 0 0 0 0 0 0 0 0 0 0.25 0"/>
<feBlend mode="normal" in2="BackgroundImageFix" result="effect1_dropShadow_133_975"/>
<feBlend mode="normal" in="SourceGraphic" in2="effect1_dropShadow_133_975" result="shape"/>
</filter>
</defs>
</svg>
