<svg  viewBox="0 0 636 480" fill="none" xmlns="http://www.w3.org/2000/svg">
<path d="M429.516 186.234C429.516 186.234 463.326 168.998 474.927 173.895C486.527 178.793 507.528 219.916 516.966 226.722C527.88 234.608 543.538 253.243 555.864 276.024C568.19 298.806 569.856 344.153 569.856 344.153H485.484L429.516 186.234Z" fill="#E6E6E6"/>
<path d="M247.061 240.077C247.061 240.077 207.73 217.181 190.787 207.578C173.844 197.974 130.138 255.71 104.508 260.582C78.8768 265.454 70.6343 345.463 70.6343 345.463H230.906L247.061 240.077Z" fill="#E0E0E0"/>
<path d="M303.372 233.717C303.372 233.717 278.568 212.946 265.517 209.015C252.467 205.085 204.792 250.622 185.712 250.432C166.632 250.241 119.135 271.318 119.135 271.318L81.408 345.514H247.836L303.372 233.717Z" fill="white"/>
<path d="M636 423.513H0V423.831H636V423.513Z" fill="#F0F0F0"/>
<path d="M554.045 139.221C551.908 134.234 546.515 124.911 535.372 122.367C525.196 120.039 517.475 132.924 511.204 133.815C504.933 134.705 505.582 131.919 492.938 127.162C482.126 123.104 474.876 133.662 472.306 139.157L554.045 139.221Z" fill="white"/>
<path d="M174.735 87.8827C174.735 87.8827 174.735 76.5365 163.592 76.0658C158.262 75.8369 151.75 80.1999 147.641 73.2929C142.871 65.292 134.514 60.5729 126.997 63.613C118.69 67.0346 113.984 80.149 105.869 79.0932C97.7533 78.0374 82.2858 72.6187 74.2849 87.8827H174.735Z" fill="white"/>
<path d="M458.098 37.537C458.098 37.537 458.098 26.1908 446.955 25.7201C441.626 25.4912 435.113 29.8541 431.004 22.9472C426.234 14.9336 417.877 10.2272 410.36 13.2672C402.054 16.6889 397.347 29.8032 389.232 28.7475C381.117 27.6917 365.649 22.273 357.648 37.537H458.098Z" fill="white"/>
<path d="M267.518 56.0526C280.309 50.6783 286.322 35.9521 280.947 23.1608C275.573 10.3695 260.847 4.3568 248.056 9.73116C235.264 15.1055 229.252 29.8317 234.626 42.623C240 55.4144 254.726 61.427 267.518 56.0526Z" fill="#FFD952"/>
<path d="M378.891 217.538C378.891 217.538 354.137 191.576 344.966 190.062C335.795 188.549 292.585 227.078 286.454 230.894C280.323 234.71 261.905 236.618 254.871 237.89C247.836 239.162 227.802 247.277 227.166 249.656C226.53 252.034 206.522 273.747 206.522 273.747C206.522 273.747 126.004 320.964 111.262 345.564H419.76L378.891 217.538Z" fill="#CECECE"/>
<path d="M567.312 470.399C567.312 475.181 454.46 479.061 315.24 479.061C176.019 479.061 63.1802 475.181 63.1802 470.399C63.1802 465.616 176.032 461.724 315.24 461.724C454.447 461.724 567.312 465.603 567.312 470.399Z" fill="#B7C1C9"/>
<path d="M383.152 166.263V85.1989L382.261 85.1735L382.325 166.238L383.152 166.263Z" fill="#263238"/>
<path d="M383.152 85.3261C383.152 85.3261 376.97 82.197 371.081 85.695C365.191 89.193 357.33 84.9191 357.33 84.9191C358.755 88.3535 361.693 92.5511 364.886 93.4288C362.936 96.167 360.341 98.3821 357.33 99.8778C357.33 99.8778 364.593 103.617 369.707 99.8778C374.82 96.1381 383.152 100.628 383.152 100.628V85.3261Z" fill="#104292"/>
<path d="M338.174 212.424V112.903L337.08 112.878L337.156 212.386L338.174 212.424Z" fill="#263238"/>
<path d="M338.174 113.056C338.174 113.056 330.542 109.24 323.355 113.514C316.168 117.788 306.476 112.56 306.476 112.56C308.231 116.77 311.831 121.947 315.761 123.015C313.355 126.371 310.168 129.091 306.476 130.94C306.476 130.94 315.38 135.519 321.663 130.94C327.947 126.361 338.199 131.843 338.199 131.843L338.174 113.056Z" fill="#104292"/>
<path d="M286.722 272.361V153.747L285.424 153.709L285.513 272.323L286.722 272.361Z" fill="#263238"/>
<path d="M286.722 153.925C286.722 153.925 277.678 149.359 269.053 154.472C260.429 159.585 248.943 153.327 248.943 153.327C251.029 158.352 255.303 164.521 260.01 165.793C257.148 169.796 253.348 173.037 248.943 175.231C248.943 175.231 259.577 180.688 267.044 175.231C274.51 169.774 286.722 176.325 286.722 176.325V153.925Z" fill="#104292"/>
<path d="M420.536 130.66V56.8714L419.722 56.8459L419.786 130.635L420.536 130.66Z" fill="#263238"/>
<path d="M420.536 56.9859C420.536 56.9859 414.901 54.1366 409.546 57.3166C404.191 60.4966 397.029 56.6043 397.029 56.6043C398.301 59.7334 400.998 63.5749 403.911 64.3635C402.132 66.8552 399.769 68.8729 397.029 70.2401C397.029 70.2401 403.644 73.6364 408.299 70.2401C412.955 66.8439 420.536 70.9143 420.536 70.9143V56.9859Z" fill="#104292"/>
<path d="M579.905 423.513H204.665C204.665 423.513 204.97 422.33 205.403 420.778C205.479 420.511 205.555 420.231 205.632 419.926C205.708 419.62 205.759 419.48 205.81 419.264C205.86 419.048 206.039 418.412 206.178 417.992C206.182 417.967 206.182 417.941 206.178 417.916C206.967 415.028 208.061 411.187 209.422 406.544C209.587 405.972 209.766 405.387 209.944 404.789C210.122 404.191 210.312 403.517 210.478 402.919C210.885 401.647 211.305 400.197 211.75 398.734C212.042 397.856 212.31 396.928 212.589 395.987C212.869 395.045 213.251 393.85 213.594 392.743C213.823 392.018 214.039 391.255 214.268 390.53C214.497 389.805 214.663 389.258 214.841 388.647C215.172 387.642 215.49 386.625 215.82 385.556C216.024 384.92 216.24 384.284 216.444 383.61C216.647 382.936 216.94 382.033 217.207 381.206C218.479 377.288 219.751 373.192 221.201 369.02C221.242 368.926 221.276 368.828 221.303 368.728C221.862 367.112 222.409 365.459 222.982 363.805C223.006 363.714 223.035 363.625 223.071 363.538L224.203 360.256C224.622 359.086 225.017 357.916 225.475 356.72C225.933 355.524 226.238 354.583 226.632 353.515L228.057 349.533C228.854 347.371 229.66 345.2 230.474 343.021L232.852 336.839L233.908 334.167C234.964 331.509 236.032 328.838 237.126 326.205C237.495 325.34 237.851 324.462 238.22 323.661C239.683 320.175 241.184 316.754 242.698 313.485C243.766 311.127 244.847 308.825 245.941 306.578C247.938 302.444 249.973 298.488 252.034 294.786C260.722 279.115 269.842 267.794 278.593 265.632C285.068 264.042 292.038 259.081 299.238 252.085C301.693 249.719 304.173 247.099 306.666 244.288C324.729 224.05 343.758 194.235 360.001 174.531L383.165 157.766C384.375 156.726 385.486 155.577 386.484 154.332C392.221 147.858 403.466 134.12 407.116 129.515C410.36 126.272 417.152 124.86 425.128 124.058C435.304 132.962 458.899 165.856 477.712 200.15C480.256 204.767 498.535 225.043 501.448 229.507C502.58 231.237 503.661 233.005 504.717 234.799C519.498 260.061 526.99 290.97 545.421 310.165C547.532 312.378 550.509 312.925 552.786 314.935C554.608 316.551 556.269 318.34 557.747 320.277C562.44 326.581 566.098 333.593 568.584 341.049C580.503 375.177 579.905 423.513 579.905 423.513Z" fill="#263238"/>
<path opacity="0.1" d="M293.349 270.962C293.349 270.962 330.72 305.662 342.168 311.589C353.616 317.517 394.536 282.448 394.536 282.448C394.536 282.448 403.682 276.024 396.66 273.061C389.639 270.097 364.021 284.877 347.447 286.951C335.604 288.439 320.938 276.52 318.394 276.024C315.85 275.528 293.349 270.962 293.349 270.962Z" fill="white"/>
<path opacity="0.1" d="M441.575 180.586L404.687 182.151C389.423 182.812 365.904 179.607 360.014 174.341L383.177 157.576C384.387 156.536 385.499 155.386 386.497 154.141C392.654 161.01 403.466 172.712 406.595 173.666C411.047 175.027 441.575 180.586 441.575 180.586Z" fill="white"/>
<path opacity="0.2" d="M557.772 320.086C538.018 323.902 518.811 329.932 495.062 327.947C455.287 324.615 409.711 326.879 412.281 318.153C414.85 309.427 421.91 282.308 450.784 282.601C467.142 282.753 491.056 255.761 504.73 234.608C519.51 259.87 527.002 290.78 545.434 309.974C547.545 312.187 550.522 312.734 552.798 314.744C554.625 316.36 556.291 318.149 557.772 320.086V320.086Z" fill="black"/>
<path opacity="0.2" d="M579.905 423.513H204.665L205.403 420.752C205.492 420.485 205.555 420.205 205.632 419.913C205.704 419.696 205.764 419.475 205.81 419.251C205.937 418.832 206.051 418.399 206.178 417.979C206.183 417.958 206.183 417.937 206.178 417.916C206.98 415.041 208.086 411.174 209.422 406.557C209.6 405.972 209.766 405.387 209.944 404.776C210.122 404.166 210.312 403.504 210.491 402.919C210.898 401.647 211.305 400.184 211.763 398.747C212.055 397.844 212.322 396.941 212.602 395.987C212.882 395.033 213.264 393.85 213.607 392.743C213.836 392.005 214.052 391.267 214.281 390.53C214.51 389.792 214.675 389.258 214.866 388.647C215.184 387.642 215.515 386.625 215.833 385.556C216.036 384.907 216.253 384.284 216.456 383.623C216.66 382.961 216.952 382.02 217.232 381.219C218.504 377.301 219.776 373.218 221.214 369.02C221.255 368.925 221.289 368.828 221.315 368.728L222.994 363.805C223.015 363.711 223.049 363.621 223.096 363.538C223.452 362.457 223.834 361.363 224.215 360.269L225.487 356.72C225.852 355.66 226.234 354.591 226.632 353.514L228.057 349.533C228.854 347.371 229.664 345.2 230.486 343.02C231.262 340.96 232.064 338.887 232.865 336.839C233.208 335.935 233.565 335.045 233.908 334.167C234.968 331.496 236.041 328.842 237.126 326.205C237.495 325.34 237.864 324.462 238.22 323.597C239.683 320.125 241.184 316.703 242.698 313.421C243.766 311.064 244.847 308.761 245.941 306.514C247.938 302.38 249.986 298.437 252.034 294.723C265.555 294.723 283.58 298.081 299.378 312.531C317.847 329.41 329.499 364.543 371.882 360.116C414.265 355.69 448.418 365.064 492.951 382.669C527.295 396.228 560.367 365.649 568.546 341.151C580.515 375.189 579.905 423.513 579.905 423.513Z" fill="black"/>
<path d="M310.024 395.058C310.024 395.058 331.369 371.094 334.917 371.094C338.466 371.094 365.929 371.92 378.852 371.094C391.776 370.267 405.971 385.086 417.343 395.058C428.715 405.031 459.319 414.138 459.319 414.138L464.28 423.246H310.024V395.058Z" fill="#263238"/>
<path opacity="0.2" d="M464.28 423.246H310.037V395.058C310.037 395.058 331.369 371.094 334.918 371.094C335.655 371.094 337.462 371.094 339.84 371.17C340.693 386.523 352.942 397.996 366.349 395.16L366.667 395.096C371.92 393.99 389.766 397.17 395.452 407.918C401.138 418.666 428.282 417.471 428.282 417.471C428.282 417.471 453.086 418.743 463.542 421.923L464.28 423.246Z" fill="black"/>
<path d="M338.466 423.246H92.6016C92.6016 423.246 92.9704 421.974 93.6573 419.633C93.81 419.124 93.9626 418.577 94.1407 417.967C94.853 415.575 95.7816 412.472 96.8755 408.923C97.4267 407.142 98.0118 405.26 98.6308 403.275C98.9488 402.296 99.2796 401.278 99.5976 400.248L101.111 395.541L101.645 393.951C104.189 386.421 106.899 378.446 109.646 371.399C110.422 369.376 111.224 367.418 112.012 365.573C112.597 364.187 113.183 362.864 113.742 361.617C114.302 360.371 114.9 359.188 115.447 358.068C115.816 357.343 116.184 356.656 116.541 355.995C117.623 353.737 119.15 351.721 121.031 350.067C141.828 336.075 158.58 318.725 170.524 310.496C184.656 300.752 201.218 297.318 216.736 296.872C227.211 297.042 237.665 297.858 248.04 299.315L250.05 299.645C250.583 299.747 251.109 299.878 251.627 300.04C252.668 300.36 253.674 300.786 254.629 301.312C254.921 301.477 255.239 301.63 255.532 301.808C257.117 302.767 258.608 303.875 259.984 305.115C260.798 305.865 261.638 306.654 262.528 307.494C262.556 307.548 262.595 307.595 262.643 307.634C263.228 308.244 263.8 308.906 264.36 309.529C266.759 312.3 268.977 315.223 271 318.28C272.081 319.87 273.124 321.511 274.18 323.165C274.676 323.941 275.134 324.717 275.63 325.492L277.283 328.24C277.817 329.13 278.339 329.995 278.848 330.873C279.128 331.331 279.395 331.814 279.687 332.285C280.959 334.447 282.197 336.567 283.402 338.645C283.449 338.76 283.514 338.867 283.592 338.963C283.999 339.713 284.432 340.438 284.864 341.163L285.093 341.545C285.844 342.817 286.582 344.089 287.319 345.285C287.815 346.099 288.273 346.875 288.769 347.625C289.952 349.508 291.135 351.289 292.267 352.879C292.713 353.489 293.158 354.151 293.616 354.672C293.658 354.746 293.709 354.814 293.768 354.876C294.137 355.384 294.532 355.83 294.913 356.288L295.04 356.427C295.407 356.872 295.798 357.297 296.211 357.699C296.422 357.925 296.648 358.137 296.885 358.335C297.442 358.842 298.037 359.306 298.666 359.722C298.849 359.855 299.045 359.97 299.251 360.065C299.467 360.18 299.683 360.269 299.899 360.358C300.051 360.426 300.209 360.482 300.37 360.523C300.593 360.612 300.83 360.663 301.07 360.676C303.42 361.19 305.629 362.21 307.544 363.665L308.981 364.708C309.465 365.064 309.935 365.459 310.444 365.866C310.953 366.273 311.411 366.705 311.907 367.138C312.403 367.57 312.925 368.028 313.408 368.499C314.171 369.211 314.934 369.962 315.672 370.712C315.927 370.954 316.181 371.208 316.435 371.488C317.707 372.76 318.979 374.146 320.251 375.533C320.506 375.825 320.76 376.093 320.989 376.398C329.893 386.574 337.741 398.187 338.543 400.044C339.891 403.326 338.466 423.246 338.466 423.246Z" fill="#263238"/>
<path opacity="0.1" d="M338.466 423.246H92.6016C92.6016 423.246 92.9704 421.974 93.6573 419.633C93.81 419.124 93.9626 418.577 94.1407 417.967C94.853 415.575 95.7816 412.472 96.8755 408.923C97.4267 407.142 98.0118 405.26 98.6308 403.275C98.9488 402.296 99.2796 401.278 99.5976 400.248L101.111 395.541L101.645 393.951C104.189 386.421 106.899 378.446 109.646 371.399C110.422 369.376 111.224 367.418 112.012 365.573C112.597 364.187 113.183 362.864 113.742 361.617C114.302 360.371 114.9 359.188 115.447 358.068C115.816 357.343 116.184 356.656 116.541 355.995C117.623 353.737 119.15 351.721 121.031 350.067C141.828 336.075 158.58 318.725 170.524 310.496C184.656 300.752 201.218 297.318 216.736 296.872C227.211 297.042 237.665 297.858 248.04 299.315L250.05 299.645C250.583 299.747 251.109 299.878 251.627 300.04C252.668 300.36 253.674 300.786 254.629 301.312C254.921 301.477 255.239 301.63 255.532 301.808C257.117 302.767 258.608 303.875 259.984 305.115C260.798 305.865 261.638 306.654 262.528 307.494C262.556 307.548 262.595 307.595 262.643 307.634C263.228 308.244 263.8 308.906 264.36 309.529C266.759 312.3 268.977 315.223 271 318.28C272.081 319.87 273.124 321.511 274.18 323.165C274.676 323.941 275.134 324.717 275.63 325.492L277.283 328.24C277.817 329.13 278.339 329.995 278.848 330.873C279.128 331.331 279.395 331.814 279.687 332.285C280.959 334.447 282.197 336.567 283.402 338.645C283.449 338.76 283.514 338.867 283.592 338.963C283.999 339.713 284.432 340.438 284.864 341.163L285.093 341.545C285.844 342.817 286.582 344.089 287.319 345.285C287.815 346.099 288.273 346.875 288.769 347.625C289.952 349.508 291.135 351.289 292.267 352.879C292.713 353.489 293.158 354.151 293.616 354.672C293.658 354.746 293.709 354.814 293.768 354.876C294.137 355.384 294.532 355.83 294.913 356.288L295.04 356.427C295.407 356.872 295.798 357.297 296.211 357.699C296.422 357.925 296.648 358.137 296.885 358.335C297.442 358.842 298.037 359.306 298.666 359.722C298.849 359.855 299.045 359.97 299.251 360.065C299.467 360.18 299.683 360.269 299.899 360.358C300.051 360.426 300.209 360.482 300.37 360.523C300.593 360.612 300.83 360.663 301.07 360.676C303.42 361.19 305.629 362.21 307.544 363.665L308.981 364.708C309.465 365.064 309.935 365.459 310.444 365.866C310.953 366.273 311.411 366.705 311.907 367.138C312.403 367.57 312.925 368.028 313.408 368.499C314.171 369.211 314.934 369.962 315.672 370.712C315.927 370.954 316.181 371.208 316.435 371.488C317.707 372.76 318.979 374.146 320.251 375.533C320.506 375.825 320.76 376.093 320.989 376.398C329.893 386.574 337.741 398.187 338.543 400.044C339.891 403.326 338.466 423.246 338.466 423.246Z" fill="white"/>
<path opacity="0.2" d="M299.238 360.04C293.064 359.616 286.869 359.595 280.692 359.976C269.252 360.674 257.776 360.58 246.348 359.696C241.146 359.468 246.87 347.167 256.206 342.283C263.641 338.23 270.699 333.522 277.296 328.214C285.666 342.245 293.056 356.822 299.238 360.04Z" fill="black"/>
<path opacity="0.2" d="M327.82 423.246H115.001C125.864 414.342 151.432 394.422 164.533 393.99C181.451 393.443 198.228 411.645 218.021 403.377C237.813 395.109 265.555 383.445 278.975 383.915C304.211 384.78 322.897 405.349 327.82 423.246Z" fill="black"/>
<path opacity="0.5" d="M550.522 395.529C550.522 395.529 520.808 353.82 513.379 349.253C505.951 344.687 477.967 352.103 459.103 352.103C440.239 352.103 429.402 378.726 417.979 383.521C406.557 388.316 367.697 423.513 367.697 423.513H560.799L550.522 395.529Z" fill="white"/>
<path d="M550.522 395.529C550.522 395.529 520.808 353.82 513.379 349.253C505.951 344.687 477.967 352.103 459.103 352.103C440.239 352.103 429.402 378.726 417.979 383.521C406.557 388.316 367.697 423.513 367.697 423.513H560.799L550.522 395.529Z" fill="#263238"/>
<path opacity="0.1" d="M550.522 395.529C550.522 395.529 520.808 353.82 513.379 349.253C505.951 344.687 477.967 352.103 459.103 352.103C440.239 352.103 429.402 378.726 417.979 383.521C406.557 388.316 367.697 423.513 367.697 423.513H560.799L550.522 395.529Z" fill="white"/>
<path opacity="0.2" d="M560.799 423.513H367.697C367.697 423.513 368.969 422.381 371.055 420.498C380.862 419.226 402.931 416.008 408.897 412.383C416.631 407.664 453.875 402.957 472.726 405.946C491.577 408.936 490.712 379.82 500.15 372.099C505.9 367.392 509.538 356.338 511.471 348.465C512.141 348.636 512.784 348.901 513.379 349.253C520.82 353.82 550.522 395.529 550.522 395.529L560.799 423.513Z" fill="black"/>
<path d="M233.628 75.0229V95.9346C233.628 96.9061 233.437 97.8682 233.065 98.7657C232.692 99.6631 232.147 100.478 231.459 101.165C230.772 101.851 229.955 102.395 229.057 102.766C228.159 103.137 227.197 103.327 226.225 103.325H202.248C201.037 103.324 199.845 103.027 198.776 102.46L192.899 105.945L195.774 99.4962C195.171 98.4059 194.856 97.1803 194.858 95.9346V75.0229C194.858 73.0629 195.636 71.1831 197.022 69.7972C198.408 68.4112 200.288 67.6326 202.248 67.6326H226.263C228.219 67.6393 230.092 68.4209 231.473 69.8061C232.853 71.1913 233.628 73.0673 233.628 75.0229Z" fill="#104292"/>
<path opacity="0.7" d="M233.628 75.0229V95.9346C233.628 96.9061 233.437 97.8682 233.065 98.7657C232.692 99.6631 232.147 100.478 231.459 101.165C230.772 101.851 229.955 102.395 229.057 102.766C228.159 103.137 227.197 103.327 226.225 103.325H202.248C201.037 103.324 199.845 103.027 198.776 102.46L192.899 105.945L195.774 99.4962C195.171 98.4059 194.856 97.1803 194.858 95.9346V75.0229C194.858 73.0629 195.636 71.1831 197.022 69.7972C198.408 68.4112 200.288 67.6326 202.248 67.6326H226.263C228.219 67.6393 230.092 68.4209 231.473 69.8061C232.853 71.1913 233.628 73.0673 233.628 75.0229Z" fill="white"/>
<path d="M223.72 79.653L209.728 93.645L209.575 93.7849C209.403 93.9772 209.183 94.1218 208.939 94.2046C208.827 94.2617 208.707 94.3003 208.583 94.3191C208.464 94.3322 208.345 94.3322 208.227 94.3191C207.981 94.3186 207.738 94.2666 207.514 94.1665C207.393 94.1271 207.277 94.0715 207.171 94.0011C207.065 93.927 206.966 93.8417 206.878 93.7467L202.77 89.6509C202.423 89.3158 202.218 88.8605 202.197 88.3789C202.196 88.1245 202.244 87.8723 202.341 87.637C202.438 87.4016 202.58 87.1878 202.76 87.0079C202.94 86.8281 203.154 86.6857 203.389 86.5892C203.624 86.4926 203.876 86.4437 204.131 86.4454C204.382 86.4435 204.63 86.4921 204.862 86.5882C205.093 86.6844 205.303 86.8262 205.479 87.0051L208.227 89.7526L220.947 77.0326C221.309 76.6738 221.798 76.4724 222.308 76.4724C222.817 76.4724 223.307 76.6738 223.669 77.0326C224.005 77.3832 224.196 77.8474 224.206 78.3329C224.215 78.8183 224.042 79.2896 223.72 79.653V79.653Z" fill="#104292"/>
<path d="M169.329 444.908L169.278 463.364L176.732 463.975L180.433 446.701L169.329 444.908Z" fill="#FF8B7B"/>
<path d="M174.569 462.232C174.569 462.232 176.935 457.742 178.309 458.226C179.683 458.709 180.242 464.166 180.242 464.166C180.242 464.166 187.76 466.71 189.859 466.85C191.957 466.99 193.675 468.122 193.904 472.281L168.247 472.205C168.247 472.205 168.438 462.945 168.489 461.367C168.54 459.79 170.804 461.762 170.804 461.762L174.569 462.232Z" fill="#263238"/>
<path d="M168.553 464.878C169.013 465.13 169.416 465.474 169.738 465.889C170.059 466.303 170.291 466.78 170.42 467.288C170.549 467.797 170.572 468.326 170.487 468.844C170.402 469.362 170.211 469.856 169.926 470.297C169.899 470.341 169.891 470.394 169.903 470.444C169.915 470.494 169.946 470.537 169.99 470.564C170.034 470.591 170.087 470.599 170.137 470.588C170.187 470.576 170.23 470.544 170.257 470.5C170.569 470.017 170.78 469.476 170.875 468.909C170.971 468.341 170.949 467.761 170.812 467.202C170.675 466.644 170.426 466.119 170.079 465.66C169.732 465.201 169.295 464.819 168.794 464.535C168.591 464.395 168.336 464.751 168.553 464.878Z" fill="white"/>
<path d="M168.489 470.729L188.625 470.996H193.306C193.56 470.996 193.624 470.589 193.306 470.589L173.183 470.322L168.502 470.259C168.235 470.259 168.184 470.666 168.502 470.666L168.489 470.729Z" fill="white"/>
<path d="M179.136 465.781C179.325 465.477 179.577 465.216 179.874 465.016C180.171 464.816 180.507 464.681 180.86 464.62C181.213 464.558 181.575 464.572 181.923 464.661C182.27 464.749 182.595 464.91 182.875 465.132C183.066 465.285 183.321 464.929 183.13 464.776C182.796 464.537 182.417 464.368 182.016 464.279C181.615 464.19 181.201 464.182 180.797 464.257C180.393 464.332 180.009 464.487 179.666 464.714C179.324 464.941 179.031 465.235 178.805 465.578C178.627 465.794 178.958 465.997 179.136 465.781V465.781Z" fill="white"/>
<path d="M181.26 466.494C181.449 466.189 181.701 465.929 181.998 465.728C182.295 465.528 182.632 465.393 182.985 465.332C183.338 465.271 183.7 465.285 184.047 465.373C184.394 465.462 184.719 465.622 185 465.845C185.19 465.997 185.445 465.641 185.254 465.489C184.92 465.25 184.541 465.081 184.141 464.991C183.74 464.902 183.325 464.895 182.921 464.97C182.517 465.044 182.133 465.2 181.791 465.427C181.448 465.654 181.155 465.947 180.929 466.29C180.751 466.506 181.069 466.71 181.26 466.494V466.494Z" fill="white"/>
<path d="M183.448 467.13C183.637 466.823 183.889 466.561 184.187 466.36C184.486 466.158 184.823 466.022 185.178 465.961C185.533 465.9 185.896 465.914 186.245 466.004C186.593 466.093 186.919 466.256 187.2 466.481C187.391 466.633 187.633 466.277 187.442 466.125C187.109 465.886 186.731 465.717 186.331 465.628C185.931 465.539 185.518 465.532 185.115 465.606C184.712 465.681 184.329 465.837 183.988 466.064C183.646 466.29 183.355 466.584 183.13 466.926C182.939 467.142 183.27 467.346 183.448 467.13V467.13Z" fill="white"/>
<path d="M156.062 259.972C156.43 263.253 156.469 273.378 157.181 278.784C158.516 289.088 160.285 302.444 161.824 315.825C163.617 331.318 165.105 346.862 165.258 357.687C165.64 385.48 168.629 452.527 168.629 452.527L180.662 451.955C180.662 451.955 192.046 384.539 193.382 356.326C194.476 332.895 190.393 272.882 189.324 258.382L156.062 259.972Z" fill="#104292"/>
<path opacity="0.2" d="M157.181 278.784C158.517 289.088 160.285 302.444 161.824 315.825C166.912 298.017 160.119 271.776 160.119 271.776L157.181 278.784Z" fill="black"/>
<path d="M167.611 455.58L181.743 454.906L182.557 450.352L167.026 450.911L167.611 455.58Z" fill="#263238"/>
<path d="M105.716 442.147L103.782 460.515L111.147 461.889L116.579 445.073L105.716 442.147Z" fill="#FF8B7B"/>
<path d="M109.163 459.93C109.163 459.93 111.936 455.694 113.297 456.317C114.658 456.941 114.569 462.436 114.569 462.436C114.569 462.436 121.781 465.718 123.855 466.074C125.928 466.43 127.492 467.778 127.34 471.887L101.811 469.203C101.811 469.203 102.956 460.006 103.172 458.442C103.388 456.877 105.423 459.078 105.423 459.078L109.163 459.93Z" fill="#263238"/>
<path d="M102.905 461.94C103.337 462.237 103.704 462.621 103.982 463.066C104.259 463.512 104.442 464.01 104.518 464.529C104.595 465.048 104.563 465.578 104.426 466.084C104.288 466.591 104.047 467.064 103.719 467.473C103.688 467.513 103.675 467.564 103.683 467.615C103.69 467.665 103.717 467.71 103.757 467.74C103.797 467.771 103.848 467.784 103.898 467.776C103.949 467.769 103.994 467.742 104.024 467.702C104.386 467.255 104.651 466.738 104.805 466.184C104.96 465.63 104.998 465.05 104.92 464.48C104.841 463.911 104.647 463.363 104.348 462.871C104.05 462.38 103.654 461.955 103.185 461.622C102.994 461.469 102.701 461.787 102.905 461.94V461.94Z" fill="white"/>
<path d="M102.256 467.766L122.252 470.081L126.895 470.615C127.162 470.615 127.251 470.246 126.996 470.221L107.001 467.893L102.345 467.359C102.091 467.359 101.989 467.727 102.256 467.766V467.766Z" fill="white"/>
<path d="M113.335 463.95C113.554 463.661 113.832 463.423 114.151 463.251C114.47 463.079 114.821 462.977 115.183 462.951C115.544 462.926 115.906 462.978 116.246 463.104C116.585 463.23 116.894 463.428 117.151 463.682C117.329 463.848 117.609 463.53 117.444 463.352C117.136 463.079 116.776 462.872 116.386 462.742C115.996 462.612 115.583 462.562 115.174 462.595C114.764 462.628 114.365 462.744 114.001 462.935C113.637 463.127 113.315 463.389 113.055 463.708C112.864 463.899 113.17 464.14 113.361 463.95H113.335Z" fill="white"/>
<path d="M115.383 464.802C115.609 464.523 115.89 464.295 116.208 464.129C116.527 463.964 116.875 463.866 117.233 463.841C117.591 463.816 117.95 463.864 118.288 463.984C118.626 464.103 118.936 464.291 119.199 464.535C119.377 464.713 119.657 464.395 119.492 464.217C119.184 463.944 118.824 463.737 118.434 463.607C118.044 463.477 117.631 463.427 117.222 463.46C116.812 463.493 116.413 463.609 116.049 463.8C115.685 463.991 115.363 464.254 115.103 464.573C114.9 464.764 115.205 464.993 115.409 464.802H115.383Z" fill="white"/>
<path d="M117.495 465.705C117.714 465.417 117.992 465.179 118.311 465.006C118.629 464.834 118.981 464.732 119.342 464.707C119.703 464.682 120.066 464.734 120.405 464.86C120.745 464.986 121.053 465.183 121.311 465.438C121.489 465.603 121.768 465.285 121.603 465.107C121.296 464.835 120.937 464.628 120.548 464.498C120.159 464.368 119.748 464.318 119.339 464.351C118.93 464.385 118.533 464.5 118.17 464.691C117.807 464.882 117.486 465.145 117.227 465.463C117.024 465.654 117.329 465.896 117.52 465.705H117.495Z" fill="white"/>
<path d="M144.308 361.134C138.177 388.736 116.019 448.902 116.019 448.902L104.062 447.414C104.062 447.414 116.172 386.536 119.135 358.895C120.713 344.178 124.707 276.698 125.724 259.844L165.703 261.498C164.279 275.973 149.384 338.238 144.308 361.147V361.134Z" fill="#104292"/>
<path d="M102.968 447.693L116.998 449.449L118.588 445.099L102.943 443.012L102.968 447.693Z" fill="#263238"/>
<path d="M123.384 259.933C123.384 261.702 127.086 265.518 128.841 265.518L190.698 263.597C192.555 263.597 194.667 262.21 194.514 260.366C192.823 238.488 184.071 163.363 182.125 158.682C179.721 152.946 167.866 151.419 162.714 151.19C154.579 151.024 146.441 151.402 138.355 152.322C134.412 152.704 130.813 153.225 127.836 153.747C123.308 154.523 124.185 158.937 124.351 163.529C124.605 170.703 124.351 180.332 125.114 188.587C125.114 189.007 125.203 189.401 125.241 189.859C125.521 192.708 125.775 195.519 125.928 198.305C125.928 198.852 126.004 199.424 126.017 199.971C127.124 228.248 124.109 242.316 123.384 259.933Z" fill="white"/>
<path d="M148.353 265.874C140.111 266.777 118.232 267.324 118.067 263.877C117.787 258.127 123.727 217.957 124.084 209.957C124.084 208.685 124.173 207.082 124.198 205.098C124.198 201.434 124.198 196.664 124.198 191.538C124.045 175.587 123.6 156.215 123.6 156.215C123.6 156.215 123.88 151.813 143.138 151.826C143.138 151.826 149.053 174.951 150.223 195.507C151.393 216.062 151.139 265.518 148.353 265.874Z" fill="#263238"/>
<path d="M162.727 151.127C162.727 151.127 172.28 173.132 172.979 207.095C173.679 241.057 174.468 265.823 174.468 265.823C174.468 265.823 194.82 266.103 196.435 262.986C197.325 261.282 193.535 231.797 191.347 214.51C188.867 194.832 184.237 162.536 182.901 158.695C180.624 152.081 162.727 151.127 162.727 151.127Z" fill="#263238"/>
<path opacity="0.2" d="M133.865 177.393L124.198 205.098C124.198 201.434 124.198 196.664 124.198 191.538L133.865 177.393Z" fill="black"/>
<path d="M146.407 125.814C146.407 125.814 141.319 123.27 141.574 120.98C141.828 118.691 143.151 119.339 143.151 119.339C143.151 119.339 140.136 113.959 142.846 112.903C145.555 111.847 145.784 112.763 145.784 112.763C145.784 112.763 144.512 108.324 146.636 106.886C148.252 105.78 149.04 107.815 149.04 107.815C149.04 107.815 152.042 101.989 155.553 102.447C155.915 102.498 156.262 102.623 156.573 102.815C156.884 103.006 157.152 103.259 157.361 103.559C157.57 103.858 157.715 104.198 157.787 104.556C157.859 104.914 157.856 105.283 157.779 105.64C157.779 105.64 164.826 102.536 168.464 104.482C172.102 106.429 168.655 108.298 168.655 108.298C168.655 108.298 178.347 107.701 178.742 110.321C179.136 112.941 175.663 114.226 175.663 114.226C175.663 114.226 180.026 115.956 178.716 119.238C178.624 119.641 178.43 120.014 178.151 120.32C177.872 120.626 177.518 120.854 177.125 120.982C176.731 121.11 176.311 121.134 175.905 121.051C175.5 120.968 175.123 120.782 174.811 120.51C174.811 120.51 178.195 125.598 175.472 126.577C172.75 127.556 169.316 121.972 169.316 121.972L146.407 125.814Z" fill="#263238"/>
<path d="M161.366 108.68C159.092 108.215 156.746 108.222 154.475 108.702C152.204 109.181 150.055 110.122 148.163 111.466C145.695 113.259 143.685 115.752 144.219 118.958C145.594 125.609 147.339 132.179 149.447 138.636L172.992 122.697C172.992 122.697 176.375 118.105 170.448 112.521C168.527 110.69 164.762 109.341 161.366 108.68Z" fill="#263238"/>
<path d="M161.366 155.477C161.183 154.796 161.047 154.103 160.959 153.404C160.855 152.53 160.834 151.648 160.895 150.77L161.862 146.395C161.86 146.365 161.86 146.335 161.862 146.306V146.306L154.472 138.954L149.384 133.866C149.931 139.424 148.557 146.331 146.84 152.246C147.285 154.854 159.801 161.214 161.366 155.477Z" fill="#FF8B7B"/>
<path d="M158.02 157.792C154.904 156.151 151.457 151.75 148.035 147.616C147.014 147.934 146.107 148.544 145.429 149.371C144.751 150.199 144.33 151.207 144.219 152.271L147.666 162.142L158.02 157.792Z" fill="white"/>
<path d="M160.895 150.77C160.634 153.339 159.636 155.778 158.021 157.792L164.075 161.951L165.347 154.917C164.128 153.275 162.619 151.87 160.895 150.77V150.77Z" fill="white"/>
<g opacity="0.2">
<path opacity="0.2" d="M161.862 146.395L160.895 150.77C158.173 149.664 155.26 147.145 154.535 144.321C154.001 142.286 154.841 140.327 155.667 140.187L161.862 146.395Z" fill="black"/>
</g>
<path d="M172.305 136.867C172.102 137.821 171.847 138.763 171.593 139.691C169.227 147.883 159.28 149.028 152.831 143.329C152.247 142.811 151.703 142.25 151.203 141.65C147.043 136.562 147.87 132.594 148.099 123.511C148.13 121.403 148.699 119.337 149.752 117.51C150.805 115.683 152.308 114.156 154.117 113.073C155.927 111.989 157.983 111.387 160.091 111.321C162.199 111.256 164.288 111.73 166.161 112.699C173.882 116.694 174.467 127.34 172.305 136.867Z" fill="#FF8B7B"/>
<path d="M162.816 127.086C162.816 127.798 163.083 128.358 163.541 128.447C163.999 128.536 164.444 127.951 164.495 127.175C164.546 126.399 164.241 125.903 163.77 125.814C163.299 125.725 162.88 126.31 162.816 127.022" fill="#263238"/>
<path d="M166.632 138.318H166.874C166.91 138.315 166.945 138.304 166.976 138.287C167.008 138.269 167.035 138.245 167.057 138.217C167.079 138.188 167.094 138.155 167.102 138.119C167.11 138.084 167.11 138.048 167.103 138.012C167.09 137.943 167.052 137.88 166.995 137.838C166.938 137.795 166.868 137.776 166.797 137.783C166.275 137.856 165.743 137.822 165.234 137.683C164.726 137.544 164.25 137.303 163.838 136.974C163.425 136.646 163.083 136.237 162.833 135.773C162.583 135.308 162.43 134.798 162.384 134.273C162.379 134.238 162.367 134.204 162.349 134.174C162.331 134.144 162.307 134.118 162.278 134.098C162.25 134.077 162.217 134.063 162.183 134.056C162.148 134.049 162.113 134.049 162.078 134.056C162.043 134.061 162.009 134.073 161.978 134.091C161.948 134.109 161.921 134.132 161.9 134.161C161.878 134.189 161.863 134.222 161.854 134.256C161.846 134.291 161.844 134.327 161.849 134.362C161.975 135.514 162.545 136.572 163.438 137.31C164.331 138.049 165.477 138.41 166.632 138.318V138.318Z" fill="#263238"/>
<path d="M148.01 124.326C148.01 124.326 150.745 124.326 150.961 126.666C151.177 129.006 150.961 129.324 150.961 129.324H151.304C151.646 129.331 151.985 129.261 152.296 129.12C152.607 128.978 152.882 128.768 153.101 128.505C153.319 128.242 153.476 127.934 153.559 127.602C153.643 127.271 153.65 126.924 153.581 126.59C153.225 124.682 153.111 122.507 154.433 122.519C156.787 122.519 153.161 117.546 156.303 116.465C159.725 115.32 168.654 114.48 172.394 119.797C171.575 116.513 169.585 113.64 166.797 111.72C162.358 108.998 153.67 108.769 150.35 113.17C147.03 117.571 148.01 124.326 148.01 124.326Z" fill="#263238"/>
<path d="M143.736 129.172C143.958 130.28 144.395 131.333 145.024 132.271C145.652 133.21 146.459 134.015 147.399 134.641C149.943 136.295 152.106 134.26 152.169 131.385C152.169 128.841 150.897 124.847 148.061 124.338C147.421 124.225 146.763 124.278 146.15 124.49C145.536 124.702 144.987 125.068 144.553 125.552C144.12 126.036 143.818 126.622 143.675 127.256C143.532 127.889 143.553 128.549 143.736 129.172" fill="#FF8B7B"/>
<path d="M170.219 127.582C170.219 128.294 170.486 128.854 170.957 128.943C171.427 129.032 171.847 128.434 171.911 127.734C171.974 127.035 171.644 126.462 171.173 126.361C170.702 126.259 170.283 126.87 170.219 127.633" fill="#263238"/>
<path d="M172.801 125.839C172.738 125.831 172.678 125.805 172.629 125.765C172.579 125.724 172.542 125.671 172.521 125.61C172.447 125.367 172.324 125.141 172.16 124.946C171.996 124.752 171.795 124.593 171.567 124.478C171.092 124.297 170.567 124.297 170.092 124.478C170.002 124.512 169.903 124.509 169.815 124.472C169.728 124.434 169.658 124.363 169.621 124.275C169.603 124.23 169.593 124.183 169.594 124.135C169.594 124.087 169.604 124.04 169.623 123.996C169.642 123.952 169.67 123.912 169.704 123.879C169.739 123.846 169.78 123.821 169.825 123.804C170.48 123.551 171.205 123.551 171.86 123.804C172.165 123.961 172.435 124.179 172.653 124.444C172.872 124.708 173.035 125.014 173.132 125.343C173.165 125.431 173.162 125.528 173.124 125.614C173.086 125.7 173.016 125.767 172.928 125.801C172.889 125.822 172.846 125.835 172.801 125.839V125.839Z" fill="#263238"/>
<path d="M160.997 125.279C160.936 125.286 160.875 125.276 160.819 125.252C160.763 125.228 160.714 125.19 160.677 125.141C160.64 125.093 160.616 125.036 160.608 124.975C160.599 124.915 160.606 124.853 160.628 124.796C160.893 124.143 161.392 123.612 162.027 123.308C162.354 123.18 162.703 123.12 163.053 123.134C163.403 123.147 163.747 123.232 164.063 123.384C164.107 123.401 164.148 123.427 164.183 123.46C164.218 123.493 164.245 123.532 164.264 123.576C164.283 123.62 164.293 123.668 164.294 123.715C164.294 123.763 164.285 123.811 164.266 123.855C164.227 123.941 164.156 124.009 164.069 124.044C163.981 124.08 163.883 124.08 163.796 124.046C163.567 123.934 163.319 123.87 163.066 123.857C162.812 123.844 162.558 123.882 162.32 123.969C161.862 124.197 161.501 124.58 161.302 125.051C161.278 125.114 161.237 125.169 161.183 125.209C161.129 125.25 161.064 125.274 160.997 125.279Z" fill="#263238"/>
<path d="M166.886 128.345C167.855 130.262 168.705 132.238 169.43 134.26C169.583 135.087 166.886 135.201 166.886 135.201V128.345Z" fill="#FF5652"/>
<path d="M148.035 147.667C148.035 147.667 141.23 146.547 140.022 152.233L140.925 170.741L145.033 175.396L142.121 178.602L143.189 202.401L150.478 204.462C150.299 197.834 150.808 185.903 148.302 168.413C147.365 161.535 147.275 154.567 148.035 147.667V147.667Z" fill="#263238"/>
<path opacity="0.2" d="M148.035 147.667C148.035 147.667 141.23 146.547 140.022 152.233L140.925 170.741L145.033 175.396L142.121 178.602L143.189 202.401L150.478 204.462C150.299 197.834 150.808 185.903 148.302 168.413C147.365 161.535 147.275 154.567 148.035 147.667V147.667Z" fill="white"/>
<path d="M160.895 150.77C160.895 150.77 164.215 153.836 166.149 161.099C168.082 168.362 172.801 200.315 172.903 204.347L179.746 198.687L175.638 173.336L171.3 170.932L174.607 166.111C174.607 166.111 170.791 154.561 168.565 151.686C166.339 148.812 161.43 148.265 161.43 148.265L160.895 150.77Z" fill="#263238"/>
<path opacity="0.2" d="M160.895 150.77C160.895 150.77 164.215 153.836 166.149 161.099C168.082 168.362 172.801 200.315 172.903 204.347L179.746 198.687L175.638 173.336L171.3 170.932L174.607 166.111C174.607 166.111 170.791 154.561 168.565 151.686C166.339 148.812 161.43 148.265 161.43 148.265L160.895 150.77Z" fill="white"/>
<path d="M121.056 158.822C117.24 166.136 113.806 173.59 110.397 181.069C108.68 184.796 107.026 188.562 105.309 192.301L102.841 197.911L101.569 200.646L100.959 201.918L100.666 202.541C100.564 202.757 100.539 202.859 100.463 203.024L100.31 203.469L100.195 203.826C100.119 204.08 100.056 204.296 100.005 204.487L99.852 205.059C99.5213 206.509 99.3559 207.603 99.1905 208.799C99.0252 209.995 98.898 211.038 98.7962 212.119C98.5673 214.281 98.3765 216.393 98.2493 218.479C97.9821 222.689 97.7786 226.861 97.6769 231.021C97.4352 239.352 97.3843 247.633 97.6769 255.978C97.7153 257.124 98.1743 258.216 98.9663 259.045C99.7584 259.875 100.828 260.383 101.971 260.475C103.114 260.566 104.251 260.233 105.165 259.54C106.078 258.846 106.705 257.841 106.924 256.715V256.715C108.527 248.638 109.939 240.51 111.364 232.446C112.101 228.426 112.776 224.406 113.539 220.451C113.933 218.466 114.302 216.507 114.709 214.599C114.912 213.645 115.129 212.717 115.345 211.826C115.561 210.936 115.803 210.084 116.006 209.537L116.083 209.371V209.295V209.384V209.511L115.968 209.791V209.728L116.07 209.537L116.299 209.155L116.731 208.379L118.283 205.594L121.272 200.124C123.206 196.461 125.088 192.823 127.022 189.147C130.838 181.794 134.45 174.417 137.834 166.887C138.822 164.661 138.906 162.138 138.067 159.852C137.228 157.566 135.532 155.696 133.339 154.638C131.145 153.58 128.626 153.417 126.315 154.184C124.003 154.951 122.081 156.587 120.954 158.746L121.056 158.822Z" fill="#263238"/>
<path d="M88.4674 279.675L88.0986 272.043C88.0951 271.98 88.1044 271.917 88.1257 271.858C88.147 271.799 88.18 271.744 88.2227 271.698C88.2654 271.652 88.3169 271.615 88.3743 271.589C88.4316 271.563 88.4936 271.548 88.5565 271.547L92.6905 271.343L92.6269 270.071L88.4929 270.275C88.2689 270.286 88.0495 270.342 87.847 270.438C87.6445 270.534 87.4631 270.67 87.313 270.836C87.1629 271.003 87.0472 271.198 86.9725 271.409C86.8977 271.62 86.8654 271.844 86.8774 272.068L87.2463 279.7L88.4674 279.675Z" fill="#263238"/>
<path d="M116.668 270.695L117.037 278.327L118.309 278.263L117.953 270.631C117.926 270.179 117.724 269.755 117.388 269.451C117.053 269.146 116.612 268.985 116.159 269.003L111.936 269.206V270.478L116.07 270.275C116.137 270.258 116.207 270.256 116.275 270.269C116.344 270.281 116.408 270.308 116.465 270.348C116.521 270.388 116.569 270.44 116.604 270.499C116.639 270.559 116.661 270.626 116.668 270.695V270.695Z" fill="#263238"/>
<path d="M134.616 280.68L136.473 319.069C136.511 319.925 136.208 320.761 135.632 321.395C135.055 322.029 134.251 322.409 133.395 322.452L77.9863 325.136C77.13 325.174 76.2935 324.872 75.6595 324.295C75.0255 323.718 74.6456 322.914 74.6028 322.058L72.7456 283.669C72.7076 282.813 73.01 281.976 73.5868 281.342C74.1636 280.708 74.9678 280.328 75.8239 280.285L131.232 277.614C132.087 277.573 132.924 277.872 133.558 278.447C134.193 279.022 134.573 279.825 134.616 280.68V280.68Z" fill="#263238"/>
<g opacity="0.5">
<path opacity="0.5" d="M134.616 280.68L136.473 319.069C136.511 319.925 136.208 320.761 135.632 321.395C135.055 322.029 134.251 322.409 133.395 322.452L77.9863 325.136C77.13 325.174 76.2935 324.872 75.6595 324.295C75.0255 323.718 74.6456 322.914 74.6028 322.058L72.7456 283.669C72.7076 282.813 73.01 281.976 73.5868 281.342C74.1636 280.708 74.9678 280.328 75.8239 280.285L131.232 277.614C132.087 277.573 132.924 277.872 133.558 278.447C134.193 279.022 134.573 279.825 134.616 280.68V280.68Z" fill="white"/>
</g>
<path d="M126.289 277.861L123.836 277.979L125.998 322.816L128.45 322.698L126.289 277.861Z" fill="#263238"/>
<path d="M83.1401 279.936L80.688 280.054L82.8495 324.891L85.3016 324.773L83.1401 279.936Z" fill="#263238"/>
<path d="M106.25 258.445C106.25 258.445 110.638 267.197 110.295 269.244C109.952 271.292 107.09 267.68 107.09 267.68L106.25 258.445Z" fill="#FF8B7B"/>
<path d="M113.147 267.727L90.8235 268.803L91.0207 272.895L113.344 271.818L113.147 267.727Z" fill="#263238"/>
<path opacity="0.3" d="M113.147 267.727L90.8235 268.803L91.0207 272.895L113.344 271.818L113.147 267.727Z" fill="white"/>
<path d="M98.0458 257.491L95.4 266.79C94.9039 269.435 103.49 272.832 106.632 270.427C109.176 268.532 106.377 258.064 106.377 258.064C105.141 257.294 103.735 256.84 102.283 256.74C100.83 256.64 99.3755 256.898 98.0458 257.491V257.491Z" fill="#FF8B7B"/>
<path d="M95.3999 266.79C94.8911 269.728 95.5399 275.401 100.208 275.757C101.232 275.883 102.269 275.861 103.286 275.694C104.219 276.03 105.233 276.066 106.187 275.795C108.476 274.943 107.331 269.117 107.331 269.117L95.3999 266.79Z" fill="#FF8B7B"/>
<path d="M229.329 151.813C229.323 152.167 229.294 152.52 229.24 152.869C229.184 153.272 229.103 153.672 228.998 154.065C228.89 154.415 228.762 154.759 228.616 155.095C228.476 155.4 228.324 155.706 228.158 155.998C227.883 156.44 227.581 156.865 227.255 157.27C226.988 157.563 226.696 157.881 226.416 158.135C226.136 158.39 225.932 158.555 225.691 158.759L225.042 159.229C223.794 160.056 222.464 160.751 221.073 161.303C219.916 161.773 218.847 162.142 217.804 162.473C215.718 163.147 213.721 163.745 211.724 164.152C207.756 165.08 203.863 165.831 199.958 166.454C196.053 167.077 192.186 167.624 188.294 168.07L186.857 168.21C186.182 168.299 185.508 168.362 184.834 168.426C182.112 168.706 179.377 168.926 176.63 169.087L174.429 153.085C181.845 152.22 190.38 152.03 197.796 151.114C201.497 150.618 205.212 150.16 208.76 149.537C209.829 149.333 210.897 149.155 211.928 148.951C209.562 146.636 206.84 144.385 204.296 142.121C201.408 139.717 198.47 137.3 195.494 134.921C192.517 132.543 189.515 130.126 186.59 127.709L190.113 121.96C197.22 125.251 204.138 128.937 210.834 133.001C214.291 135.072 217.641 137.318 220.87 139.729C222.686 141.088 224.388 142.594 225.958 144.232C226.454 144.767 226.917 145.332 227.344 145.924C227.999 146.804 228.526 147.772 228.909 148.799C229.215 149.774 229.356 150.792 229.329 151.813V151.813Z" fill="#263238"/>
<path opacity="0.2" d="M186.857 168.209C186.183 168.299 185.509 168.362 184.834 168.426L183.499 160.463L186.857 168.209Z" fill="black"/>
<path d="M170.601 121.184C171.937 121.814 173.335 122.304 174.773 122.647C177.126 123.295 179.479 123.817 179.479 123.817C179.479 123.817 183.944 128.65 187.264 127.633C187.437 127.575 187.607 127.507 187.773 127.429C190.215 126.221 189.859 122.71 189.77 121.985C189.77 121.909 189.77 121.858 189.77 121.858C188.281 121.553 186.564 121.247 184.822 120.993C181.204 120.342 177.532 120.04 173.857 120.09C169.965 120.51 168.705 120.103 170.601 121.184Z" fill="#FF8B7B"/>
<path d="M154.446 159.306L159.331 168.133L161.341 160.069L158.021 157.792L154.446 159.306Z" fill="#104292"/>
<path d="M157.614 165.017L158.084 220.603L164.33 232.865L168.54 219.776L160.132 164.902L157.614 165.017Z" fill="#104292"/>
</svg>
