<svg width="573" height="573" viewBox="0 0 573 573" fill="none" xmlns="http://www.w3.org/2000/svg">
<path d="M469.276 461.838C366.388 515.585 199.564 515.585 96.6651 461.838C-6.23425 408.091 -6.22278 320.88 96.6651 267.178C199.553 213.477 366.388 213.431 469.276 267.178C572.163 320.926 572.175 408.056 469.276 461.838Z" fill="#F5F5F5"/>
<path d="M381.79 424.811L287.211 479.418C286.207 479.926 285.098 480.191 283.973 480.191C282.848 480.191 281.739 479.926 280.736 479.418L99.6676 375.132C97.8799 374.1 97.8799 372.427 99.6676 371.396L194.442 316.674C195.445 316.166 196.554 315.901 197.679 315.901C198.804 315.901 199.913 316.166 200.917 316.674L381.756 421.086C383.589 422.106 383.589 423.779 381.79 424.811Z" fill="#E0E0E0"/>
<path d="M498.51 316.663L449.014 345.106C448.011 345.615 446.902 345.88 445.777 345.88C444.652 345.88 443.543 345.615 442.539 345.106L383.154 310.818C381.366 309.787 381.366 308.114 383.154 307.082L432.363 278.661C433.368 278.153 434.479 277.888 435.606 277.888C436.733 277.888 437.844 278.153 438.849 278.661L498.51 312.927C500.367 314.004 500.367 315.631 498.51 316.663Z" fill="#E0E0E0"/>
<path d="M103.679 336.534C103.954 336.42 104.825 317.877 96.8026 306.956C88.7806 296.035 79.1542 294.774 72.8054 297.433C66.4565 300.092 67.763 306.601 75.5787 310.52C83.3944 314.439 93.124 321.27 95.4389 333.738L103.679 336.534Z" fill="#F763B6"/>
<path opacity="0.1" d="M103.679 336.534C103.954 336.42 104.825 317.877 96.8026 306.956C88.7806 296.035 79.1542 294.774 72.8054 297.433C66.4565 300.092 67.763 306.601 75.5787 310.52C83.3944 314.439 93.124 321.27 95.4389 333.738L103.679 336.534Z" fill="black"/>
<path d="M100.745 331.091C100.605 331.09 100.47 331.041 100.363 330.95C100.256 330.86 100.185 330.736 100.16 330.598C97.1693 311.769 86.0417 302.544 76.6215 300.195C76.5371 300.185 76.4557 300.158 76.3828 300.114C76.3098 300.071 76.247 300.012 76.1985 299.942C76.1501 299.873 76.1171 299.793 76.1018 299.71C76.0865 299.626 76.0892 299.54 76.1098 299.458C76.1304 299.375 76.1685 299.298 76.2213 299.232C76.2741 299.165 76.3405 299.111 76.4161 299.072C76.4917 299.033 76.5747 299.011 76.6595 299.007C76.7444 299.003 76.8291 299.017 76.908 299.049C86.6949 301.49 98.2466 311.024 101.341 330.415C101.364 330.573 101.324 330.733 101.23 330.862C101.135 330.99 100.994 331.077 100.837 331.102L100.745 331.091Z" fill="white"/>
<path d="M102.246 370.949C101.031 366.067 96.115 362.835 90.3048 362.308C84.2768 361.769 77.2518 361.162 75.4068 356.074C73.5617 350.985 75.4068 344.075 74.5702 340.694C73.5274 336.592 71.9573 334.151 64.0385 331.664C56.9333 329.372 53.0025 322.645 60.165 319.78C67.3275 316.915 74.49 318.726 79.3605 320.926C84.231 323.126 84.4602 325.407 91.3133 324.822C98.1664 324.238 103.289 328.547 103.713 332.695L102.246 370.949Z" fill="#F763B6"/>
<path d="M102.246 354.378C102.124 354.376 102.006 354.339 101.905 354.269C101.805 354.2 101.728 354.102 101.685 353.988C96.0463 338.276 73.0346 324.066 65.3335 323.161C65.1763 323.14 65.0331 323.06 64.9346 322.935C64.8361 322.811 64.7901 322.654 64.8063 322.496C64.8147 322.418 64.8388 322.342 64.8771 322.274C64.9154 322.205 64.9671 322.145 65.0291 322.097C65.0911 322.049 65.1623 322.014 65.2382 321.993C65.3141 321.973 65.3933 321.969 65.471 321.98C73.344 322.908 97.0204 337.474 102.808 353.587C102.856 353.736 102.845 353.898 102.776 354.039C102.708 354.18 102.588 354.289 102.441 354.343C102.379 354.367 102.313 354.378 102.246 354.378Z" fill="white"/>
<path d="M96.8485 344.946H96.711C96.5578 344.91 96.4249 344.816 96.3411 344.683C96.2574 344.55 96.2297 344.389 96.264 344.235C98.1664 336.053 96.264 330.781 96.264 330.724C96.2368 330.651 96.2244 330.574 96.2276 330.496C96.2307 330.418 96.2494 330.342 96.2825 330.271C96.3156 330.201 96.3625 330.138 96.4203 330.086C96.4781 330.033 96.5457 329.993 96.6193 329.968C96.693 329.94 96.7714 329.928 96.85 329.931C96.9286 329.934 97.0058 329.952 97.0772 329.985C97.1485 330.019 97.2126 330.065 97.2658 330.123C97.319 330.181 97.3603 330.249 97.3871 330.323C97.4673 330.541 99.3811 335.95 97.3871 344.499C97.3544 344.62 97.285 344.728 97.1886 344.808C97.0922 344.888 96.9734 344.936 96.8485 344.946Z" fill="white"/>
<path d="M100.745 350.974C100.649 350.974 100.554 350.951 100.47 350.905C95.8858 348.384 85.801 350.183 85.6979 350.195C85.616 350.229 85.5277 350.244 85.4391 350.24C85.3506 350.235 85.2642 350.211 85.1862 350.169C85.1082 350.127 85.0405 350.068 84.9882 349.996C84.9358 349.925 84.9 349.843 84.8835 349.756C84.8669 349.669 84.87 349.579 84.8925 349.493C84.915 349.407 84.9563 349.328 85.0135 349.26C85.0706 349.192 85.1422 349.138 85.2229 349.102C85.3037 349.065 85.3915 349.047 85.4801 349.049C85.9156 348.968 96.0348 347.169 101.031 349.874C101.101 349.911 101.163 349.962 101.212 350.023C101.262 350.084 101.299 350.155 101.322 350.23C101.344 350.306 101.351 350.385 101.343 350.464C101.334 350.542 101.31 350.618 101.272 350.687C101.217 350.778 101.14 350.851 101.047 350.902C100.955 350.952 100.85 350.977 100.745 350.974Z" fill="white"/>
<path d="M389.434 308.251L398.797 302.842L389.434 300.137V308.251Z" fill="black"/>
<path d="M445.622 332.581V341.199L497.135 311.46V302.842L445.622 332.581Z" fill="black"/>
<path d="M501.81 235.251L450.309 264.99V335.274L501.81 305.547V235.251Z" fill="#263238"/>
<path d="M450.309 264.99L380.071 224.444V294.728L450.309 335.274V264.99Z" fill="#37474F"/>
<path d="M380.071 224.444L431.572 194.705L501.81 235.251L450.309 264.99L380.071 224.444Z" fill="#455A64"/>
<path d="M445.622 267.694L384.758 232.558V248.774L445.622 283.922V267.694Z" fill="#455A64"/>
<g style="mix-blend-mode:multiply">
<g style="mix-blend-mode:multiply">
<path d="M422.209 255.558C422.209 256.303 419.975 255.615 417.224 254.022L408.48 248.969C405.718 247.387 403.484 245.531 403.484 244.74V243.388L422.209 254.206V255.558Z" fill="#263238"/>
</g>
</g>
<path d="M445.622 289.319L384.758 254.183V270.399L445.622 305.547V289.319Z" fill="#455A64"/>
<g style="mix-blend-mode:multiply">
<g style="mix-blend-mode:multiply">
<path d="M422.209 277.16C422.209 277.905 419.975 277.217 417.224 275.625L408.48 270.582C405.718 268.989 403.484 267.087 403.484 266.342V264.99L422.209 275.808V277.16Z" fill="#263238"/>
</g>
</g>
<path d="M445.622 310.944L384.758 275.808V292.024L445.622 327.172V310.944Z" fill="#455A64"/>
<g style="mix-blend-mode:multiply">
<g style="mix-blend-mode:multiply">
<path d="M422.209 298.785C422.209 299.53 419.975 298.785 417.224 297.25L408.48 292.207C405.718 290.614 403.484 288.769 403.484 287.967V286.615L422.209 297.433V298.785Z" fill="#263238"/>
</g>
</g>
<path d="M445.622 341.199L440.946 338.494V329.876L445.622 332.581V341.199Z" fill="#263238"/>
<path d="M389.434 308.251L384.758 305.547V297.433L389.434 300.137V308.251Z" fill="#263238"/>
<path d="M452.51 259.145L424.513 242.952C423.963 242.643 423.963 242.127 424.513 241.806L462.915 219.94C463.225 219.785 463.566 219.704 463.912 219.704C464.258 219.704 464.6 219.785 464.909 219.94L492.654 235.984C493.215 236.294 493.215 236.809 492.654 237.13L454.515 259.156C454.204 259.313 453.859 259.393 453.511 259.391C453.162 259.389 452.819 259.305 452.51 259.145Z" fill="#E0E0E0"/>
<path d="M492.688 235.927L461.173 215.895C460.87 215.734 460.531 215.651 460.188 215.651C459.844 215.651 459.506 215.734 459.202 215.895L447.857 222.45C447.59 222.609 447.393 222.861 447.304 223.159C447.214 223.456 447.24 223.775 447.375 224.055L447.845 224.96C447.982 225.238 448.009 225.556 447.922 225.853C447.835 226.15 447.64 226.404 447.375 226.564L424.513 239.869C424.41 239.926 424.324 240.008 424.264 240.109C424.205 240.21 424.173 240.325 424.173 240.442C424.173 240.56 424.205 240.675 424.264 240.775C424.324 240.876 424.41 240.959 424.513 241.015L452.578 259.088C452.881 259.251 453.22 259.337 453.564 259.337C453.908 259.337 454.247 259.251 454.549 259.088L492.654 237.119C492.775 237.075 492.879 236.996 492.954 236.891C493.029 236.787 493.071 236.663 493.075 236.535C493.079 236.406 493.044 236.28 492.975 236.171C492.906 236.063 492.806 235.978 492.688 235.927Z" fill="#F5F5F5"/>
<path d="M427.011 154.71C427.102 154.643 427.21 154.601 427.323 154.589C427.435 154.577 427.549 154.595 427.653 154.641L428.363 155.054L427.928 200.332C427.909 200.651 427.817 200.961 427.658 201.237C427.499 201.514 427.277 201.749 427.011 201.925L391.565 222.393V175.201L427.011 154.71Z" fill="#F763B6"/>
<path opacity="0.2" d="M427.011 154.71C427.102 154.643 427.21 154.601 427.323 154.589C427.435 154.577 427.549 154.595 427.653 154.641L428.363 155.054L427.928 200.332C427.909 200.651 427.817 200.961 427.658 201.237C427.499 201.514 427.277 201.749 427.011 201.925L391.565 222.393V175.201L427.011 154.71Z" fill="black"/>
<path d="M427.699 155.134C428.203 154.848 428.615 155.134 428.615 155.673V200.768C428.597 201.086 428.505 201.396 428.345 201.673C428.186 201.949 427.965 202.185 427.699 202.361L392.253 222.817V175.59L427.699 155.134Z" fill="#F763B6"/>
<path opacity="0.5" d="M427.699 155.134C428.203 154.848 428.615 155.134 428.615 155.673V200.768C428.597 201.086 428.505 201.396 428.345 201.673C428.186 201.949 427.965 202.185 427.699 202.361L392.253 222.817V175.59L427.699 155.134Z" fill="black"/>
<path d="M400.962 218.428L427.194 203.278C427.461 203.102 427.682 202.866 427.841 202.589C428 202.313 428.093 202.003 428.111 201.685V160.085L431.549 158.125L428.042 156.108H427.974C427.825 155.879 427.538 155.822 427.194 156.016L397.158 173.378V220.605L400.985 222.805L400.962 218.428Z" fill="#EBEBEB"/>
<path d="M431.022 158.263C431.526 157.976 431.939 158.263 431.939 158.79V203.896C431.921 204.214 431.829 204.522 431.67 204.797C431.511 205.072 431.289 205.305 431.022 205.478L400.962 222.84V175.613L431.022 158.263Z" fill="#FAFAFA"/>
<path d="M400.974 175.613L397.158 173.413L397.135 220.639L400.962 222.84L400.974 175.613Z" fill="#E6E6E6"/>
<path d="M402.246 176.897C402.252 176.779 402.275 176.664 402.315 176.553C402.371 176.375 402.469 176.214 402.601 176.083C402.639 176.036 402.686 175.997 402.739 175.968C403.002 175.808 403.232 175.968 403.22 176.335C403.222 176.502 403.182 176.668 403.106 176.816C403.031 176.999 402.903 177.155 402.739 177.263C402.739 177.263 402.739 177.263 402.67 177.263C402.406 177.401 402.246 177.24 402.246 176.897Z" fill="#263238"/>
<path d="M396.917 179.189C396.438 178.937 396.056 178.534 395.828 178.043C395.736 177.807 395.699 177.554 395.719 177.302C395.738 177.05 395.815 176.805 395.943 176.587C396.179 176.206 396.511 175.894 396.906 175.682L397.146 175.544V176.152C396.877 176.248 396.643 176.425 396.478 176.659C396.313 176.893 396.224 177.172 396.224 177.458C396.224 177.744 396.313 178.024 396.478 178.258C396.643 178.492 396.877 178.669 397.146 178.765C397.857 179.125 398.642 179.313 399.438 179.313C400.235 179.313 401.02 179.125 401.73 178.765C402.013 178.65 402.254 178.451 402.42 178.194C402.586 177.938 402.669 177.637 402.659 177.332C402.637 177.048 402.51 176.783 402.303 176.587C402.359 176.41 402.458 176.248 402.59 176.117C402.811 176.321 402.983 176.572 403.094 176.851C403.187 177.085 403.224 177.337 403.202 177.588C403.18 177.838 403.1 178.08 402.968 178.295C402.732 178.686 402.396 179.007 401.994 179.223C401.206 179.621 400.334 179.825 399.451 179.819C398.568 179.813 397.7 179.597 396.917 179.189Z" fill="#263238"/>
<path d="M401.192 180.128L433.761 158.148L433.257 157.862C433.114 157.793 432.957 157.758 432.798 157.758C432.64 157.758 432.483 157.793 432.34 157.862L400.493 179.636L401.192 180.128Z" fill="#F763B6"/>
<path opacity="0.2" d="M401.192 180.128L433.761 158.148L433.257 157.862C433.114 157.793 432.957 157.758 432.798 157.758C432.64 157.758 432.483 157.793 432.34 157.862L400.493 179.636L401.192 180.128Z" fill="black"/>
<path d="M433.119 158.263C433.623 157.976 434.036 158.263 434.036 158.801V203.896C434.019 204.215 433.926 204.525 433.764 204.8C433.603 205.075 433.378 205.308 433.108 205.478L400.653 227.676V180.449L433.119 158.263Z" fill="#F763B6"/>
<path d="M391.577 175.201L391.565 222.427L400.665 227.676V180.438L391.577 175.201Z" fill="#F763B6"/>
<path opacity="0.1" d="M391.577 175.201L391.565 222.427L400.665 227.676V180.438L391.577 175.201Z" fill="black"/>
<path d="M393.387 185.56C393.503 185.344 393.666 185.156 393.864 185.011C394.063 184.866 394.292 184.768 394.533 184.724C395.078 184.663 395.627 184.788 396.092 185.079C396.833 185.559 397.45 186.208 397.89 186.973C398.331 187.739 398.582 188.598 398.625 189.48C398.638 189.931 398.531 190.378 398.315 190.775C398.176 190.998 397.99 191.19 397.771 191.337C397.553 191.483 397.305 191.582 397.045 191.627C396.786 191.671 396.519 191.66 396.264 191.594C396.009 191.528 395.771 191.409 395.565 191.245C394.821 190.769 394.202 190.123 393.759 189.359C393.316 188.596 393.063 187.737 393.021 186.855C393.019 186.405 393.125 185.961 393.33 185.56H393.387Z" fill="#455A64"/>
<path d="M395.874 185.537C394.625 184.815 393.582 185.4 393.582 186.855C393.626 187.645 393.856 188.413 394.255 189.097C394.653 189.78 395.208 190.359 395.874 190.786C397.123 191.52 398.166 190.924 398.166 189.48C398.12 188.689 397.888 187.92 397.49 187.235C397.092 186.551 396.539 185.969 395.874 185.537Z" fill="#F5F5F5"/>
<path d="M396.321 195.324L395.634 194.923C394.258 194.132 393.135 194.774 393.135 196.367V216.835C393.183 217.701 393.433 218.543 393.867 219.294C394.302 220.045 394.907 220.682 395.634 221.155L396.321 221.556C397.696 222.347 398.819 221.705 398.819 220.112V199.645C398.772 198.779 398.521 197.936 398.087 197.186C397.653 196.435 397.048 195.797 396.321 195.324Z" fill="#F5F5F5"/>
<path d="M392.115 174.88L401.169 180.105L400.665 180.438L391.577 175.201L392.115 174.88Z" fill="#F763B6"/>
<path opacity="0.2" d="M392.115 174.88L401.169 180.105L400.665 180.438L391.577 175.201L392.115 174.88Z" fill="black"/>
<path d="M402.808 228.478C402.704 228.4 402.62 228.299 402.561 228.185C402.501 228.07 402.468 227.943 402.464 227.813V181.515C402.471 181.375 402.511 181.239 402.581 181.118C402.651 180.996 402.748 180.893 402.865 180.816L436.626 158.778L437.314 159.179V206.395L403.575 228.444C403.46 228.512 403.33 228.551 403.196 228.557C403.062 228.563 402.928 228.536 402.808 228.478Z" fill="#F763B6"/>
<path opacity="0.1" d="M403.289 181.515L402.601 181.114C402.53 181.237 402.487 181.374 402.475 181.515V227.813C402.48 227.943 402.513 228.07 402.572 228.185C402.632 228.3 402.716 228.4 402.819 228.478C402.936 228.537 403.066 228.567 403.197 228.567C403.328 228.567 403.458 228.537 403.575 228.478C403.358 228.604 403.174 228.478 403.174 228.249V181.95C403.167 181.797 403.207 181.645 403.289 181.515Z" fill="black"/>
<path opacity="0.5" d="M437.291 159.179L403.575 181.217C403.453 181.286 403.353 181.39 403.289 181.515C403.21 181.634 403.166 181.773 403.163 181.916V228.214C403.163 228.467 403.346 228.57 403.564 228.444L437.291 206.395V159.179Z" fill="black"/>
<path opacity="0.2" d="M437.291 159.179L436.603 158.778L402.876 180.816C402.762 180.892 402.668 180.994 402.601 181.114L403.289 181.515C403.353 181.39 403.453 181.286 403.575 181.217L437.291 159.179Z" fill="black"/>
<path d="M436.741 159.489L436.729 206.716L445.828 211.976L445.737 164.692L436.741 159.489Z" fill="#F763B6"/>
<path opacity="0.7" d="M436.741 159.489L436.729 206.716L445.828 211.976L445.737 164.692L436.741 159.489Z" fill="black"/>
<path d="M407.976 230.873C407.821 230.948 407.65 230.987 407.477 230.987C407.305 230.987 407.134 230.948 406.979 230.873L405.134 229.807C404.993 229.71 404.875 229.582 404.79 229.434C404.705 229.285 404.654 229.119 404.641 228.948V182.867C404.655 182.695 404.708 182.529 404.795 182.38C404.882 182.231 405.002 182.104 405.145 182.008L434.643 163.878L437.486 165.517V212.743L407.976 230.873Z" fill="#EBEBEB"/>
<path d="M437.474 212.721L407.976 230.873C407.701 231.034 407.483 230.873 407.483 230.587V184.506C407.495 184.332 407.547 184.163 407.635 184.012C407.722 183.861 407.843 183.732 407.987 183.635L437.497 165.482L437.474 212.721Z" fill="#FAFAFA"/>
<path d="M435.308 168.726C435.314 168.608 435.338 168.492 435.377 168.382C435.429 168.205 435.524 168.044 435.652 167.912L435.801 167.797C436.064 167.637 436.282 167.797 436.282 168.164C436.279 168.331 436.24 168.495 436.168 168.645C436.09 168.829 435.958 168.985 435.789 169.092C435.48 169.218 435.308 169.069 435.308 168.726Z" fill="#263238"/>
<path d="M407.632 184.025L404.779 182.375C404.688 182.528 404.636 182.701 404.63 182.879V228.948C404.644 229.12 404.696 229.287 404.784 229.435C404.871 229.584 404.991 229.711 405.134 229.807L406.979 230.873C407.114 230.933 407.261 230.964 407.409 230.964C407.557 230.964 407.703 230.933 407.839 230.873C407.632 230.931 407.483 230.804 407.483 230.529V184.506C407.486 184.335 407.537 184.168 407.632 184.025Z" fill="#E6E6E6"/>
<path d="M441.921 166.388C441.903 166.751 441.788 167.103 441.586 167.406C441.384 167.709 441.104 167.951 440.775 168.107C439.202 168.837 437.415 168.963 435.755 168.462L436.007 167.82C437.474 168.253 439.047 168.148 440.442 167.522C440.712 167.384 440.938 167.173 441.095 166.915C441.194 166.757 441.242 166.573 441.233 166.388C441.233 165.757 440.626 165.058 439.629 164.52C438.694 164.009 437.658 163.714 436.595 163.657C435.532 163.599 434.47 163.781 433.486 164.187C433.166 164.354 432.909 164.619 432.753 164.944L432.019 165.379V165.322C432.02 165.021 432.099 164.725 432.248 164.462C432.472 164.099 432.788 163.802 433.165 163.603C434.247 163.134 435.422 162.919 436.6 162.975C437.778 163.031 438.928 163.355 439.961 163.924C440.474 164.129 440.924 164.464 441.268 164.896C441.611 165.328 441.836 165.842 441.921 166.388Z" fill="#263238"/>
<path d="M408.595 231.813C408.487 231.738 408.399 231.639 408.337 231.524C408.275 231.408 408.242 231.279 408.24 231.148V184.85C408.247 184.71 408.287 184.574 408.357 184.453C408.427 184.331 408.524 184.228 408.641 184.151L445.634 164.004L446.321 164.405V211.62L409.317 231.779C409.208 231.841 409.086 231.877 408.96 231.883C408.834 231.889 408.709 231.865 408.595 231.813Z" fill="#F763B6"/>
<path opacity="0.1" d="M409.065 184.85L408.377 184.46C408.308 184.579 408.269 184.713 408.263 184.85V231.148C408.242 231.289 408.266 231.432 408.329 231.559C408.393 231.686 408.493 231.791 408.618 231.859C408.742 231.928 408.884 231.957 409.026 231.942C409.167 231.928 409.301 231.871 409.409 231.779C409.191 231.905 409.007 231.779 409.007 231.549V185.251C408.996 185.115 409.015 184.977 409.065 184.85Z" fill="black"/>
<path d="M446.344 164.405L409.351 184.506C409.232 184.581 409.134 184.684 409.064 184.806C408.994 184.928 408.955 185.065 408.95 185.205V231.504C408.95 231.756 409.133 231.859 409.351 231.733L446.356 211.575L446.344 164.405Z" fill="#F763B6"/>
<path opacity="0.2" d="M446.344 164.405L445.656 164.004L408.664 184.151C408.543 184.227 408.444 184.334 408.377 184.46L409.065 184.85C409.136 184.73 409.234 184.627 409.351 184.552L446.344 164.405Z" fill="black"/>
<path d="M437.291 159.179L446.333 164.405L445.737 164.692L436.741 159.489L437.291 159.179Z" fill="#F763B6"/>
<path opacity="0.2" d="M437.291 159.179L446.333 164.405L445.737 164.692L436.741 159.489L437.291 159.179Z" fill="black"/>
<path d="M445.794 165.609C445.891 165.551 446.002 165.521 446.115 165.521C446.228 165.521 446.339 165.551 446.436 165.609L447.146 166.01L446.711 211.3C446.693 211.617 446.601 211.925 446.442 212.2C446.283 212.475 446.061 212.708 445.794 212.881L410.348 233.349V186.065L445.794 165.609Z" fill="#F763B6"/>
<path opacity="0.2" d="M445.794 165.609C445.891 165.551 446.002 165.521 446.115 165.521C446.228 165.521 446.339 165.551 446.436 165.609L447.146 166.01L446.711 211.3C446.693 211.617 446.601 211.925 446.442 212.2C446.283 212.475 446.061 212.708 445.794 212.881L410.348 233.349V186.065L445.794 165.609Z" fill="black"/>
<path d="M446.527 166.01C447.032 165.712 447.444 165.952 447.444 166.537V211.632C447.428 211.951 447.336 212.261 447.177 212.538C447.017 212.815 446.795 213.05 446.527 213.225L411.082 233.692V186.466L446.527 166.01Z" fill="#F763B6"/>
<path opacity="0.5" d="M446.527 166.01C447.032 165.712 447.444 165.952 447.444 166.537V211.632C447.428 211.951 447.336 212.261 447.177 212.538C447.017 212.815 446.795 213.05 446.527 213.225L411.082 233.692V186.466L446.527 166.01Z" fill="black"/>
<path d="M419.791 229.303L446.023 214.142C446.291 213.968 446.514 213.733 446.674 213.456C446.833 213.179 446.924 212.868 446.94 212.549V170.96L450.378 169.001L446.871 166.972C446.825 166.915 446.767 166.867 446.702 166.832C446.637 166.797 446.566 166.776 446.492 166.768C446.419 166.761 446.345 166.768 446.274 166.789C446.203 166.81 446.138 166.845 446.08 166.892L415.998 184.277V231.492L419.826 233.704L419.791 229.303Z" fill="#EBEBEB"/>
<path d="M449.851 169.138C450.355 168.84 450.768 169.081 450.768 169.665V214.76C450.749 215.079 450.657 215.389 450.498 215.665C450.338 215.942 450.117 216.177 449.851 216.353L419.791 233.715V186.489L449.851 169.138Z" fill="#FAFAFA"/>
<path d="M419.803 186.489L415.987 184.277L415.964 231.504L419.791 233.715L419.803 186.489Z" fill="#E6E6E6"/>
<path d="M421.052 187.772C421.059 187.651 421.082 187.532 421.121 187.417C421.178 187.243 421.276 187.086 421.407 186.958C421.442 186.908 421.489 186.869 421.545 186.844C421.808 186.683 422.037 186.844 422.026 187.211C422.026 187.378 421.987 187.543 421.911 187.692C421.834 187.873 421.707 188.028 421.545 188.139H421.476C421.235 188.265 421.052 188.116 421.052 187.772Z" fill="#263238"/>
<path d="M415.746 190.053C415.264 189.804 414.881 189.4 414.657 188.907C414.565 188.673 414.528 188.422 414.548 188.172C414.567 187.921 414.644 187.679 414.772 187.463C415.004 187.079 415.337 186.766 415.734 186.557C415.811 186.505 415.891 186.459 415.975 186.42V187.016C415.705 187.112 415.472 187.289 415.307 187.523C415.142 187.757 415.053 188.036 415.053 188.322C415.053 188.609 415.142 188.888 415.307 189.122C415.472 189.356 415.705 189.533 415.975 189.629C416.684 189.993 417.47 190.183 418.267 190.183C419.064 190.183 419.85 189.993 420.559 189.629C420.842 189.514 421.083 189.315 421.249 189.059C421.415 188.802 421.498 188.501 421.487 188.196C421.459 187.914 421.334 187.651 421.132 187.451C421.19 187.278 421.288 187.121 421.419 186.993C421.642 187.195 421.814 187.446 421.923 187.726C421.993 187.954 422.012 188.194 421.978 188.43C421.944 188.666 421.859 188.891 421.728 189.09C421.492 189.478 421.155 189.795 420.754 190.007C419.983 190.411 419.126 190.626 418.255 190.634C417.385 190.642 416.524 190.443 415.746 190.053Z" fill="#263238"/>
<path d="M420.02 191.004L452.59 169.069L452.086 168.783C451.944 168.71 451.787 168.671 451.627 168.671C451.468 168.671 451.31 168.71 451.169 168.783L419.321 190.557L420.02 191.004Z" fill="#F763B6"/>
<path opacity="0.2" d="M420.02 191.004L452.59 169.069L452.086 168.783C451.944 168.71 451.787 168.671 451.627 168.671C451.468 168.671 451.31 168.71 451.169 168.783L419.321 190.557L420.02 191.004Z" fill="black"/>
<path d="M451.948 169.138C452.452 168.84 452.865 169.081 452.865 169.665V214.76C452.848 215.079 452.757 215.39 452.597 215.667C452.438 215.944 452.215 216.179 451.948 216.353L419.436 238.54V191.313L451.948 169.138Z" fill="#F763B6"/>
<path d="M410.406 186.065L410.394 233.291L419.493 238.551V191.313L410.406 186.065Z" fill="#F763B6"/>
<path opacity="0.1" d="M410.406 186.065L410.394 233.291L419.493 238.551V191.313L410.406 186.065Z" fill="black"/>
<path d="M412.216 196.424C412.332 196.209 412.496 196.023 412.694 195.88C412.893 195.737 413.121 195.641 413.362 195.599C413.907 195.533 414.458 195.659 414.921 195.955C415.662 196.432 416.278 197.079 416.719 197.842C417.159 198.606 417.411 199.463 417.453 200.344C417.476 200.814 417.369 201.282 417.144 201.696C417.003 201.918 416.817 202.108 416.598 202.254C416.38 202.4 416.132 202.498 415.873 202.542C415.614 202.587 415.348 202.576 415.093 202.511C414.839 202.446 414.6 202.329 414.394 202.166C413.649 201.688 413.03 201.04 412.588 200.274C412.145 199.509 411.892 198.649 411.85 197.765C411.845 197.313 411.956 196.868 412.17 196.47L412.216 196.424Z" fill="#455A64"/>
<path d="M414.703 196.413C413.454 195.691 412.411 196.275 412.411 197.731C412.455 198.521 412.685 199.289 413.084 199.972C413.482 200.656 414.037 201.235 414.703 201.662C415.952 202.384 416.995 201.799 416.995 200.355C416.95 199.564 416.72 198.795 416.321 198.11C415.923 197.424 415.369 196.843 414.703 196.413Z" fill="#F5F5F5"/>
<path d="M415.15 206.188L414.462 205.799C413.087 204.997 411.964 205.65 411.964 207.231V227.699C412.012 228.566 412.263 229.41 412.697 230.162C413.131 230.915 413.736 231.555 414.462 232.031L415.15 232.42C416.525 233.223 417.648 232.569 417.648 230.988V210.52C417.6 209.653 417.349 208.809 416.915 208.057C416.481 207.304 415.876 206.664 415.15 206.188Z" fill="#F5F5F5"/>
<path d="M410.944 185.744L419.998 190.97L419.493 191.313L410.406 186.065L410.944 185.744Z" fill="#F763B6"/>
<path opacity="0.2" d="M410.944 185.744L419.998 190.97L419.493 191.313L410.406 186.065L410.944 185.744Z" fill="black"/>
<path d="M155.718 173.55L160.245 165.024L156.601 154.515V148.086L167.74 154.515V160.956L162.95 169.241C162.88 169.374 162.766 169.479 162.629 169.539L155.718 173.55Z" fill="#F763B6"/>
<path opacity="0.2" d="M155.718 173.55L160.245 165.024L156.601 154.515V148.086L167.74 154.515V160.956L162.95 169.241C162.88 169.374 162.766 169.479 162.629 169.539L155.718 173.55Z" fill="black"/>
<path d="M129.12 96.986C129.192 95.8362 129.533 94.7193 130.114 93.7244C130.695 92.7295 131.5 91.8842 132.466 91.256L135.228 89.6401C136.263 89.1147 137.408 88.8408 138.569 88.8408C139.73 88.8408 140.874 89.1147 141.909 89.6401L183.601 113.706C184.566 114.334 185.372 115.18 185.953 116.175C186.534 117.169 186.874 118.286 186.947 119.436V165.276C186.874 166.426 186.534 167.543 185.953 168.538C185.372 169.533 184.566 170.378 183.601 171.006L180.885 172.576C179.849 173.102 178.705 173.375 177.544 173.375C176.383 173.375 175.239 173.102 174.203 172.576L160.795 164.829L156.016 173.103C155.95 173.224 155.85 173.323 155.728 173.387C155.607 173.452 155.469 173.48 155.332 173.468C155.194 173.456 155.064 173.404 154.955 173.319C154.847 173.234 154.766 173.119 154.721 172.989L149.679 158.4L132.489 148.464C131.523 147.836 130.718 146.991 130.137 145.996C129.556 145.001 129.215 143.884 129.143 142.734L129.12 96.986Z" fill="#F763B6"/>
<path opacity="0.2" d="M186.901 165.414C186.828 166.563 186.488 167.68 185.907 168.675C185.326 169.67 184.521 170.515 183.555 171.144L180.839 172.714C179.897 173.186 178.867 173.455 177.814 173.502C176.762 173.55 175.711 173.375 174.731 172.989C176.301 173.585 177.504 172.691 177.504 170.788V124.914C177.459 123.752 177.12 122.62 176.518 121.625L185.916 116.204C186.521 117.198 186.86 118.331 186.901 119.493V165.414Z" fill="black"/>
<path opacity="0.3" d="M129.234 96.0464C129.624 94.6253 130.919 94.1784 132.455 95.0608L174.192 119.184C175.187 119.792 176.003 120.654 176.553 121.682L185.938 116.25C185.382 115.233 184.573 114.377 183.589 113.764L141.898 89.6975C140.863 89.172 139.718 88.8982 138.557 88.8982C137.396 88.8982 136.252 89.172 135.217 89.6975L132.489 91.2675C131.652 91.8035 130.933 92.5032 130.373 93.3244C129.814 94.1456 129.427 95.0715 129.234 96.0464Z" fill="white"/>
<path d="M148.751 129.005C148.807 128.993 148.866 128.993 148.923 129.005L151.272 128.81C151.325 128.813 151.378 128.806 151.428 128.788C151.478 128.769 151.524 128.741 151.562 128.705C151.601 128.668 151.632 128.624 151.653 128.575C151.674 128.526 151.685 128.474 151.685 128.421C151.685 128.042 151.627 127.664 151.627 127.275C151.627 126.885 151.627 126.472 151.627 126.129C151.627 125.871 151.533 125.623 151.364 125.43L148.693 122.186C148.615 122.097 148.559 121.99 148.531 121.874C148.503 121.758 148.504 121.637 148.533 121.522L149.805 118.703C149.818 118.669 149.843 118.641 149.874 118.622C149.977 118.622 150.137 118.622 150.286 118.748L153.14 121.361C153.217 121.449 153.322 121.507 153.437 121.525C153.552 121.544 153.669 121.523 153.77 121.464C154.134 121.163 154.544 120.923 154.985 120.754C155.084 120.716 155.166 120.645 155.218 120.553C155.27 120.461 155.289 120.354 155.272 120.25L154.389 116.25C154.375 116.197 154.381 116.14 154.404 116.09C154.426 116.04 154.466 116 154.515 115.975C154.6 115.944 154.694 115.944 154.779 115.975L157.575 116.25C157.704 116.262 157.829 116.307 157.935 116.381C158.042 116.456 158.127 116.557 158.182 116.674L159.707 120.742C159.836 121.001 160.05 121.208 160.314 121.327C160.916 121.618 161.494 121.955 162.044 122.335C162.274 122.484 162.537 122.496 162.64 122.335L164.073 120.147C164.176 119.998 164.405 120.032 164.589 120.215L167.66 123.458C167.747 123.547 167.814 123.653 167.855 123.77C167.897 123.887 167.912 124.011 167.9 124.135L167.041 127.023C167.004 127.266 167.057 127.515 167.19 127.722C167.709 128.512 168.184 129.331 168.611 130.174C168.763 130.415 169 130.591 169.276 130.667L171.9 131.309C172.03 131.34 172.152 131.401 172.255 131.486C172.358 131.572 172.44 131.679 172.496 131.801L173.814 136.248C173.829 136.296 173.832 136.348 173.823 136.398C173.813 136.447 173.792 136.494 173.76 136.534C173.729 136.574 173.688 136.605 173.641 136.625C173.594 136.645 173.544 136.653 173.493 136.649L171.086 136.786C171.034 136.785 170.982 136.794 170.934 136.813C170.885 136.832 170.841 136.86 170.803 136.896C170.766 136.933 170.736 136.976 170.716 137.024C170.696 137.072 170.685 137.124 170.685 137.176C170.753 137.939 170.753 138.706 170.685 139.468C170.687 139.727 170.776 139.977 170.937 140.179L173.619 143.422C173.698 143.511 173.753 143.618 173.781 143.734C173.809 143.85 173.809 143.971 173.779 144.086L172.507 146.894C172.494 146.934 172.465 146.967 172.427 146.986H172.335C172.219 146.971 172.111 146.918 172.026 146.837L169.172 144.224C169.095 144.137 168.991 144.079 168.876 144.06C168.761 144.041 168.643 144.063 168.542 144.121C168.176 144.419 167.767 144.658 167.327 144.831C167.228 144.868 167.144 144.938 167.091 145.031C167.039 145.123 167.021 145.231 167.041 145.336L167.923 149.335C167.936 149.387 167.932 149.442 167.911 149.491C167.89 149.541 167.855 149.582 167.809 149.61C167.724 149.641 167.63 149.641 167.545 149.61L164.749 149.335C164.62 149.321 164.497 149.275 164.391 149.201C164.285 149.127 164.199 149.027 164.142 148.911L162.617 144.843C162.485 144.586 162.271 144.381 162.01 144.258C161.708 144.118 161.413 143.961 161.128 143.789C160.841 143.628 160.566 143.445 160.28 143.25C159.993 143.055 159.787 143.089 159.684 143.25L158.251 145.439H158.182C158.068 145.519 157.884 145.439 157.735 145.313L154.71 142.104C154.622 142.017 154.556 141.91 154.516 141.793C154.476 141.675 154.464 141.551 154.481 141.428L155.329 138.54C155.367 138.295 155.31 138.044 155.168 137.841C154.646 137.055 154.175 136.235 153.759 135.388C153.606 135.147 153.369 134.971 153.094 134.896L150.47 134.254C150.338 134.227 150.214 134.167 150.111 134.082C150.007 133.996 149.925 133.886 149.874 133.761L148.556 129.315C148.545 129.248 148.559 129.18 148.595 129.123C148.63 129.066 148.686 129.024 148.751 129.005ZM162.732 139.869H162.881H162.996H163.248H163.534H163.878C164.442 139.874 164.995 139.708 165.464 139.393C165.932 139.078 166.294 138.629 166.502 138.104C166.711 137.64 166.842 137.144 166.892 136.637C166.909 136.367 166.909 136.095 166.892 135.824C166.727 132.852 165.508 130.036 163.454 127.882C162.836 127.212 162.126 126.634 161.345 126.163C161.105 126.026 160.864 125.899 160.635 125.796C160.014 125.509 159.336 125.368 158.652 125.384H158.434H158.32C157.834 125.456 157.376 125.653 156.99 125.957C156.604 126.26 156.304 126.659 156.12 127.114C154.974 129.739 156.303 134.323 159.156 137.337C160.087 138.499 161.326 139.377 162.732 139.869Z" fill="#455A64"/>
<path d="M131.962 135.228H132.099L133.91 135.125C133.95 135.128 133.989 135.123 134.027 135.11C134.064 135.097 134.099 135.076 134.128 135.05C134.157 135.023 134.18 134.99 134.196 134.954C134.212 134.917 134.22 134.878 134.22 134.838C134.22 134.552 134.22 134.265 134.22 133.99C134.202 133.689 134.202 133.387 134.22 133.085C134.217 132.889 134.149 132.699 134.025 132.546L131.985 130.083C131.925 130.015 131.883 129.933 131.863 129.845C131.843 129.757 131.846 129.665 131.87 129.578L132.833 127.447L132.89 127.378C132.97 127.378 133.085 127.378 133.2 127.47L135.388 129.498C135.449 129.563 135.528 129.605 135.616 129.62C135.703 129.634 135.792 129.62 135.87 129.578C136.143 129.349 136.453 129.167 136.787 129.04C136.861 129.012 136.923 128.959 136.963 128.89C137.003 128.821 137.017 128.74 137.004 128.661L136.34 125.625C136.331 125.583 136.335 125.54 136.351 125.501C136.368 125.462 136.396 125.429 136.431 125.407C136.499 125.394 136.569 125.394 136.638 125.407L138.758 125.625C138.855 125.635 138.948 125.671 139.028 125.727C139.108 125.783 139.173 125.858 139.216 125.945L140.362 129.028C140.465 129.225 140.63 129.383 140.832 129.475C141.287 129.693 141.723 129.945 142.138 130.232C142.322 130.358 142.517 130.358 142.597 130.232L143.685 128.581C143.754 128.455 143.938 128.49 144.075 128.581L146.367 131.045C146.432 131.111 146.482 131.19 146.514 131.277C146.546 131.364 146.558 131.457 146.55 131.549L145.897 133.75C145.87 133.934 145.911 134.121 146.012 134.277C146.408 134.873 146.768 135.493 147.089 136.133C147.201 136.321 147.382 136.457 147.593 136.512L149.587 136.993C149.685 137.016 149.775 137.062 149.853 137.125C149.93 137.189 149.992 137.269 150.034 137.36L151.043 140.798C151.054 140.835 151.056 140.875 151.049 140.914C151.041 140.953 151.024 140.989 150.999 141.019C150.974 141.05 150.942 141.074 150.906 141.089C150.869 141.104 150.83 141.111 150.791 141.107L148.969 141.21C148.929 141.207 148.889 141.212 148.852 141.225C148.814 141.238 148.78 141.259 148.751 141.286C148.722 141.312 148.699 141.345 148.683 141.381C148.667 141.418 148.659 141.457 148.659 141.497C148.711 142.08 148.711 142.667 148.659 143.25C148.656 143.447 148.725 143.639 148.854 143.789L150.882 146.253C150.943 146.32 150.987 146.401 151.009 146.489C151.031 146.577 151.031 146.669 151.008 146.757L150.046 148.888L149.988 148.946H149.897C149.808 148.938 149.723 148.901 149.656 148.843L147.49 146.86C147.433 146.795 147.355 146.751 147.27 146.737C147.184 146.722 147.096 146.737 147.02 146.78C146.741 147.007 146.428 147.189 146.092 147.318C146.018 147.346 145.955 147.4 145.916 147.468C145.876 147.537 145.861 147.618 145.874 147.697L146.55 150.733C146.557 150.773 146.552 150.814 146.535 150.85C146.519 150.887 146.492 150.918 146.459 150.94C146.395 150.959 146.327 150.959 146.264 150.94L144.144 150.722C144.047 150.711 143.954 150.676 143.874 150.62C143.794 150.564 143.729 150.489 143.685 150.401L142.539 147.318C142.442 147.121 142.28 146.964 142.081 146.871C141.852 146.768 141.634 146.642 141.405 146.516L140.763 146.115C140.591 145.989 140.385 145.978 140.316 146.115L139.228 147.765C139.215 147.79 139.195 147.81 139.17 147.823C139.111 147.842 139.047 147.843 138.987 147.825C138.928 147.806 138.876 147.769 138.838 147.719L136.546 145.256C136.481 145.19 136.431 145.111 136.399 145.024C136.367 144.936 136.355 144.844 136.363 144.751L137.016 142.551C137.038 142.366 136.993 142.179 136.89 142.024C136.493 141.43 136.137 140.81 135.824 140.167C135.71 139.982 135.53 139.847 135.32 139.789L133.326 139.308C133.226 139.286 133.133 139.24 133.056 139.174C132.978 139.108 132.917 139.024 132.879 138.93L131.87 135.56C131.85 135.534 131.837 135.503 131.83 135.47C131.824 135.438 131.826 135.404 131.834 135.372C131.843 135.34 131.859 135.31 131.881 135.285C131.904 135.26 131.931 135.241 131.962 135.228ZM142.597 143.468H142.711H142.792H142.986H143.204H143.399C143.828 143.474 144.249 143.349 144.606 143.109C144.962 142.87 145.237 142.527 145.393 142.127C145.558 141.765 145.659 141.377 145.691 140.981C145.703 140.779 145.703 140.576 145.691 140.374C145.563 138.113 144.628 135.974 143.055 134.346C142.587 133.834 142.047 133.394 141.451 133.039C141.288 132.998 141.124 132.963 140.958 132.936C140.484 132.72 139.966 132.614 139.445 132.627H139.193C138.825 132.681 138.477 132.832 138.186 133.063C137.894 133.294 137.668 133.598 137.531 133.945C136.638 135.927 137.669 139.4 139.823 141.692C140.562 142.544 141.522 143.174 142.597 143.514V143.468Z" fill="#455A64"/>
<path d="M299.805 257.907L306.864 253.908C308.108 253.198 309.142 252.172 309.862 250.935C310.583 249.697 310.964 248.292 310.967 246.86V209.569H307.22V246.86C307.222 247.631 307.02 248.388 306.633 249.055C306.247 249.721 305.69 250.273 305.019 250.653L297.96 254.664L299.805 257.907Z" fill="#263238"/>
<path d="M320.72 223.184C321.335 222.765 321.843 222.208 322.204 221.557C322.564 220.906 322.766 220.18 322.794 219.436V186.202C322.756 185.454 322.524 184.728 322.123 184.096C321.721 183.463 321.163 182.945 320.502 182.592L283.738 165.609C283.04 165.322 282.29 165.185 281.536 165.207C280.782 165.228 280.041 165.408 279.36 165.735C278.745 166.153 278.237 166.71 277.876 167.361C277.516 168.012 277.314 168.739 277.286 169.482V202.716C277.324 203.464 277.556 204.19 277.957 204.823C278.359 205.455 278.917 205.973 279.578 206.326L316.296 223.31C317 223.603 317.759 223.744 318.521 223.722C319.284 223.7 320.033 223.517 320.72 223.184Z" fill="#455A64"/>
<path d="M314.52 188.448L322.095 184.071C322.522 184.706 322.764 185.448 322.794 186.214V219.448C322.766 220.191 322.564 220.918 322.204 221.569C321.843 222.22 321.335 222.777 320.72 223.195C320.039 223.521 319.298 223.701 318.544 223.723C317.79 223.745 317.04 223.608 316.342 223.321L314.52 222.473V188.448Z" fill="#263238"/>
<path d="M316.296 184.987L279.624 168.015C279.382 167.861 279.101 167.78 278.814 167.781C278.527 167.782 278.246 167.865 278.005 168.02C277.763 168.176 277.572 168.397 277.453 168.658C277.333 168.92 277.292 169.209 277.332 169.494V202.728C277.37 203.476 277.601 204.202 278.003 204.834C278.405 205.467 278.963 205.985 279.624 206.337L316.296 223.31C316.539 223.459 316.819 223.536 317.104 223.533C317.389 223.53 317.668 223.446 317.907 223.292C318.147 223.137 318.338 222.918 318.458 222.66C318.579 222.401 318.624 222.114 318.588 221.831V188.597C318.548 187.85 318.316 187.125 317.914 186.493C317.513 185.86 316.956 185.342 316.296 184.987Z" fill="#37474F"/>
<path d="M308.274 260.05V322.416C308.289 322.704 308.371 322.985 308.515 323.236C308.658 323.487 308.858 323.7 309.099 323.86L311.322 325.143C311.58 325.273 311.865 325.341 312.153 325.341C312.442 325.341 312.726 325.273 312.984 325.143L315.15 323.86C315.391 323.7 315.591 323.487 315.734 323.236C315.878 322.985 315.96 322.704 315.975 322.416V260.05C315.975 259.309 315.681 258.598 315.156 258.073C314.632 257.549 313.92 257.254 313.179 257.254H311.024C310.291 257.266 309.591 257.566 309.077 258.089C308.562 258.612 308.274 259.317 308.274 260.05Z" fill="#263238"/>
<path d="M314.004 257.254C313.49 257.254 312.998 257.458 312.635 257.821C312.271 258.185 312.067 258.677 312.067 259.191V324.776C312.067 325.235 312.388 325.43 312.789 325.2L315.15 323.837C315.38 323.685 315.571 323.482 315.709 323.243C315.846 323.004 315.925 322.737 315.941 322.462V259.191C315.941 258.677 315.737 258.185 315.373 257.821C315.01 257.458 314.518 257.254 314.004 257.254Z" fill="#37474F"/>
<path d="M266.239 281.916V346.092C266.254 346.379 266.336 346.658 266.479 346.907C266.623 347.156 266.823 347.368 267.064 347.525L269.31 348.877C269.568 349.007 269.852 349.075 270.141 349.075C270.429 349.075 270.714 349.007 270.972 348.877L273.195 347.593C273.436 347.437 273.636 347.225 273.779 346.976C273.923 346.727 274.005 346.448 274.02 346.161V281.916C274.02 281.663 273.92 281.42 273.742 281.239C273.564 281.059 273.322 280.956 273.069 280.953H267.213C267.085 280.952 266.959 280.976 266.841 281.023C266.723 281.071 266.615 281.142 266.525 281.231C266.434 281.321 266.362 281.427 266.313 281.545C266.264 281.663 266.239 281.789 266.239 281.916Z" fill="#263238"/>
<path d="M273.046 280.988H271.075C270.822 280.991 270.58 281.094 270.402 281.274C270.223 281.454 270.124 281.697 270.124 281.95V348.418C270.124 348.946 270.49 349.152 270.949 348.888L273.172 347.605C273.413 347.448 273.613 347.236 273.756 346.987C273.9 346.739 273.982 346.459 273.997 346.172V281.916C273.988 281.669 273.885 281.434 273.707 281.261C273.53 281.089 273.293 280.991 273.046 280.988Z" fill="#37474F"/>
<path d="M315.987 258.721V259.581C315.945 260.36 315.74 261.122 315.385 261.817C315.029 262.512 314.532 263.125 313.924 263.614L272.186 292.723C271.556 293.131 270.829 293.365 270.078 293.404C269.328 293.442 268.581 293.282 267.912 292.941L215.448 262.617C214.803 262.202 214.266 261.64 213.882 260.976C213.497 260.313 213.276 259.567 213.236 258.801V257.919C213.271 257.168 213.501 256.44 213.903 255.805C214.305 255.17 214.865 254.65 215.528 254.297L267.144 230.346C267.869 230.062 268.646 229.933 269.424 229.968C270.202 230.004 270.963 230.203 271.659 230.552L313.786 254.893C314.427 255.314 314.96 255.88 315.343 256.545C315.725 257.21 315.945 257.955 315.987 258.721Z" fill="#37474F"/>
<path d="M313.786 254.893L271.602 230.552C270.906 230.203 270.144 230.004 269.366 229.968C268.588 229.933 267.812 230.062 267.087 230.346L215.448 254.297C214.164 254.893 214.119 255.936 215.345 256.589L267.912 286.958C268.58 287.302 269.328 287.463 270.078 287.425C270.829 287.387 271.556 287.151 272.186 286.741L313.924 257.667C314.18 257.53 314.393 257.322 314.536 257.069C314.679 256.816 314.748 256.527 314.733 256.237C314.719 255.946 314.622 255.665 314.455 255.428C314.287 255.19 314.055 255.005 313.786 254.893Z" fill="#455A64"/>
<path d="M253.449 370.536H242.608V351.971H253.449V370.536Z" fill="#FFA8A7"/>
<path d="M222.049 347.444L211.208 347.811L210.658 328.157L221.499 327.79L222.049 347.444Z" fill="#FFA8A7"/>
<path d="M242.608 365.654V363.729C241.462 364.222 236.351 375.074 231.675 379.338C227.951 382.776 221.361 387.36 221.579 390.591C221.785 394.74 227.699 396.585 232.81 395.382C236.798 394.442 242.494 392.024 245.233 389.079C247.971 386.133 248.854 382.203 250.275 380.312C251.696 378.421 254.996 376.232 255.764 373.997C256.188 372.771 255.684 370.078 255.088 367.809C254.55 365.723 253.942 363.431 253.243 363.626V364.909C252.384 365.861 250.023 366.8 247.353 366.903C245.622 366.972 242.597 366.972 242.608 365.654Z" fill="#263238"/>
<path d="M211.093 344.465C210.532 344.465 210.073 345.278 208.801 346.631C207.3 348.247 203.942 349.954 201.524 351.157C197.456 353.197 186.832 355.925 183.257 357.529C181.022 358.538 181.584 362.01 184.747 363.958C187.107 365.414 194.625 366.812 201.318 365.322C204.962 364.497 210.486 361.976 213.213 361.552C216.193 361.082 221.659 360.509 223.871 358.985C226.083 357.46 225.2 354.194 224.57 351.387C223.894 348.327 222.908 343.64 221.9 343.846V344.809C220.594 346.791 213.958 347.593 211.093 346.138V344.465Z" fill="#263238"/>
<path d="M297.146 239.033C299.519 255.799 296.321 259.019 280.392 275.074C271.82 283.704 258.022 296.367 258.022 296.367C258.022 296.367 258.217 301.719 258.331 313.729C258.434 324.295 254.011 358.71 254.011 358.71C254.011 358.71 246.814 361.735 241.875 358.595C241.875 358.595 239.64 332.993 238.437 319.631C236.798 301.547 235.95 292.482 236.867 288.586C237.68 285.148 253.896 264.692 257.644 258.939L223.183 278.959C223.853 284.032 224.19 289.142 224.192 294.259C223.814 308.618 222.049 337.279 222.049 337.279C222.049 337.279 214.153 340.809 210.245 337.761C210.245 337.761 200.309 275.074 200.309 269.929C200.309 262.113 234.265 238.781 240.694 233.337C244.362 230.243 248.453 226.931 248.453 226.931L297.146 239.033Z" fill="#F763B6"/>
<path opacity="0.3" d="M297.146 239.033C299.519 255.799 296.321 259.019 280.392 275.074C271.82 283.704 258.022 296.367 258.022 296.367C258.022 296.367 258.217 301.719 258.331 313.729C258.434 324.295 254.011 358.71 254.011 358.71C254.011 358.71 246.814 361.735 241.875 358.595C241.875 358.595 239.64 332.993 238.437 319.631C236.798 301.547 235.95 292.482 236.867 288.586C237.68 285.148 253.896 264.692 257.644 258.939L223.183 278.959C223.853 284.032 224.19 289.142 224.192 294.259C223.814 308.618 222.049 337.279 222.049 337.279C222.049 337.279 214.153 340.809 210.245 337.761C210.245 337.761 200.309 275.074 200.309 269.929C200.309 262.113 234.265 238.781 240.694 233.337C244.362 230.243 248.453 226.931 248.453 226.931L297.146 239.033Z" fill="black"/>
<path opacity="0.1" d="M257.644 258.996C254.014 256.069 251.285 252.176 249.771 247.765C249.956 250.643 250.366 253.501 250.997 256.314C251.925 260.039 223.184 279.017 223.184 279.017L257.644 258.996Z" fill="black"/>
<path d="M237.68 200.08C237.68 200.08 235.778 182.982 235.778 176.725C235.778 170.021 238.609 166.055 247.318 165.861C247.318 165.861 253.644 209.134 250.218 212.4C248.338 214.187 240.133 216.881 231.973 219.276L227.47 206.28C230.541 204.446 233.933 202.384 237.68 200.08Z" fill="#FFA8A7"/>
<path d="M248.682 165.219C248.682 165.219 241.485 165.402 238.288 168.462C235.09 171.522 235.01 174.135 235.343 179.785C235.675 185.434 236.798 200.092 236.798 200.092C236.798 200.092 242.207 205.203 254.355 204.676L248.682 165.219Z" fill="#E0E0E0"/>
<path d="M283.475 174.948C286.053 178.822 293.674 198.373 297.421 240.912C289.812 249.186 252.338 251.008 240.694 233.371C240.694 233.371 236.775 198.029 236.855 189.583C236.913 183.727 237.073 169.585 247.318 165.861H260.738L276.037 168.462C279.03 169.953 281.591 172.186 283.475 174.948Z" fill="#F5F5F5"/>
<path d="M261.632 131.79C261.776 134.833 261.014 137.85 259.443 140.46C257.872 143.07 255.563 145.156 252.807 146.453C250.05 147.751 246.971 148.202 243.959 147.749C240.947 147.297 238.136 145.961 235.882 143.911C233.629 141.861 232.034 139.189 231.299 136.233C230.564 133.277 230.723 130.169 231.754 127.302C232.786 124.436 234.644 121.94 237.094 120.13C239.544 118.32 242.476 117.277 245.519 117.133C247.54 117.036 249.56 117.338 251.464 118.022C253.367 118.707 255.118 119.759 256.614 121.121C258.111 122.482 259.324 124.125 260.185 125.956C261.046 127.787 261.538 129.769 261.632 131.79Z" fill="#263238"/>
<path d="M273.355 142.23C273.355 142.23 271.419 154.057 270.513 155.982C269.902 157.198 268.848 158.133 267.568 158.595L267.35 150.355L273.355 142.23Z" fill="#263238"/>
<path d="M269.436 125.602C270.303 125.459 271.192 125.517 272.034 125.769C272.875 126.021 273.649 126.462 274.295 127.057C276.438 129.051 275.613 135.675 273.355 142.23L268.691 142.987L269.436 125.602Z" fill="#263238"/>
<path d="M267.282 143.055C268.244 143.571 269.505 141.703 270.605 140.431C271.705 139.159 275.43 137.325 277.481 141.222C279.532 145.118 276.255 150.722 273.321 151.799C268.256 153.656 267.327 150.401 267.327 150.401L267.809 168.966C263.614 174.123 247.547 178.696 251.054 169.264L250.802 163.615C248.541 164.087 246.236 164.317 243.926 164.302C240.11 163.901 237.589 161.025 236.248 156.991C234.093 150.504 233.142 145.221 234.093 132.214C235.136 117.969 251.616 117.041 260.784 122.221C269.952 127.401 267.282 143.055 267.282 143.055Z" fill="#FFA8A7"/>
<path d="M267.35 144.637C267.774 144.419 269.493 141.554 270.605 140.431C272.164 138.884 269.459 125.602 269.459 125.602C269.829 124.423 269.847 123.162 269.511 121.973C269.176 120.785 268.5 119.72 267.568 118.909C265.934 117.202 263.877 115.958 261.607 115.302C259.337 114.646 256.934 114.601 254.641 115.173C250.543 116.098 246.401 116.817 242.23 117.328C237.88 117.814 233.476 117.293 229.36 115.803C229.01 118.126 229.287 120.5 230.163 122.679C231.091 124.72 232.639 126.416 234.586 127.527C236.787 128.799 239.021 129.567 243.617 129.75C249.274 130.071 254.946 129.459 260.406 127.94C262.136 127.619 262.594 129.292 263.752 133.876C264.726 137.841 263.695 146.596 267.35 144.637Z" fill="#263238"/>
<path d="M269.47 126.644L275.04 123.31C274.84 122.935 274.565 122.605 274.234 122.34C273.902 122.074 273.52 121.879 273.111 121.765C272.702 121.652 272.274 121.623 271.853 121.679C271.432 121.736 271.027 121.877 270.662 122.095C269.923 122.56 269.388 123.289 269.167 124.134C268.945 124.979 269.054 125.877 269.47 126.644Z" fill="#263238"/>
<path d="M250.825 163.615C250.825 163.615 259.191 161.517 262.067 159.81C263.758 158.823 265.112 157.349 265.952 155.581C265.588 157.329 264.874 158.986 263.855 160.452C261.838 163.317 250.928 165.861 250.928 165.861L250.825 163.615Z" fill="#F28F8F"/>
<path d="M248.682 142.574C248.711 142.905 248.837 143.22 249.044 143.48C249.251 143.739 249.53 143.933 249.846 144.036C250.161 144.139 250.5 144.147 250.821 144.059C251.141 143.971 251.428 143.791 251.647 143.541C251.866 143.291 252.007 142.982 252.052 142.653C252.097 142.324 252.044 141.989 251.901 141.69C251.757 141.39 251.528 141.139 251.243 140.969C250.958 140.798 250.63 140.714 250.298 140.729C249.841 140.764 249.416 140.977 249.114 141.322C248.812 141.667 248.657 142.116 248.682 142.574Z" fill="#263238"/>
<path d="M250.172 136.729L253.885 138.563C254.118 138.053 254.145 137.474 253.962 136.944C253.778 136.415 253.398 135.977 252.899 135.721C252.655 135.601 252.389 135.532 252.118 135.518C251.846 135.504 251.574 135.545 251.319 135.64C251.064 135.734 250.831 135.879 250.633 136.067C250.436 136.254 250.279 136.479 250.172 136.729Z" fill="#263238"/>
<path d="M251.112 153.415L247.318 155.054C247.415 155.308 247.563 155.54 247.751 155.736C247.94 155.932 248.166 156.088 248.416 156.195C248.666 156.302 248.935 156.358 249.208 156.359C249.48 156.359 249.749 156.305 250 156.2C250.507 155.966 250.905 155.547 251.111 155.029C251.318 154.511 251.318 153.933 251.112 153.415Z" fill="#F28F8F"/>
<path d="M235.503 138.402L238.677 135.709C238.513 135.492 238.306 135.312 238.069 135.178C237.833 135.044 237.571 134.96 237.3 134.931C237.03 134.902 236.756 134.928 236.496 135.009C236.237 135.09 235.996 135.223 235.789 135.4C235.363 135.767 235.096 136.284 235.042 136.844C234.989 137.403 235.154 137.962 235.503 138.402Z" fill="#263238"/>
<path d="M236.511 141.955C236.541 142.286 236.668 142.602 236.875 142.862C237.082 143.122 237.362 143.315 237.678 143.418C237.995 143.52 238.334 143.527 238.655 143.438C238.975 143.349 239.262 143.168 239.481 142.917C239.699 142.666 239.839 142.356 239.882 142.027C239.926 141.697 239.872 141.361 239.726 141.062C239.581 140.763 239.35 140.513 239.064 140.344C238.778 140.175 238.448 140.093 238.116 140.11C237.889 140.125 237.667 140.184 237.463 140.285C237.259 140.386 237.078 140.526 236.928 140.698C236.779 140.869 236.666 141.069 236.594 141.285C236.522 141.5 236.494 141.728 236.511 141.955Z" fill="#263238"/>
<path d="M243.96 140.099L245.37 150.275L239.159 149.897L243.96 140.099Z" fill="#F28F8F"/>
<path d="M282.97 366.044L379.166 310.509L198.636 206.326L102.452 261.861L282.97 366.044Z" fill="#455A64"/>
<path d="M379.166 310.509V421.579L374.1 424.501V348.51L288.036 398.201V474.192L282.97 477.114V366.044L379.166 310.509Z" fill="#263238"/>
<path d="M374.1 424.501L369.035 421.579V351.432L374.1 348.51V424.501Z" fill="black"/>
<path d="M282.97 477.114L277.905 474.192V398.201L107.506 299.862V375.854L102.452 372.931V261.861L282.97 366.044V477.114Z" fill="#37474F"/>
<path d="M107.506 375.854L112.572 372.931V302.785L107.506 299.862V375.854Z" fill="#263238"/>
<path d="M283.715 300.562L322.026 322.691C322.362 322.86 322.733 322.948 323.109 322.948C323.485 322.948 323.856 322.86 324.192 322.691L352.406 306.406C352.535 306.359 352.645 306.275 352.724 306.163C352.802 306.051 352.844 305.918 352.844 305.782C352.844 305.645 352.802 305.512 352.724 305.4C352.645 305.289 352.535 305.204 352.406 305.157L314.096 283.062C313.762 282.893 313.393 282.805 313.018 282.805C312.644 282.805 312.275 282.893 311.941 283.062L283.715 299.358C283.601 299.412 283.504 299.497 283.437 299.603C283.369 299.71 283.333 299.834 283.333 299.96C283.333 300.086 283.369 300.21 283.437 300.316C283.504 300.423 283.601 300.508 283.715 300.562Z" fill="#EBEBEB"/>
<path d="M311.941 283.062L285.148 298.533L322.026 319.803C322.362 319.972 322.733 320.06 323.109 320.06C323.485 320.06 323.856 319.972 324.192 319.803L350.985 304.332L314.096 283.062C313.762 282.893 313.393 282.805 313.018 282.805C312.644 282.805 312.275 282.893 311.941 283.062Z" fill="#E0E0E0"/>
<path d="M283.715 296.654L322.026 318.794C322.362 318.964 322.733 319.052 323.109 319.052C323.485 319.052 323.856 318.964 324.192 318.794L352.441 302.544C352.569 302.497 352.68 302.413 352.758 302.301C352.836 302.189 352.878 302.056 352.878 301.92C352.878 301.783 352.836 301.65 352.758 301.538C352.68 301.427 352.569 301.342 352.441 301.295L314.096 279.154C313.762 278.985 313.393 278.897 313.018 278.897C312.644 278.897 312.275 278.985 311.941 279.154L283.715 295.45C283.597 295.5 283.496 295.584 283.425 295.691C283.354 295.798 283.316 295.924 283.316 296.052C283.316 296.18 283.354 296.306 283.425 296.413C283.496 296.52 283.597 296.604 283.715 296.654Z" fill="#FAFAFA"/>
<path d="M252.223 257.69V257.266C252.203 256.892 252.095 256.527 251.908 256.203C251.721 255.878 251.46 255.603 251.146 255.398L187.486 218.645C187.152 218.476 186.783 218.388 186.408 218.388C186.034 218.388 185.665 218.476 185.331 218.645L172.301 226.163C171.987 226.368 171.726 226.644 171.539 226.968C171.352 227.293 171.244 227.657 171.224 228.031V228.467C171.244 228.841 171.352 229.205 171.539 229.529C171.726 229.854 171.987 230.13 172.301 230.335L235.95 267.087C236.286 267.256 236.657 267.344 237.033 267.344C237.409 267.344 237.78 267.256 238.116 267.087L251.146 259.558C251.46 259.353 251.721 259.077 251.908 258.752C252.095 258.428 252.203 258.064 252.223 257.69Z" fill="#E0E0E0"/>
<path d="M251.146 256.635L238.116 264.165C237.782 264.334 237.413 264.422 237.039 264.422C236.664 264.422 236.295 264.334 235.961 264.165L172.301 227.412C172.173 227.366 172.062 227.281 171.984 227.169C171.906 227.057 171.864 226.924 171.864 226.788C171.864 226.651 171.906 226.518 171.984 226.407C172.062 226.295 172.173 226.21 172.301 226.163L185.331 218.645C185.665 218.476 186.034 218.388 186.408 218.388C186.783 218.388 187.152 218.476 187.486 218.645L251.146 255.398C251.275 255.441 251.388 255.525 251.467 255.636C251.547 255.747 251.59 255.88 251.59 256.017C251.59 256.153 251.547 256.286 251.467 256.397C251.388 256.508 251.275 256.592 251.146 256.635Z" fill="#FAFAFA"/>
<path d="M191.29 227.206C192.436 225.361 198.522 219.952 199.713 218.84C200.905 217.729 206.097 216.972 210.646 215.551C214.806 213.626 220.261 210.578 227.47 206.28L231.973 219.253C225.223 221.212 218.485 222.954 215.368 223.837C212.743 224.845 212.835 225.625 210.692 226.839C206.727 229.131 204.137 228.65 204.137 228.65C202.959 229.768 201.707 230.806 200.39 231.756C197.57 233.681 194.751 235.194 191.29 234.048C187.497 232.81 190.167 229.063 191.29 227.206Z" fill="#FFA8A7"/>
<path d="M207.334 310.566C203.644 306.796 201.467 297.387 205.042 294.407H223.378C226.977 297.387 224.811 306.784 221.086 310.555L220.983 310.658C220.947 310.705 220.905 310.748 220.857 310.784C220.755 310.892 220.643 310.992 220.525 311.082L220.433 311.151C220.346 311.229 220.254 311.301 220.158 311.368L219.688 311.666C217.984 312.531 216.099 312.982 214.187 312.982C212.276 312.982 210.391 312.531 208.687 311.666C208.521 311.571 208.36 311.468 208.205 311.357L207.942 311.162L207.839 311.082L207.518 310.795L207.369 310.646L207.334 310.566Z" fill="#EBEBEB"/>
<path d="M221.797 293.204C225.98 295.611 225.98 299.53 221.797 301.937C219.452 303.128 216.858 303.75 214.227 303.75C211.597 303.75 209.003 303.128 206.658 301.937C202.487 299.53 202.487 295.611 206.658 293.204C209.003 292.012 211.597 291.391 214.227 291.391C216.858 291.391 219.452 292.012 221.797 293.204Z" fill="#FAFAFA"/>
<path d="M218.886 294.912C221.419 296.379 221.419 298.762 218.886 300.229C217.464 300.945 215.894 301.317 214.302 301.317C212.71 301.317 211.14 300.945 209.718 300.229C207.174 298.762 207.174 296.379 209.718 294.912C211.14 294.196 212.71 293.824 214.302 293.824C215.894 293.824 217.464 294.196 218.886 294.912Z" fill="#EBEBEB"/>
<path d="M209.626 297.433C211.048 296.717 212.618 296.345 214.21 296.345C215.802 296.345 217.372 296.717 218.794 297.433C219.405 297.773 219.927 298.252 220.318 298.831C219.956 299.408 219.466 299.894 218.886 300.252C217.464 300.968 215.894 301.34 214.302 301.34C212.71 301.34 211.14 300.968 209.718 300.252C209.102 299.919 208.579 299.439 208.194 298.854C208.55 298.272 209.041 297.784 209.626 297.433Z" fill="#E0E0E0"/>
<path d="M218.279 298.831C219.577 297.51 220.695 296.023 221.602 294.408C223.149 291.68 223.424 288.036 222.633 287.589C221.843 287.142 218.599 290.775 218.599 290.775C218.895 289.266 219.01 287.727 218.943 286.191C218.806 283.761 218.21 281.607 217.522 281.125C216.835 280.644 215.23 283.738 214.611 285.95C213.993 288.162 213.546 289.984 213.546 289.984C213.291 288.258 212.908 286.553 212.4 284.884C211.586 282.592 210.864 282.065 210.291 282.294C209.718 282.523 209.351 283.589 209.145 286.661C209.086 288.121 209.132 289.584 209.282 291.038C209.282 291.038 208.136 289.789 206.876 288.563C205.615 287.337 204.893 287.05 204.492 287.302C204.091 287.554 203.988 289.594 206.142 293.537C207.213 295.52 208.586 297.326 210.211 298.888C210.211 298.888 213.156 300.756 218.279 298.831Z" fill="#F763B6"/>
<path d="M232.81 328.386C232.696 328.336 232.598 328.256 232.526 328.156C232.453 328.055 232.409 327.937 232.397 327.813V326.931L275.04 302.865C275.347 302.707 275.686 302.625 276.031 302.625C276.376 302.625 276.716 302.707 277.023 302.865L315.345 324.983L271.121 350.504L232.81 328.386Z" fill="#F763B6"/>
<path opacity="0.2" d="M232.81 328.386C232.696 328.336 232.598 328.256 232.526 328.156C232.453 328.055 232.409 327.937 232.397 327.813V326.931L275.04 302.865C275.347 302.707 275.686 302.625 276.031 302.625C276.376 302.625 276.716 302.707 277.023 302.865L315.345 324.983L271.121 350.504L232.81 328.386Z" fill="black"/>
<path d="M232.81 327.527C232.691 327.485 232.588 327.408 232.516 327.305C232.443 327.202 232.404 327.08 232.404 326.954C232.404 326.828 232.443 326.705 232.516 326.603C232.588 326.5 232.691 326.423 232.81 326.381L275.04 302.005C275.347 301.848 275.686 301.765 276.031 301.765C276.376 301.765 276.716 301.848 277.023 302.005L315.345 324.123L271.121 349.645L232.81 327.527Z" fill="#F763B6"/>
<path opacity="0.5" d="M232.81 327.527C232.691 327.485 232.588 327.408 232.516 327.305C232.443 327.202 232.404 327.08 232.404 326.954C232.404 326.828 232.443 326.705 232.516 326.603C232.588 326.5 232.691 326.423 232.81 326.381L275.04 302.005C275.347 301.848 275.686 301.765 276.031 301.765C276.376 301.765 276.716 301.848 277.023 302.005L315.345 324.123L271.121 349.645L232.81 327.527Z" fill="black"/>
<path d="M306.521 318.347L278.157 301.971C277.846 301.821 277.505 301.743 277.16 301.743C276.815 301.743 276.474 301.821 276.163 301.971L237.199 324.456L233.509 322.313V326.679H233.578C233.452 326.942 233.578 327.24 233.91 327.447L266.411 346.207L310.635 320.685V315.918L306.521 318.347Z" fill="#EBEBEB"/>
<path d="M233.933 322.725C233.814 322.683 233.712 322.606 233.639 322.503C233.566 322.401 233.527 322.278 233.527 322.152C233.527 322.026 233.566 321.904 233.639 321.801C233.712 321.698 233.814 321.621 233.933 321.579L276.186 297.204C276.495 297.046 276.836 296.963 277.183 296.963C277.53 296.963 277.871 297.046 278.18 297.204L310.681 315.964L266.434 341.508L233.933 322.725Z" fill="#FAFAFA"/>
<path d="M266.434 341.474V346.253L310.658 320.731V315.964L266.434 341.474Z" fill="#E6E6E6"/>
<path d="M266.961 339.606C266.846 339.666 266.722 339.709 266.594 339.732C266.402 339.782 266.201 339.782 266.01 339.732C265.944 339.721 265.882 339.698 265.826 339.663C265.528 339.503 265.563 339.205 265.906 339.01C266.066 338.924 266.242 338.874 266.422 338.861C266.634 338.833 266.849 338.869 267.041 338.964C267.06 338.959 267.079 338.959 267.098 338.964C267.327 339.216 267.282 339.422 266.961 339.606Z" fill="#263238"/>
<path d="M271.969 343.342C271.995 343.933 271.817 344.516 271.464 344.992C271.295 345.206 271.079 345.379 270.833 345.496C270.586 345.613 270.316 345.672 270.043 345.668C269.557 345.655 269.082 345.512 268.668 345.256L268.416 345.107L268.978 344.786C270.33 345.542 271.407 344.9 271.407 343.342C271.36 342.49 271.113 341.662 270.687 340.924C270.261 340.185 269.668 339.557 268.955 339.09C268.693 338.89 268.376 338.773 268.046 338.757C267.717 338.741 267.39 338.825 267.11 338.998C266.861 339.176 266.682 339.436 266.605 339.732C266.414 339.782 266.213 339.782 266.021 339.732C266.087 339.413 266.229 339.114 266.434 338.861C266.604 338.649 266.82 338.478 267.067 338.363C267.313 338.248 267.583 338.191 267.855 338.196C268.346 338.214 268.824 338.36 269.241 338.62C270.041 339.131 270.706 339.827 271.18 340.649C271.655 341.47 271.925 342.394 271.969 343.342Z" fill="#263238"/>
<path d="M270.536 338.838L232.397 320.193V320.88C232.41 321.051 232.461 321.217 232.546 321.366C232.631 321.515 232.749 321.642 232.89 321.74L270.536 339.755V338.838Z" fill="#F763B6"/>
<path opacity="0.2" d="M270.536 338.838L232.397 320.193V320.88C232.41 321.051 232.461 321.217 232.546 321.366C232.631 321.515 232.749 321.642 232.89 321.74L270.536 339.755V338.838Z" fill="black"/>
<path d="M232.81 320.765C232.26 320.445 232.26 319.929 232.81 319.619L275.04 295.244C275.347 295.086 275.686 295.004 276.031 295.004C276.376 295.004 276.716 295.086 277.023 295.244L315.345 313.637L271.121 339.216L232.81 320.765Z" fill="#F763B6"/>
<path d="M271.121 350.504L315.345 324.983V313.626L271.121 339.159V350.504Z" fill="#F763B6"/>
<path opacity="0.1" d="M271.121 350.504L315.345 324.983V313.626L271.121 339.159V350.504Z" fill="black"/>
<path d="M279.842 343.216C279.567 343.219 279.296 343.16 279.048 343.043C278.799 342.925 278.581 342.753 278.409 342.54C278.063 342.06 277.886 341.48 277.905 340.889C277.955 339.936 278.23 339.007 278.708 338.18C279.186 337.354 279.854 336.652 280.655 336.133C281.073 335.875 281.551 335.732 282.042 335.721C283.188 335.721 283.967 336.661 283.967 338.013C283.922 338.966 283.649 339.895 283.173 340.722C282.697 341.549 282.03 342.251 281.228 342.769C280.811 343.026 280.332 343.168 279.842 343.181V343.216Z" fill="#455A64"/>
<path d="M278.478 340.889C278.478 342.459 279.624 343.09 280.942 342.31C281.656 341.841 282.25 341.211 282.676 340.471C283.102 339.73 283.348 338.9 283.394 338.047C283.394 336.489 282.248 335.847 280.942 336.638C280.228 337.105 279.633 337.733 279.205 338.471C278.777 339.209 278.528 340.037 278.478 340.889Z" fill="#F5F5F5"/>
<path d="M287.394 335.182V336.042C287.394 337.761 288.609 338.46 290.098 337.6L309.26 326.541C310.045 326.028 310.699 325.337 311.168 324.525C311.638 323.713 311.911 322.802 311.964 321.866V321.006C311.964 319.287 310.749 318.588 309.26 319.448L290.098 330.506C289.313 331.019 288.658 331.709 288.188 332.522C287.719 333.334 287.446 334.245 287.394 335.182Z" fill="#F5F5F5"/>
<path d="M270.525 350.172V338.872L271.121 339.159V350.504L270.525 350.172Z" fill="#F763B6"/>
<path opacity="0.2" d="M270.525 350.172V338.872L271.121 339.159V350.504L270.525 350.172Z" fill="black"/>
<path d="M314.932 311.861C314.919 311.999 314.873 312.132 314.8 312.249C314.726 312.366 314.626 312.465 314.508 312.537L271.132 337.554C270.999 337.622 270.852 337.657 270.702 337.657C270.553 337.657 270.406 337.622 270.273 337.554L231.412 317.9V317.029L275.624 291.508L314.508 311.173C314.627 311.248 314.727 311.349 314.8 311.468C314.874 311.587 314.919 311.722 314.932 311.861Z" fill="#F763B6"/>
<path opacity="0.1" d="M270.708 336.798V337.658C270.86 337.66 271.009 337.625 271.144 337.554L314.497 312.549C314.617 312.475 314.719 312.375 314.795 312.256C314.871 312.137 314.918 312.001 314.932 311.861C314.918 311.72 314.872 311.585 314.796 311.466C314.721 311.346 314.618 311.246 314.497 311.173C314.737 311.311 314.737 311.529 314.497 311.666L271.144 336.695C271.011 336.77 270.86 336.806 270.708 336.798Z" fill="black"/>
<path opacity="0.5" d="M231.412 317.03L270.273 336.695C270.405 336.769 270.556 336.805 270.708 336.798C270.86 336.806 271.011 336.77 271.144 336.695L314.497 311.712C314.737 311.575 314.737 311.357 314.497 311.219L275.613 291.554L231.412 317.03Z" fill="black"/>
<path opacity="0.2" d="M231.412 317.03V317.9L270.273 337.554C270.405 337.629 270.556 337.665 270.708 337.658V336.798C270.556 336.805 270.405 336.769 270.273 336.695L231.412 317.03Z" fill="black"/>
<path d="M231.996 317.373L276.232 291.863V280.495L231.996 306.142V317.373Z" fill="#F763B6"/>
<path opacity="0.7" d="M231.996 317.373L276.232 291.863V280.495L231.996 306.142V317.373Z" fill="black"/>
<path d="M314.394 305.741C314.552 305.844 314.684 305.983 314.78 306.146C314.875 306.309 314.931 306.493 314.944 306.681V308.973C314.935 309.161 314.881 309.344 314.785 309.506C314.689 309.668 314.554 309.804 314.394 309.901L271.247 334.793C271.081 334.881 270.896 334.927 270.708 334.927C270.52 334.927 270.335 334.881 270.17 334.793L237.222 316.984V313.443L281.435 287.921L314.394 305.741Z" fill="#EBEBEB"/>
<path d="M281.435 287.921L314.394 305.741C314.46 305.764 314.517 305.806 314.558 305.862C314.599 305.919 314.62 305.987 314.62 306.057C314.62 306.126 314.599 306.194 314.558 306.251C314.517 306.307 314.46 306.35 314.394 306.372L271.247 331.263C271.081 331.351 270.896 331.397 270.708 331.397C270.52 331.397 270.335 331.351 270.169 331.263L237.222 313.443L281.435 287.921Z" fill="#FAFAFA"/>
<path d="M241.416 313.729C241.301 313.79 241.178 313.832 241.05 313.855C240.858 313.906 240.657 313.906 240.465 313.855C240.4 313.844 240.338 313.821 240.282 313.786C239.984 313.626 240.018 313.328 240.362 313.133C240.522 313.048 240.697 312.997 240.878 312.984C241.09 312.956 241.305 312.992 241.497 313.087C241.806 313.294 241.737 313.546 241.416 313.729Z" fill="#263238"/>
<path d="M270.708 331.377V334.93C270.899 334.935 271.088 334.891 271.258 334.804L314.405 309.924C314.559 309.818 314.686 309.678 314.777 309.515C314.869 309.353 314.922 309.171 314.932 308.985V306.693C314.914 306.372 314.77 306.071 314.531 305.856C314.692 306.017 314.646 306.234 314.405 306.383L271.258 331.263C271.09 331.354 270.899 331.394 270.708 331.377Z" fill="#E6E6E6"/>
<path d="M235.652 308.813C236.001 308.628 236.393 308.543 236.787 308.565C237.181 308.587 237.561 308.716 237.887 308.939C239.418 310.023 240.502 311.628 240.935 313.454L240.202 313.569C239.808 311.961 238.858 310.544 237.52 309.569C237.237 309.402 236.919 309.304 236.592 309.283C236.393 309.28 236.198 309.336 236.03 309.443C235.682 309.752 235.418 310.144 235.264 310.584C235.109 311.023 235.069 311.494 235.148 311.953C235.217 314.314 236.557 316.972 238.15 317.889C238.491 318.106 238.894 318.203 239.296 318.164L240.098 318.622C239.814 318.791 239.489 318.878 239.159 318.875C238.7 318.863 238.253 318.729 237.864 318.485C236.053 317.442 234.575 314.566 234.495 311.941C234.406 311.364 234.466 310.775 234.668 310.227C234.871 309.68 235.209 309.193 235.652 308.813Z" fill="#263238"/>
<path d="M314.932 304.641C314.919 304.781 314.874 304.915 314.8 305.034C314.727 305.153 314.627 305.254 314.508 305.329L271.132 330.346C270.999 330.413 270.852 330.449 270.702 330.449C270.553 330.449 270.406 330.413 270.273 330.346L231.412 306.589V305.73L275.624 280.197L314.508 303.965C314.626 304.037 314.726 304.136 314.8 304.253C314.873 304.371 314.919 304.503 314.932 304.641Z" fill="#F763B6"/>
<path opacity="0.1" d="M270.708 329.578V330.438C270.858 330.438 271.007 330.407 271.144 330.346L314.497 305.329C314.628 305.268 314.74 305.172 314.818 305.05C314.896 304.928 314.938 304.786 314.938 304.641C314.938 304.496 314.896 304.355 314.818 304.233C314.74 304.111 314.628 304.014 314.497 303.954C314.551 303.97 314.598 304.003 314.632 304.049C314.665 304.094 314.683 304.149 314.683 304.206C314.683 304.262 314.665 304.317 314.632 304.363C314.598 304.408 314.551 304.441 314.497 304.458L271.144 329.486C271.008 329.553 270.859 329.584 270.708 329.578Z" fill="black"/>
<path d="M231.412 305.73L270.273 329.486C270.408 329.552 270.558 329.583 270.708 329.578C270.859 329.584 271.008 329.553 271.144 329.486L314.497 304.458C314.551 304.441 314.598 304.408 314.632 304.363C314.665 304.317 314.683 304.262 314.683 304.206C314.683 304.149 314.665 304.094 314.632 304.049C314.598 304.003 314.551 303.97 314.497 303.954L275.613 280.197L231.412 305.73Z" fill="#F763B6"/>
<path opacity="0.2" d="M231.412 305.73V306.589L270.273 330.346C270.408 330.411 270.558 330.443 270.708 330.438V329.578C270.558 329.583 270.408 329.552 270.273 329.487L231.412 305.73Z" fill="black"/>
<path d="M231.412 317.03V305.741L231.996 306.143V317.373L231.412 317.03Z" fill="#F763B6"/>
<path opacity="0.2" d="M231.412 317.03V305.741L231.996 306.143V317.373L231.412 317.03Z" fill="black"/>
<path d="M232.81 305.558C232.696 305.508 232.598 305.428 232.526 305.327C232.453 305.227 232.409 305.109 232.397 304.985V304.103L275.04 280.037C275.349 279.888 275.688 279.811 276.031 279.811C276.374 279.811 276.713 279.888 277.023 280.037L315.345 302.166L271.121 327.687L232.81 305.558Z" fill="#F763B6"/>
<path opacity="0.2" d="M232.81 305.558C232.696 305.508 232.598 305.428 232.526 305.327C232.453 305.227 232.409 305.109 232.397 304.985V304.103L275.04 280.037C275.349 279.888 275.688 279.811 276.031 279.811C276.374 279.811 276.713 279.888 277.023 280.037L315.345 302.166L271.121 327.687L232.81 305.558Z" fill="black"/>
<path d="M232.81 304.699C232.26 304.378 232.26 303.862 232.81 303.553L275.04 279.166C275.349 279.017 275.688 278.94 276.031 278.94C276.374 278.94 276.713 279.017 277.023 279.166L315.345 301.295L271.121 326.816L232.81 304.699Z" fill="#F763B6"/>
<path opacity="0.5" d="M232.81 304.699C232.26 304.378 232.26 303.862 232.81 303.553L275.04 279.166C275.349 279.017 275.688 278.94 276.031 278.94C276.374 278.94 276.713 279.017 277.023 279.166L315.345 301.295L271.121 326.816L232.81 304.699Z" fill="black"/>
<path d="M306.521 295.519L278.157 279.143C277.848 278.985 277.507 278.902 277.16 278.902C276.813 278.902 276.472 278.985 276.163 279.143L237.199 301.627L233.509 299.473V303.851H233.578C233.548 303.923 233.533 304.002 233.534 304.08C233.534 304.159 233.55 304.237 233.581 304.309C233.612 304.382 233.657 304.448 233.714 304.503C233.77 304.558 233.837 304.601 233.91 304.63L266.411 323.378L310.658 297.96V293.181L306.521 295.519Z" fill="#EBEBEB"/>
<path d="M233.933 299.897C233.814 299.855 233.712 299.778 233.639 299.675C233.566 299.572 233.527 299.45 233.527 299.324C233.527 299.198 233.566 299.075 233.639 298.973C233.712 298.87 233.814 298.793 233.933 298.751L276.186 274.364C276.497 274.214 276.838 274.136 277.183 274.136C277.528 274.136 277.869 274.214 278.18 274.364L310.681 293.124L266.456 318.645L233.933 299.897Z" fill="#FAFAFA"/>
<path d="M266.434 318.645V323.413L310.658 297.903V293.124L266.434 318.645Z" fill="#E6E6E6"/>
<path d="M266.961 316.777C266.846 316.838 266.722 316.881 266.594 316.903C266.402 316.954 266.201 316.954 266.01 316.903C265.944 316.893 265.882 316.869 265.826 316.835C265.528 316.674 265.563 316.376 265.906 316.181C266.066 316.096 266.242 316.045 266.422 316.032C266.634 316.005 266.849 316.041 267.041 316.136C267.06 316.131 267.079 316.131 267.098 316.136C267.327 316.296 267.282 316.594 266.961 316.777Z" fill="#263238"/>
<path d="M271.969 320.513C271.995 321.105 271.817 321.688 271.464 322.164C271.295 322.378 271.079 322.55 270.833 322.668C270.586 322.785 270.316 322.844 270.043 322.84C269.557 322.826 269.082 322.684 268.668 322.427L268.416 322.278L268.978 321.957C270.33 322.714 271.407 322.072 271.407 320.513C271.36 319.662 271.113 318.834 270.687 318.095C270.261 317.357 269.668 316.729 268.955 316.262C268.693 316.061 268.376 315.945 268.046 315.929C267.717 315.912 267.39 315.996 267.11 316.17C266.861 316.348 266.682 316.607 266.605 316.903C266.414 316.954 266.213 316.954 266.021 316.903C266.087 316.584 266.229 316.286 266.434 316.032C266.604 315.82 266.82 315.65 267.067 315.535C267.313 315.42 267.583 315.362 267.855 315.368C268.345 315.381 268.823 315.523 269.241 315.78C270.04 316.295 270.705 316.993 271.179 317.816C271.654 318.639 271.924 319.564 271.969 320.513Z" fill="#263238"/>
<path d="M270.536 315.998L232.397 297.364V297.96C232.41 298.131 232.461 298.297 232.546 298.446C232.631 298.595 232.749 298.722 232.89 298.82L270.536 316.869V315.998Z" fill="#F763B6"/>
<path opacity="0.2" d="M270.536 315.998L232.397 297.364V297.96C232.41 298.131 232.461 298.297 232.546 298.446C232.631 298.595 232.749 298.722 232.89 298.82L270.536 316.869V315.998Z" fill="black"/>
<path d="M232.81 297.96C232.26 297.651 232.26 297.135 232.81 296.814L275.04 272.404C275.349 272.256 275.688 272.179 276.031 272.179C276.374 272.179 276.713 272.256 277.023 272.404L315.345 290.809L271.121 316.296L232.81 297.96Z" fill="#F763B6"/>
<path d="M271.121 327.676L315.345 302.154V290.786L271.121 316.33V327.676Z" fill="#F763B6"/>
<path opacity="0.1" d="M271.121 327.676L315.345 302.154V290.786L271.121 316.33V327.676Z" fill="black"/>
<path d="M279.842 320.387C279.567 320.391 279.296 320.331 279.048 320.214C278.799 320.097 278.581 319.925 278.409 319.711C278.063 319.232 277.886 318.652 277.905 318.061C277.955 317.107 278.23 316.179 278.708 315.352C279.186 314.525 279.854 313.824 280.655 313.305C281.073 313.046 281.551 312.904 282.042 312.892C283.188 312.892 283.967 313.832 283.967 315.184C283.922 316.138 283.649 317.067 283.173 317.894C282.697 318.721 282.03 319.422 281.228 319.94C280.811 320.198 280.332 320.34 279.842 320.353V320.387Z" fill="#455A64"/>
<path d="M278.478 318.061C278.478 319.619 279.624 320.261 280.942 319.47C281.656 319.005 282.251 318.377 282.677 317.638C283.103 316.899 283.349 316.07 283.394 315.219C283.394 313.649 282.248 313.019 280.942 313.798C280.228 314.268 279.634 314.898 279.206 315.638C278.779 316.378 278.529 317.208 278.478 318.061Z" fill="#F5F5F5"/>
<path d="M287.394 312.354V313.213C287.394 314.932 288.609 315.631 290.098 314.772L309.26 303.69C310.047 303.179 310.702 302.489 311.172 301.676C311.642 300.864 311.913 299.952 311.964 299.014V298.155C311.964 296.436 310.749 295.737 309.26 296.608L290.098 307.667C289.311 308.181 288.656 308.873 288.186 309.687C287.716 310.501 287.445 311.415 287.394 312.354Z" fill="#F5F5F5"/>
<path d="M270.525 327.332V316.032L271.121 316.33V327.676L270.525 327.332Z" fill="#F763B6"/>
<path opacity="0.2" d="M270.525 327.332V316.032L271.121 316.33V327.676L270.525 327.332Z" fill="black"/>
<path d="M314.932 288.345C314.919 288.484 314.874 288.619 314.8 288.738C314.727 288.857 314.627 288.958 314.508 289.033L271.132 314.004C270.999 314.071 270.852 314.107 270.702 314.107C270.553 314.107 270.406 314.071 270.273 314.004L231.412 294.35V293.479L275.624 267.958L314.508 287.646C314.628 287.722 314.729 287.824 314.802 287.946C314.876 288.067 314.92 288.204 314.932 288.345Z" fill="#F763B6"/>
<path opacity="0.1" d="M270.708 313.294V314.153C270.859 314.15 271.007 314.115 271.144 314.05L314.497 289.033C314.625 288.971 314.734 288.874 314.81 288.754C314.886 288.633 314.926 288.493 314.926 288.351C314.926 288.208 314.886 288.069 314.81 287.948C314.734 287.827 314.625 287.731 314.497 287.669C314.737 287.807 314.737 288.024 314.497 288.162L271.144 313.19C271.009 313.261 270.86 313.296 270.708 313.294Z" fill="black"/>
<path opacity="0.5" d="M231.412 293.525L270.273 313.19C270.407 313.259 270.557 313.295 270.708 313.294C270.86 313.296 271.009 313.261 271.144 313.19L314.497 288.162C314.737 288.024 314.737 287.807 314.497 287.669L275.613 268.004L231.412 293.525Z" fill="black"/>
<path opacity="0.2" d="M231.412 293.525V294.396L270.273 314.004C270.405 314.078 270.556 314.114 270.708 314.107V313.248C270.557 313.249 270.407 313.213 270.273 313.145L231.412 293.525Z" fill="black"/>
<path d="M231.996 293.869L276.232 268.359V256.991L231.996 282.638V293.869Z" fill="#F763B6"/>
<path opacity="0.7" d="M231.996 293.869L276.232 268.359V256.991L231.996 282.638V293.869Z" fill="black"/>
<path d="M314.394 282.237C314.552 282.34 314.684 282.479 314.78 282.642C314.875 282.805 314.931 282.988 314.944 283.177V285.469C314.931 285.657 314.875 285.84 314.78 286.004C314.684 286.167 314.552 286.305 314.394 286.408L271.247 311.299C271.081 311.388 270.896 311.434 270.708 311.434C270.52 311.434 270.335 311.388 270.17 311.299L237.222 293.479V289.938L281.435 264.405L314.394 282.237Z" fill="#EBEBEB"/>
<path d="M281.435 264.405L314.394 282.237C314.461 282.256 314.521 282.296 314.564 282.352C314.606 282.408 314.63 282.476 314.63 282.546C314.63 282.617 314.606 282.685 314.564 282.741C314.521 282.797 314.461 282.837 314.394 282.856L271.247 307.758C271.081 307.847 270.896 307.893 270.708 307.893C270.52 307.893 270.335 307.847 270.17 307.758L237.222 289.938L281.435 264.405Z" fill="#FAFAFA"/>
<path d="M241.416 290.225C241.301 290.285 241.178 290.328 241.05 290.351C240.858 290.401 240.657 290.401 240.465 290.351C240.4 290.34 240.338 290.317 240.282 290.282C239.984 290.121 240.018 289.824 240.362 289.629C240.522 289.543 240.697 289.492 240.878 289.48C241.09 289.452 241.305 289.488 241.497 289.583C241.806 289.789 241.737 290.041 241.416 290.225Z" fill="#263238"/>
<path d="M270.708 307.873V311.426C270.899 311.43 271.088 311.387 271.258 311.3L314.405 286.408C314.562 286.308 314.692 286.171 314.783 286.009C314.875 285.848 314.926 285.666 314.932 285.48V283.188C314.927 283.028 314.889 282.872 314.82 282.727C314.751 282.583 314.653 282.455 314.531 282.352C314.692 282.512 314.646 282.718 314.405 282.867L271.258 307.758C271.09 307.85 270.899 307.89 270.708 307.873Z" fill="#E6E6E6"/>
<path d="M235.652 285.354C236.002 285.171 236.395 285.088 236.788 285.112C237.182 285.136 237.562 285.267 237.887 285.492C239.418 286.576 240.502 288.181 240.935 290.007L240.202 290.122C239.811 288.512 238.86 287.095 237.52 286.122C237.24 285.95 236.92 285.852 236.592 285.835C236.395 285.836 236.201 285.887 236.03 285.984C235.682 286.296 235.418 286.69 235.264 287.131C235.11 287.572 235.07 288.045 235.148 288.506C235.217 290.866 236.557 293.525 238.15 294.442C238.491 294.659 238.894 294.756 239.296 294.717L240.098 295.175C239.812 295.338 239.488 295.425 239.159 295.427C238.7 295.416 238.253 295.282 237.864 295.038C236.053 293.995 234.575 291.119 234.495 288.494C234.404 287.916 234.463 287.323 234.665 286.774C234.868 286.224 235.208 285.736 235.652 285.354Z" fill="#263238"/>
<path d="M314.932 281.137C314.919 281.275 314.873 281.408 314.8 281.525C314.726 281.642 314.626 281.741 314.508 281.813L271.132 306.83C270.999 306.898 270.852 306.933 270.702 306.933C270.553 306.933 270.406 306.898 270.273 306.83L231.412 283.062V282.191L275.624 256.704L314.508 280.461C314.625 280.534 314.724 280.633 314.798 280.75C314.871 280.867 314.917 280.999 314.932 281.137Z" fill="#F763B6"/>
<path opacity="0.1" d="M270.708 306.074V306.933C270.86 306.936 271.009 306.9 271.144 306.83L314.497 281.824C314.617 281.751 314.719 281.651 314.795 281.532C314.871 281.412 314.918 281.277 314.932 281.137C314.918 280.996 314.872 280.861 314.796 280.741C314.721 280.622 314.618 280.522 314.497 280.449C314.737 280.587 314.737 280.816 314.497 280.942L271.144 305.982C271.01 306.054 270.859 306.086 270.708 306.074Z" fill="black"/>
<path d="M231.412 282.214L270.273 305.982C270.405 306.057 270.556 306.092 270.708 306.085C270.86 306.094 271.011 306.058 271.144 305.982L314.497 280.953C314.737 280.827 314.737 280.598 314.497 280.461L275.613 256.704L231.412 282.214Z" fill="#F763B6"/>
<path opacity="0.2" d="M231.412 282.214V283.062L270.273 306.807C270.405 306.882 270.556 306.917 270.708 306.91V306.051C270.556 306.058 270.405 306.022 270.273 305.948L231.412 282.214Z" fill="black"/>
<path d="M231.412 293.525V282.237L231.996 282.638V293.869L231.412 293.525Z" fill="#F763B6"/>
<path opacity="0.2" d="M231.412 293.525V282.237L231.996 282.638V293.869L231.412 293.525Z" fill="black"/>
<path d="M232.81 282.042C232.697 281.995 232.598 281.918 232.526 281.819C232.453 281.72 232.409 281.603 232.397 281.481V280.598L275.04 256.532C275.349 256.384 275.688 256.307 276.031 256.307C276.374 256.307 276.713 256.384 277.023 256.532L315.345 278.661L271.121 304.171L232.81 282.042Z" fill="#F763B6"/>
<path opacity="0.2" d="M232.81 282.042C232.697 281.995 232.598 281.918 232.526 281.819C232.453 281.72 232.409 281.603 232.397 281.481V280.598L275.04 256.532C275.349 256.384 275.688 256.307 276.031 256.307C276.374 256.307 276.713 256.384 277.023 256.532L315.345 278.661L271.121 304.171L232.81 282.042Z" fill="black"/>
<path d="M232.81 281.183C232.26 280.873 232.26 280.358 232.81 280.037L275.04 255.661C275.349 255.513 275.688 255.436 276.031 255.436C276.374 255.436 276.713 255.513 277.023 255.661L315.345 277.791L271.121 303.3L232.81 281.183Z" fill="#F763B6"/>
<path opacity="0.5" d="M232.81 281.183C232.26 280.873 232.26 280.358 232.81 280.037L275.04 255.661C275.349 255.513 275.688 255.436 276.031 255.436C276.374 255.436 276.713 255.513 277.023 255.661L315.345 277.791L271.121 303.3L232.81 281.183Z" fill="black"/>
<path d="M306.521 272.003L278.157 255.638C277.848 255.48 277.507 255.398 277.16 255.398C276.813 255.398 276.472 255.48 276.163 255.638L237.199 278.123L233.509 275.968V280.346H233.578C233.452 280.621 233.578 280.908 233.91 281.125L266.434 299.908L310.658 274.398V269.62L306.521 272.003Z" fill="#EBEBEB"/>
<path d="M233.933 276.381C233.814 276.339 233.712 276.262 233.639 276.159C233.566 276.056 233.527 275.934 233.527 275.808C233.527 275.682 233.566 275.559 233.639 275.457C233.712 275.354 233.814 275.277 233.933 275.235L276.186 250.86C276.495 250.702 276.836 250.619 277.183 250.619C277.53 250.619 277.871 250.702 278.18 250.86L310.681 269.62L266.456 295.141L233.933 276.381Z" fill="#FAFAFA"/>
<path d="M266.434 295.141V299.908L310.658 274.398V269.62L266.434 295.141Z" fill="#E6E6E6"/>
<path d="M266.961 293.273C266.846 293.334 266.722 293.376 266.594 293.399C266.402 293.449 266.201 293.449 266.01 293.399C265.963 293.398 265.917 293.39 265.872 293.376C265.574 293.216 265.608 292.918 265.952 292.723C266.112 292.637 266.287 292.587 266.468 292.574C266.68 292.546 266.895 292.582 267.087 292.677C267.106 292.672 267.125 292.672 267.144 292.677C267.327 292.837 267.282 293.09 266.961 293.273Z" fill="#263238"/>
<path d="M271.969 297.009C271.995 297.601 271.817 298.183 271.464 298.659C271.295 298.873 271.079 299.046 270.833 299.163C270.586 299.28 270.316 299.339 270.043 299.335C269.557 299.322 269.082 299.18 268.668 298.923L268.416 298.774L268.978 298.453C270.33 299.209 271.407 298.568 271.407 297.009C271.36 296.158 271.113 295.33 270.687 294.591C270.261 293.853 269.668 293.224 268.955 292.757C268.693 292.557 268.376 292.441 268.046 292.424C267.717 292.408 267.39 292.492 267.11 292.666C266.861 292.844 266.682 293.103 266.605 293.399C266.414 293.45 266.213 293.45 266.021 293.399C266.087 293.08 266.229 292.782 266.434 292.528C266.604 292.316 266.82 292.146 267.067 292.03C267.313 291.915 267.583 291.858 267.855 291.863C268.345 291.876 268.823 292.019 269.241 292.276C270.04 292.79 270.705 293.488 271.179 294.312C271.654 295.135 271.924 296.06 271.969 297.009Z" fill="#263238"/>
<path d="M270.536 292.494L232.397 273.894V274.513C232.41 274.684 232.461 274.85 232.546 274.999C232.631 275.147 232.749 275.275 232.89 275.372L270.536 293.376V292.494Z" fill="#F763B6"/>
<path opacity="0.2" d="M270.536 292.494L232.397 273.894V274.513C232.41 274.684 232.461 274.85 232.546 274.999C232.631 275.147 232.749 275.275 232.89 275.372L270.536 293.376V292.494Z" fill="black"/>
<path d="M232.81 274.421C232.26 274.112 232.26 273.596 232.81 273.275L275.04 248.9C275.347 248.742 275.686 248.66 276.031 248.66C276.376 248.66 276.716 248.742 277.023 248.9L315.345 267.293L271.121 292.815L232.81 274.421Z" fill="#F763B6"/>
<path d="M271.121 304.16L315.345 278.65V267.282L271.121 292.814V304.16Z" fill="#F763B6"/>
<path opacity="0.1" d="M271.121 304.16L315.345 278.65V267.282L271.121 292.814V304.16Z" fill="black"/>
<path d="M279.842 296.871C279.567 296.875 279.296 296.815 279.048 296.698C278.799 296.581 278.581 296.409 278.409 296.195C278.062 295.717 277.884 295.136 277.905 294.545C277.954 293.593 278.229 292.666 278.707 291.841C279.185 291.015 279.853 290.316 280.655 289.801C281.073 289.542 281.551 289.399 282.042 289.388C283.188 289.388 283.967 290.316 283.967 291.68C283.924 292.632 283.652 293.56 283.175 294.386C282.699 295.211 282.031 295.91 281.228 296.425C280.811 296.682 280.332 296.824 279.842 296.837V296.871Z" fill="#455A64"/>
<path d="M278.478 294.522C278.478 296.092 279.624 296.722 280.942 295.943C281.656 295.477 282.251 294.85 282.677 294.111C283.103 293.372 283.349 292.543 283.394 291.691C283.394 290.121 282.248 289.491 280.942 290.27C280.228 290.738 279.634 291.366 279.206 292.105C278.779 292.843 278.529 293.671 278.478 294.522Z" fill="#F5F5F5"/>
<path d="M287.394 288.849V289.709C287.394 291.428 288.609 292.127 290.098 291.267L309.26 280.197C310.045 279.684 310.7 278.994 311.17 278.182C311.639 277.37 311.912 276.458 311.964 275.521V274.662C311.964 272.943 310.749 272.244 309.26 273.103L290.098 284.208C289.316 284.716 288.663 285.4 288.194 286.207C287.724 287.013 287.45 287.918 287.394 288.849Z" fill="#F5F5F5"/>
<path d="M270.525 303.828V292.528L271.121 292.815V304.16L270.525 303.828Z" fill="#F763B6"/>
<path opacity="0.2" d="M270.525 303.828V292.528L271.121 292.815V304.16L270.525 303.828Z" fill="black"/>
<path d="M253.782 247.227C260.658 245.233 285.159 238.368 292.608 235.961C297.8 234.277 300.63 233.085 300.733 228.604C300.871 224.433 294.682 190.27 292.448 181.847C290.477 174.467 282.707 168.886 276.037 168.462C273.802 175.842 272.691 192.528 278.558 197.708C280.736 206.383 283.28 222.164 283.28 222.164C283.28 222.164 270.731 228.684 260.772 233.486C255.799 235.881 249.14 238.07 245.175 238.483C242.024 238.815 236.374 240.293 235.171 241.405C232.27 244.352 229.567 247.487 227.08 250.791C225.934 252.636 223.287 256.383 227.08 257.586C230.518 258.675 233.36 257.197 236.179 255.294C237.499 254.343 238.755 253.306 239.938 252.189C242.747 252.495 245.582 251.935 248.063 250.584C250.206 249.335 253.782 247.227 253.782 247.227Z" fill="#FFA8A7"/>
<path d="M128.833 251.455L124.249 196.276C124.203 195.379 124.39 194.485 124.792 193.682C125.193 192.878 125.796 192.193 126.541 191.692C127.357 191.291 128.257 191.091 129.165 191.107C130.074 191.123 130.966 191.355 131.767 191.783L192.184 226.667C192.983 227.188 193.66 227.873 194.17 228.678C194.68 229.483 195.011 230.388 195.141 231.332L199.725 286.5C199.772 287.397 199.586 288.291 199.184 289.095C198.782 289.898 198.179 290.584 197.433 291.084C196.613 291.477 195.712 291.673 194.802 291.655C193.893 291.637 193 291.406 192.196 290.981L131.79 256.108C130.992 255.59 130.316 254.906 129.806 254.103C129.295 253.301 128.964 252.398 128.833 251.455Z" fill="#E0E0E0"/>
<path d="M128.833 251.455L124.249 196.276C124.203 195.379 124.39 194.485 124.792 193.682C125.193 192.878 125.796 192.193 126.541 191.692C127.357 191.291 128.257 191.091 129.165 191.107C130.074 191.123 130.966 191.355 131.767 191.783L192.184 226.667C192.988 227.165 193.663 227.844 194.155 228.65L184.758 234.071V286.683L131.79 256.108C130.992 255.59 130.316 254.906 129.806 254.103C129.295 253.301 128.964 252.398 128.833 251.455Z" fill="#FAFAFA"/>
<path d="M194.648 289.445L190.064 234.277C189.936 233.334 189.607 232.429 189.099 231.624C188.591 230.819 187.916 230.133 187.119 229.613L126.702 194.728C125.212 193.869 124.112 194.568 124.249 196.276L128.833 251.455C128.963 252.397 129.292 253.299 129.8 254.102C130.309 254.904 130.983 255.589 131.779 256.108L192.196 290.992C193.674 291.852 194.82 291.164 194.648 289.445Z" fill="#F0F0F0"/>
<path d="M163.465 245.175C163.295 243.695 162.812 242.268 162.05 240.988C161.287 239.708 160.262 238.604 159.042 237.749C156.83 236.466 155.226 237.749 155.455 240.545C155.624 242.028 156.106 243.457 156.868 244.739C157.631 246.021 158.657 247.127 159.878 247.983C162.09 249.255 163.695 248.006 163.465 245.175Z" fill="#F763B6"/>
<path d="M164.52 263.328L144.27 251.627L146.803 250.172L167.041 261.861L164.52 263.328Z" fill="#FAFAFA"/>
<path d="M140.293 278.558L158.377 288.998C158.728 289.19 159.124 289.281 159.523 289.262C159.866 289.253 160.203 289.167 160.509 289.01L168.531 284.426C168.838 284.224 169.092 283.95 169.272 283.629C169.451 283.308 169.551 282.949 169.562 282.581V282.157C169.562 281.469 169.092 281.183 168.485 281.526L163.683 284.3L162.606 284.919L162.847 283.704L167.018 261.93L164.497 263.397L144.247 251.708L139.422 276.782C139.388 277.13 139.451 277.48 139.605 277.794C139.759 278.108 139.997 278.372 140.293 278.558Z" fill="#F5F5F5"/>
<path d="M169.253 281.4L163.087 277.836L161.827 286.133L169.253 281.4Z" fill="#E0E0E0"/>
<path d="M164.52 263.328L167.041 261.861L162.87 283.635C162.732 284.3 163.11 284.575 163.706 284.231L168.462 281.481C169.069 281.137 169.539 281.423 169.539 282.111V282.535C169.528 282.903 169.428 283.262 169.249 283.583C169.069 283.905 168.815 284.178 168.508 284.38L160.486 288.964C160.18 289.121 159.844 289.207 159.5 289.216L164.52 263.328Z" fill="#EBEBEB"/>
<path d="M246.539 177.951C247.685 180.3 249.656 181.171 253.094 181.332C254.804 181.335 256.497 180.993 258.072 180.328C259.647 179.662 261.072 178.686 262.262 177.458L257.85 173.505L252.727 177.894L251.982 173.413L246.539 177.951Z" fill="#F763B6"/>
<path opacity="0.1" d="M246.539 177.951C247.685 180.3 249.656 181.171 253.094 181.332C254.804 181.335 256.497 180.993 258.072 180.328C259.647 179.662 261.072 178.686 262.262 177.458L257.85 173.505L252.727 177.894L251.982 173.413L246.539 177.951Z" fill="black"/>
<path d="M249.129 176.484C248.729 177.978 248.635 179.537 248.854 181.068C249.105 182.431 249.71 183.703 250.607 184.758C251.169 185.066 251.794 185.24 252.434 185.268C253.073 185.296 253.711 185.176 254.297 184.919C255.335 183.913 256.141 182.695 256.661 181.348C257.182 180 257.404 178.556 257.311 177.114L252.727 177.94L249.129 176.484Z" fill="#F763B6"/>
<path d="M250.607 184.712C250.607 184.712 247.032 215.517 246.963 217.946C246.894 220.376 250.848 228.937 252.957 228.879C255.065 228.822 258.687 220.651 258.606 218.416C258.526 216.182 254.297 184.838 254.297 184.838L250.607 184.712Z" fill="#F763B6"/>
<path opacity="0.1" d="M254.297 184.873C253.723 185.174 253.079 185.318 252.431 185.289C251.783 185.261 251.154 185.062 250.607 184.712V185.194C251.159 185.586 251.798 185.837 252.469 185.927C253.14 186.017 253.822 185.942 254.458 185.709L254.297 184.873Z" fill="black"/>
<path d="M252.682 177.894L267.729 165.024L267.625 161.093C267.625 161.093 269.768 161.494 272.381 167.855C270.225 173.888 266.213 179.083 260.921 182.695L257.288 177.08L252.682 177.894Z" fill="#E0E0E0"/>
<path d="M250.825 163.615C250.825 163.615 248.728 164.187 247.101 167.522C245.783 170.227 245.622 180.071 245.622 180.071L249.129 176.484L252.682 177.928C252.143 174.685 251.134 168.76 251.134 168.76L250.825 163.615Z" fill="#E0E0E0"/>
<path d="M276.037 168.462C276.037 168.462 283.337 167.901 288.242 172.485C293.147 177.069 293.972 180.999 295.977 192.551C297.983 204.103 299.312 213.947 299.312 213.947C299.312 213.947 291.13 219.734 281.091 217.534L277.653 198.247C275.78 194.559 274.353 190.662 273.401 186.638C271.889 178.776 273.619 171.018 276.037 168.462Z" fill="#E0E0E0"/>
</svg>
