<svg viewBox="0 0 527 414" fill="none" xmlns="http://www.w3.org/2000/svg">
<path d="M449.781 372.997C346.893 426.745 180.07 426.745 77.1702 372.997C-25.7291 319.25 -25.7176 232.039 77.1702 178.338C180.058 124.636 346.893 124.59 449.781 178.338C552.669 232.085 552.68 319.215 449.781 372.997Z" fill="#F5F5F5"/>
<path d="M362.295 335.97L267.716 390.577C266.712 391.085 265.603 391.35 264.478 391.35C263.353 391.35 262.244 391.085 261.241 390.577L80.1728 286.291C78.385 285.259 78.385 283.586 80.1728 282.555L174.947 227.833C175.95 227.325 177.059 227.06 178.184 227.06C179.309 227.06 180.418 227.325 181.422 227.833L362.261 332.245C364.094 333.265 364.094 334.938 362.295 335.97Z" fill="#E0E0E0"/>
<path d="M479.015 227.822L429.519 256.266C428.516 256.774 427.407 257.039 426.282 257.039C425.157 257.039 424.048 256.774 423.045 256.266L363.659 221.977C361.871 220.946 361.871 219.273 363.659 218.241L412.868 189.82C413.873 189.312 414.984 189.047 416.111 189.047C417.238 189.047 418.349 189.312 419.354 189.82L479.015 224.086C480.872 225.163 480.872 226.79 479.015 227.822Z" fill="#E0E0E0"/>
<path d="M84.1837 247.693C84.4588 247.579 85.3297 229.037 77.3077 218.115C69.2857 207.194 59.6593 205.933 53.3105 208.592C46.9617 211.251 48.2681 217.76 56.0838 221.679C63.8996 225.599 73.6291 232.429 75.944 244.897L84.1837 247.693Z" fill="#F763B6"/>
<path opacity="0.1" d="M84.1837 247.693C84.4588 247.579 85.3297 229.037 77.3077 218.115C69.2857 207.194 59.6593 205.933 53.3105 208.592C46.9617 211.251 48.2681 217.76 56.0838 221.679C63.8996 225.599 73.6291 232.429 75.944 244.897L84.1837 247.693Z" fill="black"/>
<path d="M81.25 242.25C81.1102 242.249 80.9752 242.2 80.8683 242.11C80.7615 242.02 80.6897 241.895 80.6655 241.757C77.6744 222.929 66.5468 213.703 57.1267 211.354C57.0422 211.344 56.9609 211.317 56.8879 211.274C56.8149 211.23 56.7521 211.171 56.7037 211.102C56.6552 211.032 56.6222 210.953 56.6069 210.869C56.5916 210.785 56.5944 210.7 56.615 210.617C56.6356 210.535 56.6736 210.458 56.7264 210.391C56.7792 210.325 56.8456 210.27 56.9212 210.231C56.9968 210.193 57.0798 210.171 57.1646 210.166C57.2495 210.162 57.3342 210.177 57.4132 210.208C67.2 212.649 78.7517 222.184 81.8459 241.574C81.869 241.732 81.8291 241.892 81.7347 242.021C81.6404 242.15 81.4992 242.236 81.3416 242.262L81.25 242.25Z" fill="white"/>
<path d="M82.7512 282.108C81.5365 277.226 76.6201 273.994 70.8099 273.467C64.7819 272.928 57.757 272.321 55.9119 267.233C54.0668 262.144 55.9119 255.234 55.0754 251.853C54.0325 247.751 52.4625 245.31 44.5436 242.823C37.4384 240.531 33.5076 233.804 40.6701 230.939C47.8326 228.074 54.9951 229.885 59.8656 232.085C64.7361 234.285 64.9653 236.566 71.8184 235.981C78.6715 235.397 83.7941 239.706 84.2181 243.854L82.7512 282.108Z" fill="#F763B6"/>
<path d="M82.7513 265.537C82.6294 265.536 82.5106 265.498 82.4105 265.428C82.3103 265.359 82.2334 265.261 82.1897 265.147C76.5514 249.435 53.5397 235.225 45.8386 234.32C45.6814 234.3 45.5382 234.219 45.4397 234.095C45.3413 233.97 45.2952 233.813 45.3114 233.655C45.3199 233.577 45.3439 233.501 45.3822 233.433C45.4205 233.364 45.4722 233.304 45.5342 233.256C45.5963 233.208 45.6674 233.173 45.7433 233.153C45.8192 233.133 45.8984 233.128 45.9761 233.139C53.8491 234.068 77.5255 248.633 83.3128 264.746C83.361 264.895 83.3498 265.057 83.2814 265.198C83.2131 265.339 83.093 265.448 82.9461 265.502C82.8838 265.526 82.8178 265.537 82.7513 265.537V265.537Z" fill="white"/>
<path d="M77.3536 256.105H77.2161C77.0629 256.07 76.93 255.975 76.8463 255.842C76.7626 255.709 76.7348 255.548 76.7691 255.395C78.6715 247.212 76.7691 241.941 76.7691 241.883C76.7419 241.81 76.7295 241.733 76.7327 241.655C76.7359 241.577 76.7546 241.501 76.7877 241.43C76.8208 241.36 76.8676 241.297 76.9254 241.245C76.9832 241.193 77.0509 241.153 77.1244 241.127C77.1981 241.1 77.2765 241.087 77.3551 241.09C77.4337 241.093 77.5109 241.112 77.5823 241.145C77.6537 241.178 77.7178 241.225 77.771 241.282C77.8242 241.34 77.8654 241.408 77.8922 241.482C77.9724 241.7 79.8863 247.109 77.8922 255.658C77.8595 255.779 77.7902 255.887 77.6937 255.967C77.5973 256.047 77.4785 256.095 77.3536 256.105V256.105Z" fill="white"/>
<path d="M81.25 262.133C81.154 262.134 81.0594 262.11 80.975 262.064C76.391 259.543 66.3061 261.342 66.203 261.354C66.1212 261.388 66.0328 261.403 65.9443 261.399C65.8557 261.394 65.7693 261.37 65.6913 261.328C65.6133 261.286 65.5457 261.227 65.4933 261.156C65.4409 261.084 65.4052 261.002 65.3886 260.915C65.3721 260.828 65.3751 260.738 65.3976 260.652C65.4201 260.567 65.4614 260.487 65.5186 260.419C65.5758 260.352 65.6473 260.297 65.7281 260.261C65.8088 260.224 65.8966 260.206 65.9853 260.208C66.4207 260.128 76.5399 258.328 81.5365 261.033C81.6061 261.07 81.6676 261.121 81.7175 261.182C81.7674 261.243 81.8046 261.314 81.827 261.389C81.8494 261.465 81.8565 261.545 81.8479 261.623C81.8394 261.701 81.8153 261.777 81.7771 261.847C81.7224 261.937 81.6449 262.011 81.5523 262.061C81.4596 262.111 81.3553 262.136 81.25 262.133V262.133Z" fill="white"/>
<path d="M369.939 219.41L379.302 214.001L369.939 211.297V219.41Z" fill="black"/>
<path d="M426.127 243.74V252.358L477.64 222.619V214.001L426.127 243.74Z" fill="black"/>
<path d="M482.316 146.41L430.814 176.149V246.433L482.316 216.706V146.41Z" fill="#263238"/>
<path d="M430.814 176.149L360.576 135.603V205.887L430.814 246.433V176.149Z" fill="#37474F"/>
<path d="M360.576 135.603L412.077 105.865L482.316 146.41L430.814 176.149L360.576 135.603Z" fill="#455A64"/>
<path d="M426.127 178.853L365.263 143.717V159.933L426.127 195.081V178.853Z" fill="#455A64"/>
<g style="mix-blend-mode:multiply">
<g style="mix-blend-mode:multiply">
<path d="M402.714 166.717C402.714 167.462 400.48 166.774 397.729 165.182L388.985 160.128C386.224 158.546 383.989 156.69 383.989 155.899V154.547L402.714 165.365V166.717Z" fill="#263238"/>
</g>
</g>
<path d="M426.127 200.478L365.263 165.342V181.558L426.127 216.706V200.478Z" fill="#455A64"/>
<g style="mix-blend-mode:multiply">
<g style="mix-blend-mode:multiply">
<path d="M402.714 188.319C402.714 189.064 400.48 188.377 397.729 186.784L388.985 181.741C386.224 180.148 383.989 178.246 383.989 177.501V176.149L402.714 186.967V188.319Z" fill="#263238"/>
</g>
</g>
<path d="M426.127 222.103L365.263 186.967V203.183L426.127 238.331V222.103Z" fill="#455A64"/>
<g style="mix-blend-mode:multiply">
<g style="mix-blend-mode:multiply">
<path d="M402.714 209.944C402.714 210.689 400.48 209.944 397.729 208.409L388.985 203.366C386.224 201.773 383.989 199.928 383.989 199.126V197.774L402.714 208.592V209.944Z" fill="#263238"/>
</g>
</g>
<path d="M426.127 252.358L421.452 249.653V241.035L426.127 243.74V252.358Z" fill="#263238"/>
<path d="M369.939 219.41L365.263 216.706V208.592L369.939 211.297V219.41Z" fill="#263238"/>
<path d="M433.015 170.304L405.018 154.111C404.468 153.802 404.468 153.286 405.018 152.965L443.42 131.1C443.73 130.944 444.071 130.864 444.417 130.864C444.764 130.864 445.105 130.944 445.414 131.1L473.159 147.144C473.721 147.453 473.721 147.969 473.159 148.29L435.02 170.316C434.709 170.472 434.365 170.552 434.016 170.55C433.668 170.548 433.324 170.464 433.015 170.304V170.304Z" fill="#E0E0E0"/>
<path d="M473.193 147.086L441.678 127.054C441.375 126.894 441.036 126.81 440.693 126.81C440.349 126.81 440.011 126.894 439.707 127.054L428.362 133.609C428.095 133.768 427.898 134.02 427.809 134.318C427.72 134.615 427.745 134.934 427.881 135.214L428.35 136.119C428.487 136.397 428.514 136.715 428.427 137.012C428.34 137.309 428.145 137.563 427.881 137.723L405.018 151.028C404.915 151.085 404.829 151.168 404.77 151.268C404.71 151.369 404.678 151.484 404.678 151.601C404.678 151.719 404.71 151.834 404.77 151.934C404.829 152.035 404.915 152.118 405.018 152.174L433.083 170.247C433.386 170.41 433.725 170.496 434.069 170.496C434.413 170.496 434.752 170.41 435.055 170.247L473.159 148.278C473.28 148.234 473.384 148.155 473.459 148.051C473.534 147.946 473.577 147.822 473.58 147.694C473.584 147.565 473.549 147.439 473.48 147.331C473.411 147.222 473.311 147.137 473.193 147.086V147.086Z" fill="#F5F5F5"/>
<path d="M407.516 65.8692C407.608 65.8021 407.715 65.7604 407.828 65.7483C407.941 65.7362 408.054 65.7542 408.158 65.8005L408.868 66.213L408.433 111.491C408.415 111.81 408.322 112.12 408.163 112.396C408.004 112.673 407.782 112.908 407.516 113.084L372.07 133.552V86.3597L407.516 65.8692Z" fill="#F763B6"/>
<path opacity="0.2" d="M407.516 65.8692C407.608 65.8021 407.715 65.7604 407.828 65.7483C407.941 65.7362 408.054 65.7542 408.158 65.8005L408.868 66.213L408.433 111.491C408.415 111.81 408.322 112.12 408.163 112.396C408.004 112.673 407.782 112.908 407.516 113.084L372.07 133.552V86.3597L407.516 65.8692Z" fill="black"/>
<path d="M408.204 66.2932C408.708 66.0067 409.121 66.2932 409.121 66.8319V111.927C409.102 112.245 409.01 112.555 408.851 112.832C408.691 113.108 408.47 113.344 408.204 113.52L372.758 133.976V86.7493L408.204 66.2932Z" fill="#F763B6"/>
<path opacity="0.5" d="M408.204 66.2932C408.708 66.0067 409.121 66.2932 409.121 66.8319V111.927C409.102 112.245 409.01 112.555 408.851 112.832C408.691 113.108 408.47 113.344 408.204 113.52L372.758 133.976V86.7493L408.204 66.2932Z" fill="black"/>
<path d="M381.468 129.587L407.7 114.437C407.966 114.261 408.187 114.025 408.346 113.749C408.505 113.472 408.598 113.162 408.616 112.844V71.2439L412.054 69.2843L408.548 67.2673H408.479C408.33 67.0381 408.043 66.9808 407.7 67.1756L377.663 84.5375V131.764L381.491 133.965L381.468 129.587Z" fill="#EBEBEB"/>
<path d="M411.527 69.4219C412.031 69.1354 412.444 69.4219 412.444 69.949V115.056C412.427 115.373 412.334 115.681 412.175 115.956C412.016 116.231 411.794 116.464 411.527 116.637L381.468 133.999V86.7723L411.527 69.4219Z" fill="#FAFAFA"/>
<path d="M381.479 86.7723L377.663 84.572L377.64 131.799L381.468 133.999L381.479 86.7723Z" fill="#E6E6E6"/>
<path d="M382.751 88.0558C382.757 87.9385 382.781 87.8227 382.82 87.712C382.876 87.5344 382.974 87.3731 383.106 87.2421C383.144 87.1952 383.191 87.1563 383.244 87.1275C383.507 86.9671 383.737 87.1275 383.725 87.4942C383.727 87.6616 383.687 87.8268 383.611 87.9755C383.536 88.1582 383.409 88.3141 383.244 88.4225C383.244 88.4225 383.244 88.4225 383.175 88.4225C382.912 88.56 382.751 88.3996 382.751 88.0558Z" fill="#263238"/>
<path d="M377.422 90.3479C376.943 90.0958 376.561 89.6931 376.334 89.2019C376.241 88.9664 376.204 88.7131 376.224 88.461C376.244 88.2089 376.32 87.9646 376.448 87.7465C376.684 87.3652 377.016 87.0529 377.411 86.8411L377.651 86.7036V87.311C377.382 87.407 377.148 87.5841 376.983 87.818C376.818 88.0519 376.73 88.3312 376.73 88.6174C376.73 88.9037 376.818 89.183 376.983 89.4169C377.148 89.6508 377.382 89.8279 377.651 89.9239C378.362 90.2843 379.147 90.4721 379.943 90.4721C380.74 90.4721 381.525 90.2843 382.235 89.9239C382.518 89.809 382.759 89.61 382.925 89.3538C383.091 89.0975 383.174 88.7965 383.164 88.4914C383.142 88.2076 383.015 87.942 382.808 87.7465C382.864 87.5689 382.963 87.4076 383.095 87.2766C383.316 87.4802 383.488 87.7309 383.599 88.0101C383.692 88.2439 383.729 88.4963 383.707 88.747C383.685 88.9977 383.605 89.2398 383.473 89.454C383.238 89.8453 382.901 90.1659 382.499 90.3823C381.711 90.7802 380.839 90.9846 379.956 90.9786C379.074 90.9726 378.205 90.7564 377.422 90.3479V90.3479Z" fill="#263238"/>
<path d="M381.697 91.2874L414.266 69.3071L413.762 69.0206C413.619 68.9524 413.462 68.917 413.304 68.917C413.145 68.917 412.988 68.9524 412.845 69.0206L380.998 90.7946L381.697 91.2874Z" fill="#F763B6"/>
<path opacity="0.2" d="M381.697 91.2874L414.266 69.3071L413.762 69.0206C413.619 68.9524 413.462 68.917 413.304 68.917C413.145 68.917 412.988 68.9524 412.845 69.0206L380.998 90.7946L381.697 91.2874Z" fill="black"/>
<path d="M413.624 69.4219C414.129 69.1354 414.541 69.4219 414.541 69.9605V115.056C414.524 115.374 414.431 115.684 414.27 115.959C414.108 116.235 413.883 116.467 413.613 116.637L381.158 138.835V91.6085L413.624 69.4219Z" fill="#F763B6"/>
<path d="M372.082 86.3596L372.07 133.586L381.17 138.835V91.5968L372.082 86.3596Z" fill="#F763B6"/>
<path opacity="0.1" d="M372.082 86.3596L372.07 133.586L381.17 138.835V91.5968L372.082 86.3596Z" fill="black"/>
<path d="M373.893 96.7195C374.008 96.5026 374.171 96.3146 374.37 96.1697C374.568 96.0248 374.797 95.9268 375.039 95.8829C375.583 95.8221 376.133 95.9473 376.597 96.2382C377.338 96.7178 377.955 97.3671 378.395 98.1324C378.836 98.8977 379.087 99.7568 379.13 100.639C379.143 101.09 379.037 101.537 378.82 101.934C378.681 102.157 378.495 102.349 378.277 102.496C378.058 102.642 377.81 102.741 377.551 102.786C377.291 102.83 377.025 102.819 376.769 102.753C376.514 102.687 376.276 102.568 376.07 102.404C375.326 101.929 374.707 101.282 374.264 100.518C373.822 99.7547 373.568 98.8961 373.526 98.0145C373.524 97.5642 373.63 97.1201 373.835 96.7195H373.893Z" fill="#455A64"/>
<path d="M376.379 96.6966C375.13 95.9746 374.087 96.5591 374.087 98.0145C374.131 98.8043 374.362 99.5725 374.76 100.256C375.158 100.939 375.713 101.518 376.379 101.945C377.629 102.679 378.671 102.083 378.671 100.639C378.625 99.8481 378.393 99.0793 377.995 98.3945C377.597 97.7097 377.044 97.1281 376.379 96.6966Z" fill="#F5F5F5"/>
<path d="M376.826 106.484L376.139 106.082C374.764 105.292 373.64 105.933 373.64 107.526V127.994C373.688 128.86 373.939 129.702 374.373 130.453C374.807 131.204 375.412 131.841 376.139 132.314L376.826 132.715C378.202 133.506 379.325 132.864 379.325 131.271V110.804C379.277 109.938 379.027 109.095 378.592 108.345C378.158 107.594 377.553 106.956 376.826 106.484V106.484Z" fill="#F5F5F5"/>
<path d="M372.62 86.0388L381.674 91.2646L381.17 91.5969L372.082 86.3597L372.62 86.0388Z" fill="#F763B6"/>
<path opacity="0.2" d="M372.62 86.0388L381.674 91.2646L381.17 91.5969L372.082 86.3597L372.62 86.0388Z" fill="black"/>
<path d="M383.313 139.637C383.21 139.559 383.125 139.459 383.066 139.344C383.006 139.229 382.973 139.102 382.969 138.973V92.6741C382.976 92.5343 383.016 92.3983 383.086 92.2768C383.156 92.1554 383.253 92.0521 383.37 91.9751L417.131 69.9375L417.819 70.3386V117.554L384.08 139.603C383.965 139.671 383.835 139.71 383.701 139.716C383.567 139.722 383.434 139.695 383.313 139.637V139.637Z" fill="#F763B6"/>
<path opacity="0.1" d="M383.794 92.6741L383.106 92.2729C383.035 92.3956 382.992 92.5326 382.98 92.6741V138.972C382.985 139.102 383.018 139.229 383.077 139.344C383.137 139.459 383.221 139.559 383.324 139.637C383.442 139.696 383.571 139.726 383.702 139.726C383.834 139.726 383.963 139.696 384.081 139.637C383.863 139.763 383.679 139.637 383.679 139.408V93.1095C383.672 92.9561 383.712 92.8042 383.794 92.6741V92.6741Z" fill="black"/>
<path opacity="0.5" d="M417.796 70.3386L384.08 92.3762C383.958 92.4455 383.858 92.549 383.794 92.6742C383.715 92.7933 383.671 92.9324 383.668 93.0753V139.374C383.668 139.626 383.851 139.729 384.069 139.603L417.796 117.554V70.3386Z" fill="black"/>
<path opacity="0.2" d="M417.796 70.3386L417.108 69.9375L383.381 91.9751C383.267 92.051 383.173 92.1532 383.106 92.273L383.794 92.6741C383.858 92.549 383.958 92.4455 384.08 92.3762L417.796 70.3386Z" fill="black"/>
<path d="M417.246 70.6479L417.234 117.875L426.333 123.135L426.242 75.8508L417.246 70.6479Z" fill="#F763B6"/>
<path opacity="0.7" d="M417.246 70.6479L417.234 117.875L426.333 123.135L426.242 75.8508L417.246 70.6479Z" fill="black"/>
<path d="M388.481 142.032C388.326 142.107 388.155 142.146 387.983 142.146C387.81 142.146 387.64 142.107 387.484 142.032L385.639 140.966C385.498 140.869 385.38 140.742 385.295 140.593C385.21 140.444 385.159 140.278 385.146 140.107V94.0263C385.16 93.8544 385.213 93.6877 385.3 93.5389C385.387 93.3901 385.507 93.2629 385.651 93.1668L415.149 75.0371L417.991 76.6759V123.903L388.481 142.032Z" fill="#EBEBEB"/>
<path d="M417.979 123.88L388.481 142.032C388.206 142.193 387.988 142.032 387.988 141.746V95.6652C388.001 95.4912 388.052 95.3224 388.14 95.1714C388.227 95.0205 388.348 94.8915 388.493 94.7943L418.002 76.6416L417.979 123.88Z" fill="#FAFAFA"/>
<path d="M415.813 79.8849C415.82 79.7676 415.843 79.6518 415.882 79.5411C415.935 79.3646 416.029 79.2035 416.157 79.0712L416.306 78.9566C416.57 78.7962 416.787 78.9566 416.787 79.3233C416.785 79.4902 416.746 79.6545 416.673 79.8047C416.595 79.9885 416.463 80.1444 416.295 80.2516C416.295 80.2516 416.295 80.2516 416.295 80.2516C415.985 80.3777 415.813 80.2287 415.813 79.8849Z" fill="#263238"/>
<path d="M388.137 95.1839L385.284 93.5337C385.193 93.6867 385.142 93.8601 385.135 94.0379V140.107C385.149 140.279 385.201 140.446 385.289 140.595C385.376 140.743 385.496 140.871 385.639 140.967L387.484 142.032C387.62 142.092 387.766 142.123 387.914 142.123C388.062 142.123 388.208 142.092 388.344 142.032C388.137 142.09 387.988 141.964 387.988 141.689V95.6653C387.991 95.4938 388.043 95.3268 388.137 95.1839V95.1839Z" fill="#E6E6E6"/>
<path d="M422.426 77.5469C422.409 77.9105 422.293 78.2625 422.091 78.5654C421.889 78.8682 421.609 79.1104 421.28 79.2659C419.707 79.9959 417.92 80.1223 416.26 79.6212L416.512 78.9794C417.979 79.4126 419.552 79.3069 420.947 78.6815C421.217 78.5428 421.443 78.3327 421.601 78.0741C421.699 77.9167 421.747 77.7326 421.738 77.5469C421.738 76.9166 421.131 76.2176 420.134 75.679C419.2 75.1684 418.163 74.8736 417.1 74.8161C416.037 74.7586 414.975 74.9398 413.991 75.3466C413.672 75.5132 413.414 75.7784 413.258 76.103L412.524 76.5385V76.4812C412.525 76.1797 412.604 75.8837 412.753 75.6217C412.977 75.2583 413.293 74.9615 413.67 74.7622C414.752 74.2933 415.927 74.0785 417.105 74.1341C418.283 74.1897 419.433 74.5143 420.466 75.083C420.979 75.2878 421.429 75.6229 421.773 76.055C422.116 76.487 422.341 77.0013 422.426 77.5469V77.5469Z" fill="#263238"/>
<path d="M389.1 142.972C388.992 142.898 388.904 142.798 388.842 142.683C388.78 142.567 388.747 142.439 388.745 142.307V96.0091C388.752 95.8693 388.792 95.7332 388.862 95.6118C388.932 95.4903 389.029 95.387 389.146 95.31L426.139 75.1633L426.826 75.5644V122.78L389.822 142.938C389.713 143 389.591 143.036 389.465 143.042C389.34 143.048 389.214 143.024 389.1 142.972V142.972Z" fill="#F763B6"/>
<path opacity="0.1" d="M389.57 96.009L388.882 95.6194C388.813 95.7381 388.774 95.8718 388.768 96.009V142.307C388.748 142.448 388.771 142.591 388.834 142.718C388.898 142.845 388.998 142.95 389.123 143.019C389.247 143.087 389.39 143.116 389.531 143.102C389.672 143.087 389.806 143.03 389.914 142.938C389.696 143.064 389.513 142.938 389.513 142.709V96.4101C389.501 96.2738 389.52 96.1366 389.57 96.009V96.009Z" fill="black"/>
<path d="M426.849 75.5645L389.856 95.6653C389.737 95.7401 389.639 95.843 389.569 95.9649C389.499 96.0868 389.46 96.2239 389.455 96.3643V142.663C389.455 142.915 389.639 143.018 389.856 142.892L426.861 122.734L426.849 75.5645Z" fill="#F763B6"/>
<path opacity="0.2" d="M426.849 75.5644L426.162 75.1633L389.169 95.31C389.048 95.3866 388.949 95.4932 388.882 95.6194L389.57 96.0091C389.641 95.8887 389.739 95.7867 389.856 95.7111L426.849 75.5644Z" fill="black"/>
<path d="M417.796 70.3386L426.838 75.5644L426.242 75.8509L417.246 70.648L417.796 70.3386Z" fill="#F763B6"/>
<path opacity="0.2" d="M417.796 70.3386L426.838 75.5644L426.242 75.8509L417.246 70.648L417.796 70.3386Z" fill="black"/>
<path d="M426.299 76.7677C426.396 76.7102 426.507 76.6799 426.62 76.6799C426.733 76.6799 426.844 76.7102 426.941 76.7677L427.651 77.1688L427.216 122.459C427.198 122.776 427.106 123.084 426.947 123.359C426.788 123.634 426.566 123.867 426.299 124.04L390.853 144.508V97.2238L426.299 76.7677Z" fill="#F763B6"/>
<path opacity="0.2" d="M426.299 76.7677C426.396 76.7102 426.507 76.6799 426.62 76.6799C426.733 76.6799 426.844 76.7102 426.941 76.7677L427.651 77.1688L427.216 122.459C427.198 122.776 427.106 123.084 426.947 123.359C426.788 123.634 426.566 123.867 426.299 124.04L390.853 144.508V97.2238L426.299 76.7677Z" fill="black"/>
<path d="M427.033 77.1689C427.537 76.8709 427.949 77.1116 427.949 77.696V122.791C427.933 123.11 427.841 123.421 427.682 123.697C427.522 123.974 427.3 124.209 427.033 124.384L391.587 144.852V97.625L427.033 77.1689Z" fill="#F763B6"/>
<path opacity="0.5" d="M427.033 77.1689C427.537 76.8709 427.949 77.1116 427.949 77.696V122.791C427.933 123.11 427.841 123.421 427.682 123.697C427.522 123.974 427.3 124.209 427.033 124.384L391.587 144.852V97.625L427.033 77.1689Z" fill="black"/>
<path d="M400.296 140.462L426.528 125.301C426.796 125.127 427.019 124.892 427.179 124.615C427.338 124.338 427.429 124.027 427.445 123.708V82.1196L430.883 80.1599L427.376 78.1315C427.33 78.0743 427.272 78.0268 427.207 77.9918C427.142 77.9567 427.071 77.9349 426.998 77.9274C426.924 77.92 426.85 77.9271 426.779 77.9483C426.709 77.9696 426.643 78.0046 426.586 78.0513L396.503 95.4361V142.651L400.331 144.863L400.296 140.462Z" fill="#EBEBEB"/>
<path d="M430.356 80.2973C430.86 79.9993 431.273 80.24 431.273 80.8244V125.92C431.254 126.238 431.162 126.548 431.003 126.824C430.844 127.101 430.622 127.337 430.356 127.512L400.296 144.874V97.6477L430.356 80.2973Z" fill="#FAFAFA"/>
<path d="M400.308 97.6478L396.492 95.436L396.469 142.663L400.296 144.874L400.308 97.6478Z" fill="#E6E6E6"/>
<path d="M401.557 98.9313C401.564 98.8104 401.587 98.6909 401.626 98.576C401.683 98.4025 401.782 98.2454 401.912 98.1176C401.947 98.0676 401.994 98.0279 402.05 98.003C402.313 97.8426 402.543 98.003 402.531 98.3697C402.532 98.537 402.492 98.702 402.416 98.8511C402.339 99.0319 402.212 99.187 402.05 99.298H401.981C401.74 99.424 401.557 99.2751 401.557 98.9313Z" fill="#263238"/>
<path d="M396.251 101.212C395.769 100.963 395.386 100.56 395.162 100.066C395.07 99.8324 395.033 99.5809 395.053 99.3307C395.073 99.0805 395.149 98.8381 395.277 98.622V98.622C395.509 98.2382 395.842 97.9251 396.24 97.7166C396.316 97.6641 396.396 97.6181 396.48 97.5791V98.175C396.21 98.271 395.977 98.4481 395.812 98.682C395.647 98.9159 395.558 99.1952 395.558 99.4815C395.558 99.7678 395.647 100.047 395.812 100.281C395.977 100.515 396.21 100.692 396.48 100.788C397.189 101.152 397.975 101.342 398.772 101.342C399.569 101.342 400.355 101.152 401.064 100.788C401.347 100.673 401.588 100.474 401.754 100.218C401.92 99.9616 402.003 99.6605 401.992 99.3554C401.965 99.0733 401.839 98.8097 401.637 98.6105C401.695 98.4371 401.793 98.2799 401.924 98.1521C402.147 98.3538 402.319 98.605 402.428 98.8855C402.498 99.1132 402.517 99.3535 402.483 99.5892C402.449 99.825 402.364 100.05 402.233 100.249C401.997 100.637 401.66 100.954 401.259 101.166C400.488 101.57 399.631 101.785 398.761 101.793C397.89 101.801 397.03 101.602 396.251 101.212V101.212Z" fill="#263238"/>
<path d="M400.526 102.163L433.095 80.2287L432.591 79.9422C432.449 79.8689 432.292 79.8306 432.132 79.8306C431.973 79.8306 431.816 79.8689 431.674 79.9422L399.827 101.716L400.526 102.163Z" fill="#F763B6"/>
<path opacity="0.2" d="M400.526 102.163L433.095 80.2287L432.591 79.9422C432.449 79.8689 432.292 79.8306 432.132 79.8306C431.973 79.8306 431.816 79.8689 431.674 79.9422L399.827 101.716L400.526 102.163Z" fill="black"/>
<path d="M432.453 80.2973C432.957 79.9993 433.37 80.24 433.37 80.8244V125.92C433.353 126.238 433.262 126.549 433.102 126.826C432.943 127.103 432.721 127.338 432.453 127.512L399.941 149.699V102.472L432.453 80.2973Z" fill="#F763B6"/>
<path d="M390.911 97.2239L390.899 144.451L399.998 149.711V102.473L390.911 97.2239Z" fill="#F763B6"/>
<path opacity="0.1" d="M390.911 97.2239L390.899 144.451L399.998 149.711V102.473L390.911 97.2239Z" fill="black"/>
<path d="M392.721 107.584C392.837 107.368 393.001 107.182 393.199 107.039C393.398 106.896 393.626 106.8 393.867 106.759C394.412 106.692 394.964 106.818 395.426 107.114C396.167 107.591 396.783 108.238 397.224 109.002C397.665 109.765 397.916 110.623 397.959 111.503C397.981 111.974 397.874 112.441 397.649 112.855C397.508 113.077 397.322 113.267 397.104 113.413C396.885 113.559 396.638 113.657 396.378 113.701C396.119 113.746 395.853 113.735 395.599 113.67C395.344 113.605 395.105 113.488 394.899 113.325C394.155 112.848 393.535 112.199 393.093 111.433C392.65 110.668 392.397 109.808 392.355 108.925C392.35 108.473 392.461 108.027 392.676 107.63L392.721 107.584Z" fill="#455A64"/>
<path d="M395.208 107.572C393.959 106.85 392.916 107.435 392.916 108.89C392.96 109.68 393.19 110.448 393.589 111.131C393.987 111.815 394.542 112.394 395.208 112.821C396.457 113.543 397.5 112.958 397.5 111.514C397.456 110.723 397.225 109.954 396.826 109.269C396.428 108.584 395.874 108.002 395.208 107.572V107.572Z" fill="#F5F5F5"/>
<path d="M395.655 117.347L394.968 116.958C393.592 116.156 392.469 116.809 392.469 118.39V138.858C392.517 139.725 392.769 140.569 393.202 141.321C393.636 142.074 394.241 142.714 394.968 143.19L395.655 143.579C397.03 144.382 398.153 143.728 398.153 142.147V121.679C398.105 120.812 397.854 119.968 397.42 119.216C396.986 118.463 396.382 117.823 395.655 117.347V117.347Z" fill="#F5F5F5"/>
<path d="M391.449 96.9028L400.503 102.129L399.998 102.472L390.911 97.2237L391.449 96.9028Z" fill="#F763B6"/>
<path opacity="0.2" d="M391.449 96.9028L400.503 102.129L399.998 102.472L390.911 97.2237L391.449 96.9028Z" fill="black"/>
<path d="M136.224 84.7095L140.75 76.1832L137.106 65.6744V59.2454L148.245 65.6744V72.1149L143.455 80.4005C143.385 80.5332 143.272 80.6383 143.134 80.6985L136.224 84.7095Z" fill="#F763B6"/>
<path opacity="0.2" d="M136.224 84.7095L140.75 76.1832L137.106 65.6744V59.2454L148.245 65.6744V72.1149L143.455 80.4005C143.385 80.5332 143.272 80.6383 143.134 80.6985L136.224 84.7095Z" fill="black"/>
<path d="M109.625 8.14518C109.698 6.99537 110.038 5.87846 110.619 4.88359C111.2 3.88871 112.006 3.04342 112.971 2.41518L115.733 0.799329C116.768 0.27386 117.913 0 119.074 0C120.235 0 121.379 0.27386 122.414 0.799329L164.106 24.8653C165.072 25.4936 165.877 26.3388 166.458 27.3337C167.039 28.3286 167.379 29.4455 167.452 30.5953V76.4353C167.379 77.5851 167.039 78.702 166.458 79.6969C165.877 80.6918 165.072 81.5371 164.106 82.1653L161.39 83.7353C160.355 84.2608 159.21 84.5347 158.049 84.5347C156.888 84.5347 155.744 84.2608 154.709 83.7353L141.3 75.9884L136.522 84.2625C136.455 84.3831 136.355 84.4818 136.233 84.5466C136.112 84.6113 135.974 84.6393 135.837 84.6272C135.7 84.615 135.569 84.5633 135.46 84.4782C135.352 84.3931 135.271 84.2783 135.227 84.1479L130.184 69.5593L112.994 59.6235C112.028 58.9953 111.223 58.15 110.642 57.1551C110.061 56.1602 109.721 55.0433 109.648 53.8935L109.625 8.14518Z" fill="#F763B6"/>
<path opacity="0.2" d="M167.406 76.5728C167.334 77.7226 166.993 78.8395 166.412 79.8344C165.831 80.8292 165.026 81.6745 164.06 82.3028L161.344 83.8728C160.402 84.3454 159.372 84.6141 158.319 84.6615C157.267 84.7089 156.216 84.5339 155.236 84.1478C156.806 84.7437 158.009 83.8499 158.009 81.9475V36.0731C157.964 34.9111 157.625 33.7795 157.024 32.7841L166.421 27.3635C167.026 28.3572 167.365 29.4898 167.406 30.6525V76.5728Z" fill="black"/>
<path opacity="0.3" d="M109.74 7.20553C110.129 5.78449 111.424 5.33755 112.96 6.21997L154.697 30.3433C155.693 30.9508 156.508 31.8133 157.058 32.8416L166.444 27.4095C165.887 26.3926 165.078 25.5361 164.094 24.9227L122.403 0.856693C121.368 0.331224 120.223 0.057373 119.062 0.057373C117.901 0.057373 116.757 0.331224 115.722 0.856693L112.994 2.42672C112.158 2.96269 111.438 3.66234 110.879 4.48358C110.319 5.30483 109.932 6.2307 109.74 7.20553V7.20553Z" fill="white"/>
<path d="M129.256 40.1643C129.313 40.1526 129.371 40.1526 129.428 40.1643L131.777 39.9695C131.83 39.9726 131.883 39.9649 131.933 39.9467C131.983 39.9285 132.029 39.9003 132.068 39.8638C132.106 39.8273 132.137 39.7833 132.158 39.7345C132.179 39.6856 132.19 39.633 132.19 39.5799C132.19 39.2017 132.132 38.8235 132.132 38.4339C132.132 38.0442 132.132 37.6317 132.132 37.2879C132.132 37.0307 132.038 36.7824 131.869 36.5888L129.199 33.3456C129.12 33.2562 129.064 33.1489 129.036 33.0331C129.008 32.9173 129.009 32.7964 129.038 32.6809L130.31 29.8618C130.323 29.828 130.348 29.7998 130.379 29.7816C130.482 29.7816 130.643 29.7816 130.792 29.9076L133.645 32.5205C133.722 32.6078 133.827 32.6658 133.942 32.6846C134.057 32.7034 134.175 32.6818 134.275 32.6236C134.639 32.3222 135.049 32.0822 135.49 31.9131C135.589 31.875 135.671 31.8039 135.723 31.7121C135.775 31.6202 135.794 31.5131 135.777 31.4089L134.894 27.4093C134.881 27.356 134.886 27.2996 134.909 27.2495C134.932 27.1995 134.971 27.1588 135.02 27.1343C135.105 27.1037 135.199 27.1037 135.284 27.1343L138.08 27.4093C138.21 27.4209 138.334 27.4661 138.44 27.5405C138.547 27.6149 138.632 27.7158 138.687 27.8334L140.212 31.9017C140.341 32.1604 140.556 32.3668 140.819 32.4861C141.421 32.7772 142 33.1143 142.55 33.4946C142.779 33.6436 143.042 33.655 143.145 33.4946L144.578 31.3057C144.681 31.1568 144.91 31.1911 145.094 31.3745L148.165 34.6177C148.252 34.7059 148.319 34.8122 148.36 34.929C148.402 35.0458 148.417 35.1704 148.406 35.2938L147.546 38.1817C147.509 38.4251 147.562 38.6738 147.695 38.8808C148.214 39.671 148.689 40.4898 149.116 41.3332C149.269 41.5745 149.506 41.7503 149.781 41.826L152.405 42.4678C152.535 42.4993 152.657 42.56 152.76 42.6454C152.863 42.7308 152.946 42.8386 153.001 42.9606L154.319 47.407C154.334 47.4554 154.337 47.5069 154.328 47.5567C154.319 47.6066 154.297 47.6535 154.265 47.6931C154.234 47.7327 154.193 47.7639 154.146 47.784C154.099 47.8041 154.049 47.8123 153.998 47.8081L151.591 47.9457C151.539 47.9441 151.487 47.9531 151.439 47.972C151.39 47.9908 151.346 48.0193 151.308 48.0556C151.271 48.092 151.241 48.1355 151.221 48.1835C151.201 48.2315 151.19 48.2831 151.19 48.3353C151.258 49.0978 151.258 49.8648 151.19 50.6273C151.192 50.8858 151.281 51.1362 151.442 51.3378L154.124 54.581C154.203 54.6704 154.259 54.7777 154.287 54.8935C154.314 55.0093 154.314 55.1302 154.285 55.2457L153.012 58.0534C152.999 58.0933 152.97 58.1262 152.932 58.145H152.841C152.724 58.1297 152.616 58.0775 152.531 57.9961L149.678 55.3832C149.601 55.2959 149.496 55.2379 149.381 55.2191C149.266 55.2003 149.148 55.2218 149.047 55.2801C148.681 55.578 148.272 55.8177 147.833 55.9906C147.733 56.0268 147.649 56.0975 147.596 56.1899C147.544 56.2823 147.526 56.3904 147.546 56.4948L148.428 60.4944C148.441 60.5464 148.437 60.6012 148.416 60.6506C148.396 60.7001 148.36 60.7417 148.314 60.7694V60.7694C148.229 60.8 148.136 60.8 148.05 60.7694L145.254 60.4944C145.125 60.4806 145.002 60.4346 144.896 60.3604C144.79 60.2863 144.704 60.1865 144.647 60.0703L143.123 56.002C142.99 55.7455 142.777 55.5399 142.515 55.4176C142.213 55.2768 141.918 55.12 141.633 54.9477C141.346 54.7873 141.071 54.6039 140.785 54.4091C140.498 54.2143 140.292 54.2487 140.189 54.4091L138.756 56.598H138.687C138.573 56.6782 138.39 56.598 138.241 56.4719L135.215 53.2631C135.127 53.1757 135.061 53.0692 135.021 52.9519C134.981 52.8346 134.969 52.7097 134.986 52.587L135.834 49.699C135.873 49.454 135.815 49.2036 135.674 49C135.151 48.2138 134.68 47.3946 134.264 46.5475C134.111 46.3062 133.874 46.1305 133.599 46.0548L130.975 45.413C130.843 45.3858 130.72 45.3266 130.616 45.2407C130.512 45.1548 130.431 45.0448 130.379 44.9202L129.061 40.4737C129.05 40.4072 129.064 40.339 129.1 40.282C129.136 40.2249 129.191 40.1831 129.256 40.1643ZM143.237 51.0284H143.386H143.501H143.753H144.039H144.383C144.948 51.0335 145.5 50.8676 145.969 50.5526C146.437 50.2376 146.799 49.7882 147.007 49.2636C147.216 48.7989 147.348 48.3035 147.397 47.7967C147.415 47.5257 147.415 47.254 147.397 46.983C147.232 44.0111 146.013 41.1954 143.959 39.0412C143.341 38.3716 142.631 37.7929 141.85 37.3222C141.61 37.1847 141.369 37.0587 141.14 36.9555C140.519 36.6681 139.841 36.527 139.157 36.543H138.94H138.825C138.339 36.6148 137.881 36.8123 137.495 37.1158C137.109 37.4193 136.809 37.8183 136.625 38.2734C135.479 40.8978 136.808 45.4818 139.662 48.4957C140.592 49.6585 141.831 50.5362 143.237 51.0284V51.0284Z" fill="#455A64"/>
<path d="M112.467 46.3871H112.605L114.415 46.284C114.455 46.2872 114.494 46.2821 114.532 46.2691C114.569 46.2562 114.604 46.2356 114.633 46.2086C114.662 46.1817 114.685 46.149 114.701 46.1127C114.717 46.0764 114.725 46.0371 114.725 45.9975C114.725 45.711 114.725 45.4245 114.725 45.1494C114.707 44.8479 114.707 44.5456 114.725 44.2441C114.722 44.0477 114.654 43.8579 114.53 43.7055L112.49 41.2416C112.43 41.1739 112.388 41.0922 112.368 41.0041C112.348 40.916 112.351 40.8243 112.375 40.7373L113.338 38.6058L113.395 38.537C113.475 38.537 113.59 38.537 113.705 38.6287L115.894 40.6571C115.954 40.7216 116.034 40.7644 116.121 40.7789C116.208 40.7934 116.297 40.7788 116.375 40.7373C116.649 40.5082 116.958 40.3262 117.292 40.1987C117.366 40.1706 117.429 40.1176 117.468 40.0486C117.508 39.9796 117.522 39.899 117.509 39.8205L116.845 36.7837C116.836 36.7423 116.84 36.6993 116.856 36.6604C116.873 36.6214 116.901 36.5884 116.936 36.5659C117.005 36.5529 117.075 36.5529 117.143 36.5659L119.263 36.7837C119.36 36.7945 119.453 36.8296 119.533 36.8857C119.613 36.9417 119.678 37.017 119.721 37.1045L120.867 40.1873C120.97 40.3844 121.135 40.5418 121.337 40.6342C121.792 40.8516 122.229 41.1045 122.644 41.3906C122.827 41.5166 123.022 41.5166 123.102 41.3906L124.191 39.7403C124.259 39.6143 124.443 39.6486 124.58 39.7403L126.872 42.2042C126.937 42.2701 126.987 42.3492 127.019 42.4363C127.051 42.5233 127.063 42.6162 127.056 42.7085L126.402 44.9088C126.376 45.0926 126.416 45.2799 126.517 45.4359C126.913 46.0325 127.273 46.6525 127.594 47.2925C127.706 47.4803 127.887 47.6163 128.098 47.6707L130.093 48.152C130.19 48.1755 130.281 48.2207 130.358 48.2842C130.435 48.3477 130.497 48.4279 130.539 48.5187L131.548 51.9567C131.559 51.9944 131.561 52.0344 131.554 52.073C131.546 52.1117 131.529 52.1479 131.504 52.1785C131.479 52.209 131.447 52.233 131.411 52.2483C131.375 52.2636 131.335 52.2697 131.296 52.2661L129.474 52.3693C129.434 52.3661 129.394 52.3711 129.357 52.3841C129.32 52.3971 129.285 52.4177 129.256 52.4446C129.227 52.4715 129.204 52.5042 129.188 52.5405C129.172 52.5769 129.164 52.6161 129.164 52.6558C129.216 53.2391 129.216 53.8258 129.164 54.4091C129.161 54.6065 129.23 54.7983 129.359 54.9477L131.387 57.4117C131.448 57.4788 131.492 57.56 131.514 57.6479C131.536 57.7359 131.536 57.828 131.514 57.9159L130.551 60.0474L130.494 60.1047H130.402C130.313 60.0966 130.229 60.0605 130.161 60.0016L127.995 58.019C127.938 57.9538 127.86 57.9102 127.775 57.8956C127.689 57.881 127.601 57.8962 127.525 57.9388C127.246 58.1658 126.933 58.3476 126.597 58.4774C126.523 58.5055 126.46 58.5586 126.421 58.6275C126.381 58.6965 126.366 58.7771 126.379 58.8556L127.056 61.8925C127.062 61.9321 127.057 61.9727 127.041 62.0093C127.024 62.0459 126.998 62.077 126.964 62.0988V62.0988C126.9 62.1183 126.833 62.1183 126.769 62.0988L124.649 61.8811C124.552 61.8702 124.459 61.8351 124.379 61.779C124.299 61.723 124.234 61.6477 124.191 61.5602L123.045 58.4774C122.947 58.2805 122.786 58.1228 122.586 58.0305C122.357 57.9274 122.139 57.8013 121.91 57.6752L121.268 57.2741C121.096 57.1481 120.89 57.1366 120.821 57.2741L119.733 58.9244C119.72 58.9488 119.7 58.9688 119.675 58.9817C119.616 59.0015 119.552 59.0022 119.493 58.9837C119.433 58.9651 119.381 58.9284 119.343 58.8785L117.051 56.4146C116.986 56.3488 116.936 56.2696 116.904 56.1826C116.872 56.0955 116.86 56.0027 116.868 55.9104L117.521 53.7101C117.543 53.5249 117.499 53.3379 117.395 53.1829C116.998 52.5888 116.642 51.9686 116.329 51.3264C116.215 51.141 116.035 51.0059 115.825 50.9482L113.831 50.4669C113.731 50.4447 113.639 50.3987 113.561 50.3328C113.483 50.267 113.422 50.1832 113.384 50.0887L112.375 46.7195C112.355 46.6928 112.342 46.662 112.336 46.6293C112.329 46.5966 112.331 46.5629 112.34 46.5308C112.348 46.4987 112.364 46.469 112.387 46.4441C112.409 46.4192 112.436 46.3997 112.467 46.3871V46.3871ZM123.102 54.6269H123.217H123.297H123.492H123.709H123.904C124.333 54.633 124.754 54.5079 125.111 54.2683C125.467 54.0287 125.742 53.686 125.898 53.286C126.063 52.9242 126.164 52.5364 126.196 52.14C126.208 51.9378 126.208 51.735 126.196 51.5327C126.068 49.2724 125.133 47.1331 123.56 45.5047C123.093 44.9928 122.552 44.5526 121.956 44.1983C121.793 44.1568 121.629 44.1224 121.463 44.0951C120.989 43.8786 120.472 43.7728 119.95 43.7857H119.698C119.33 43.8401 118.983 43.9906 118.691 44.2219C118.399 44.4533 118.173 44.7574 118.037 45.1036C117.143 47.0862 118.174 50.5586 120.329 52.8506C121.067 53.7027 122.027 54.3334 123.102 54.6727V54.6269Z" fill="#455A64"/>
<path d="M280.31 169.067L287.37 165.067C288.613 164.357 289.647 163.332 290.368 162.094C291.088 160.857 291.469 159.451 291.472 158.019V120.728H287.725V158.019C287.728 158.79 287.525 159.547 287.139 160.214C286.752 160.88 286.195 161.432 285.524 161.812L278.465 165.823L280.31 169.067Z" fill="#263238"/>
<path d="M301.225 134.343C301.84 133.925 302.348 133.367 302.709 132.716C303.069 132.065 303.271 131.339 303.299 130.595V97.3614C303.261 96.6131 303.03 95.8874 302.628 95.2548C302.226 94.6223 301.668 94.1044 301.007 93.7515L264.243 76.7677C263.545 76.481 262.795 76.344 262.041 76.3658C261.287 76.3875 260.546 76.5674 259.866 76.8938C259.25 77.312 258.742 77.8691 258.381 78.5201C258.021 79.1711 257.819 79.8977 257.791 80.6412V113.875C257.829 114.624 258.061 115.349 258.462 115.982C258.864 116.614 259.422 117.132 260.083 117.485L296.801 134.469C297.505 134.762 298.264 134.903 299.026 134.881C299.789 134.859 300.538 134.676 301.225 134.343V134.343Z" fill="#455A64"/>
<path d="M295.025 99.6075L302.6 95.2297C303.027 95.8656 303.269 96.6075 303.299 97.3728V130.607C303.271 131.35 303.069 132.077 302.709 132.728C302.348 133.379 301.84 133.936 301.225 134.354C300.545 134.681 299.803 134.861 299.049 134.882C298.295 134.904 297.545 134.767 296.847 134.48L295.025 133.632V99.6075Z" fill="#263238"/>
<path d="M296.801 96.1465L260.129 79.1742C259.887 79.0202 259.606 78.9388 259.319 78.9397C259.032 78.9406 258.751 79.0238 258.51 79.1794C258.268 79.3349 258.077 79.5564 257.958 79.8175C257.839 80.0786 257.797 80.3684 257.837 80.6526V113.887C257.875 114.635 258.107 115.361 258.508 115.993C258.91 116.626 259.468 117.144 260.129 117.496L296.801 134.469C297.044 134.618 297.324 134.695 297.609 134.692C297.894 134.689 298.173 134.605 298.412 134.451C298.652 134.296 298.843 134.077 298.963 133.819C299.084 133.56 299.129 133.273 299.093 132.99V99.7564C299.053 99.0086 298.821 98.2838 298.419 97.6517C298.018 97.0195 297.461 96.5012 296.801 96.1465V96.1465Z" fill="#37474F"/>
<path d="M288.779 171.21V233.575C288.794 233.863 288.876 234.144 289.02 234.395C289.163 234.646 289.363 234.86 289.604 235.019L291.827 236.302C292.085 236.432 292.37 236.5 292.658 236.5C292.947 236.5 293.232 236.432 293.489 236.302L295.655 235.019C295.896 234.86 296.096 234.646 296.24 234.395C296.383 234.144 296.465 233.863 296.48 233.575V171.21C296.48 170.468 296.186 169.757 295.661 169.232C295.137 168.708 294.426 168.413 293.684 168.413H291.53C290.796 168.425 290.096 168.725 289.582 169.248C289.067 169.771 288.779 170.476 288.779 171.21Z" fill="#263238"/>
<path d="M294.509 168.413C293.995 168.413 293.503 168.617 293.14 168.981C292.776 169.344 292.572 169.836 292.572 170.35V235.936C292.572 236.394 292.893 236.589 293.294 236.36L295.655 234.996C295.885 234.844 296.076 234.641 296.214 234.402C296.351 234.163 296.431 233.896 296.446 233.621V170.35C296.446 169.836 296.242 169.344 295.879 168.981C295.515 168.617 295.023 168.413 294.509 168.413V168.413Z" fill="#37474F"/>
<path d="M246.744 193.075V257.251C246.759 257.538 246.841 257.818 246.985 258.066C247.128 258.315 247.328 258.527 247.569 258.684L249.815 260.036C250.073 260.166 250.357 260.234 250.646 260.234C250.935 260.234 251.219 260.166 251.477 260.036L253.7 258.753C253.941 258.596 254.141 258.384 254.284 258.135C254.428 257.886 254.51 257.607 254.525 257.32V193.075C254.525 192.822 254.425 192.579 254.247 192.399C254.069 192.218 253.827 192.116 253.574 192.113H247.718C247.591 192.111 247.464 192.135 247.346 192.183C247.228 192.23 247.12 192.301 247.03 192.39C246.939 192.48 246.867 192.587 246.818 192.704C246.769 192.822 246.744 192.948 246.744 193.075V193.075Z" fill="#263238"/>
<path d="M253.551 192.147H251.58C251.327 192.15 251.085 192.253 250.907 192.433C250.729 192.613 250.629 192.856 250.629 193.11V259.578C250.629 260.105 250.995 260.311 251.454 260.047L253.677 258.764C253.918 258.607 254.118 258.396 254.262 258.147C254.405 257.898 254.487 257.618 254.502 257.331V193.075C254.493 192.828 254.39 192.593 254.213 192.421C254.035 192.248 253.799 192.15 253.551 192.147Z" fill="#37474F"/>
<path d="M296.492 169.88V170.74C296.45 171.519 296.245 172.281 295.89 172.976C295.535 173.671 295.037 174.284 294.429 174.774L252.692 203.882C252.061 204.29 251.334 204.524 250.583 204.563C249.833 204.601 249.086 204.441 248.417 204.1L195.953 173.777C195.308 173.361 194.771 172.799 194.387 172.135C194.002 171.472 193.781 170.726 193.741 169.96V169.078C193.777 168.327 194.006 167.599 194.408 166.964C194.81 166.329 195.37 165.81 196.033 165.457L247.649 141.505C248.374 141.221 249.151 141.092 249.929 141.128C250.707 141.163 251.468 141.362 252.164 141.712L294.291 166.053C294.932 166.474 295.466 167.039 295.848 167.704C296.23 168.369 296.451 169.114 296.492 169.88V169.88Z" fill="#37474F"/>
<path d="M294.291 166.053L252.107 141.712C251.411 141.362 250.649 141.163 249.871 141.128C249.094 141.092 248.317 141.221 247.592 141.505L195.953 165.457C194.67 166.053 194.624 167.095 195.85 167.749L248.417 198.118C249.085 198.461 249.833 198.622 250.584 198.584C251.334 198.546 252.062 198.31 252.692 197.9L294.429 168.826C294.685 168.689 294.898 168.481 295.041 168.228C295.184 167.975 295.253 167.686 295.238 167.396C295.224 167.105 295.127 166.825 294.96 166.587C294.792 166.349 294.56 166.164 294.291 166.053V166.053Z" fill="#455A64"/>
<path d="M233.954 281.696H223.113V263.13H233.954V281.696Z" fill="#FFA8A7"/>
<path d="M202.554 258.604L191.713 258.97L191.163 239.316L202.004 238.95L202.554 258.604Z" fill="#FFA8A7"/>
<path d="M223.113 276.813V274.888C221.967 275.381 216.856 286.234 212.181 290.497C208.456 293.935 201.867 298.519 202.084 301.75C202.291 305.899 208.204 307.744 213.315 306.541C217.303 305.601 222.999 303.183 225.738 300.238C228.477 297.293 229.359 293.362 230.78 291.471C232.201 289.58 235.502 287.391 236.269 285.156C236.693 283.93 236.189 281.237 235.593 278.968C235.055 276.882 234.447 274.59 233.748 274.785V276.069C232.889 277.02 230.528 277.959 227.858 278.063C226.127 278.131 223.102 278.131 223.113 276.813Z" fill="#263238"/>
<path d="M191.598 255.624C191.037 255.624 190.578 256.438 189.306 257.79C187.805 259.406 184.447 261.113 182.029 262.317C177.961 264.356 167.338 267.084 163.762 268.688C161.527 269.697 162.089 273.169 165.252 275.117C167.613 276.573 175.13 277.971 181.823 276.481C185.467 275.656 190.991 273.135 193.718 272.711C196.698 272.241 202.164 271.668 204.376 270.144C206.588 268.62 205.706 265.353 205.075 262.546C204.399 259.486 203.414 254.799 202.405 255.005V255.968C201.099 257.95 194.463 258.753 191.598 257.297V255.624Z" fill="#263238"/>
<path d="M277.651 150.192C280.024 166.958 276.826 170.178 260.897 186.234C252.325 194.863 238.527 207.526 238.527 207.526C238.527 207.526 238.722 212.878 238.836 224.888C238.94 235.454 234.516 269.869 234.516 269.869C234.516 269.869 227.319 272.894 222.38 269.754C222.38 269.754 220.145 244.152 218.942 230.79C217.303 212.706 216.455 203.641 217.372 199.745C218.186 196.307 234.401 175.851 238.149 170.098L203.689 190.118C204.358 195.191 204.695 200.301 204.697 205.418C204.319 219.777 202.554 248.438 202.554 248.438C202.554 248.438 194.658 251.968 190.75 248.92C190.75 248.92 180.814 186.234 180.814 181.088C180.814 173.272 214.77 149.94 221.2 144.496C224.867 141.402 228.958 138.09 228.958 138.09L277.651 150.192Z" fill="#F763B6"/>
<path opacity="0.3" d="M277.651 150.192C280.024 166.958 276.826 170.178 260.897 186.234C252.325 194.863 238.527 207.526 238.527 207.526C238.527 207.526 238.722 212.878 238.836 224.888C238.94 235.454 234.516 269.869 234.516 269.869C234.516 269.869 227.319 272.894 222.38 269.754C222.38 269.754 220.145 244.152 218.942 230.79C217.303 212.706 216.455 203.641 217.372 199.745C218.186 196.307 234.401 175.851 238.149 170.098L203.689 190.118C204.358 195.191 204.695 200.301 204.697 205.418C204.319 219.777 202.554 248.438 202.554 248.438C202.554 248.438 194.658 251.968 190.75 248.92C190.75 248.92 180.814 186.234 180.814 181.088C180.814 173.272 214.77 149.94 221.2 144.496C224.867 141.402 228.958 138.09 228.958 138.09L277.651 150.192Z" fill="black"/>
<path opacity="0.1" d="M238.149 170.155C234.519 167.228 231.79 163.335 230.276 158.925C230.461 161.802 230.871 164.66 231.502 167.474C232.43 171.198 203.689 190.176 203.689 190.176L238.149 170.155Z" fill="black"/>
<path d="M218.186 111.239C218.186 111.239 216.283 94.141 216.283 87.8839C216.283 81.1798 219.114 77.2146 227.823 77.0198C227.823 77.0198 234.149 120.293 230.723 123.559C228.843 125.347 220.638 128.04 212.478 130.435L207.975 117.439C211.046 115.606 214.438 113.543 218.186 111.239Z" fill="#FFA8A7"/>
<path d="M229.187 76.3782C229.187 76.3782 221.99 76.5615 218.793 79.6214C215.596 82.6812 215.515 85.2941 215.848 90.9438C216.18 96.5936 217.303 111.251 217.303 111.251C217.303 111.251 222.712 116.362 234.86 115.835L229.187 76.3782Z" fill="#E0E0E0"/>
<path d="M263.98 86.1076C266.558 89.981 274.179 109.532 277.927 152.071C270.317 160.345 232.843 162.168 221.2 144.531C221.2 144.531 217.28 109.188 217.36 100.742C217.418 94.8859 217.578 80.7443 227.823 77.0198H241.243L256.542 79.6212C259.535 81.1117 262.096 83.345 263.98 86.1076V86.1076Z" fill="#F5F5F5"/>
<path d="M242.137 42.9492C242.281 45.9921 241.519 49.0093 239.948 51.6194C238.378 54.2294 236.068 56.315 233.312 57.6124C230.556 58.9098 227.477 59.3608 224.464 58.9083C221.452 58.4559 218.641 57.1202 216.388 55.0704C214.134 53.0205 212.539 50.3485 211.804 47.3921C211.07 44.4358 211.228 41.328 212.26 38.4617C213.291 35.5953 215.149 33.0993 217.599 31.2891C220.049 29.4788 222.981 28.4358 226.024 28.2919C228.045 28.1948 230.065 28.4971 231.969 29.1814C233.873 29.8657 235.623 30.9187 237.119 32.28C238.616 33.6413 239.829 35.2844 240.69 37.1151C241.551 38.9458 242.043 40.9284 242.137 42.9492V42.9492Z" fill="#263238"/>
<path d="M253.861 53.3894C253.861 53.3894 251.924 65.2161 251.018 67.1414C250.407 68.3571 249.353 69.2922 248.073 69.7543L247.856 61.5145L253.861 53.3894Z" fill="#263238"/>
<path d="M249.941 36.7609C250.808 36.6186 251.697 36.6757 252.539 36.9279C253.381 37.1801 254.154 37.6207 254.8 38.2163C256.943 40.2104 256.118 46.8343 253.861 53.3894L249.196 54.1457L249.941 36.7609Z" fill="#263238"/>
<path d="M247.787 54.2145C248.749 54.7302 250.01 52.8623 251.11 51.5902C252.21 50.3181 255.935 48.4845 257.986 52.3809C260.037 56.2773 256.76 61.8813 253.826 62.9585C248.761 64.815 247.833 61.5604 247.833 61.5604L248.314 80.1256C244.12 85.2826 228.053 89.8551 231.559 80.4236L231.307 74.7738C229.046 75.2458 226.741 75.4763 224.431 75.4614C220.615 75.0603 218.094 72.1838 216.753 68.1499C214.599 61.6635 213.647 56.3805 214.599 43.3734C215.641 29.1286 232.121 28.2003 241.289 33.3803C250.457 38.5602 247.787 54.2145 247.787 54.2145Z" fill="#FFA8A7"/>
<path d="M247.856 55.7959C248.28 55.5782 249.999 52.7132 251.11 51.5901C252.669 50.043 249.964 36.7609 249.964 36.7609C250.334 35.5823 250.352 34.3214 250.017 33.1326C249.681 31.9438 249.005 30.8789 248.073 30.0682C246.439 28.3616 244.382 27.1173 242.112 26.4612C239.842 25.8052 237.439 25.7607 235.146 26.3323C231.048 27.2575 226.906 27.9766 222.735 28.4867C218.385 28.9737 213.982 28.4521 209.866 26.9626C209.516 29.2851 209.792 31.659 210.668 33.8386C211.596 35.879 213.144 37.5751 215.091 38.6861C217.292 39.9582 219.526 40.726 224.122 40.9094C229.78 41.2303 235.452 40.6186 240.911 39.0987C242.641 38.7778 243.1 40.451 244.257 45.035C245.231 49.0001 244.2 57.7556 247.856 55.7959Z" fill="#263238"/>
<path d="M249.976 37.8036L255.545 34.4687C255.345 34.0943 255.07 33.7644 254.739 33.499C254.407 33.2336 254.025 33.0382 253.616 32.9246C253.207 32.8111 252.779 32.7817 252.358 32.8383C251.937 32.8949 251.532 33.0363 251.167 33.254C250.428 33.719 249.893 34.4481 249.672 35.2931C249.45 36.1381 249.559 37.0358 249.976 37.8036V37.8036Z" fill="#263238"/>
<path d="M231.33 74.7737C231.33 74.7737 239.696 72.6765 242.572 70.969C244.263 69.9824 245.617 68.5086 246.457 66.7402C246.093 68.4882 245.38 70.1447 244.36 71.6107C242.343 74.4757 231.433 77.0199 231.433 77.0199L231.33 74.7737Z" fill="#F28F8F"/>
<path d="M229.187 53.7331C229.217 54.064 229.343 54.3789 229.549 54.6388C229.756 54.8987 230.035 55.0921 230.351 55.1951C230.667 55.298 231.006 55.306 231.326 55.218C231.646 55.13 231.934 54.9499 232.152 54.7C232.371 54.4501 232.512 54.1415 232.557 53.8124C232.602 53.4833 232.549 53.1482 232.406 52.8487C232.262 52.5493 232.033 52.2986 231.749 52.1278C231.464 51.957 231.135 51.8737 230.803 51.8881C230.346 51.9233 229.921 52.1362 229.619 52.4811C229.317 52.8259 229.162 53.2754 229.187 53.7331Z" fill="#263238"/>
<path d="M230.677 47.8885L234.39 49.7221C234.623 49.2125 234.65 48.6328 234.467 48.1035C234.283 47.5742 233.903 47.136 233.404 46.88C233.16 46.76 232.894 46.6909 232.623 46.677C232.351 46.663 232.079 46.7044 231.824 46.7988C231.569 46.8931 231.336 47.0384 231.139 47.2257C230.941 47.413 230.784 47.6385 230.677 47.8885V47.8885Z" fill="#263238"/>
<path d="M231.617 64.5742L227.823 66.213C227.92 66.4672 228.068 66.6992 228.256 66.8954C228.445 67.0915 228.671 67.2477 228.921 67.3546C229.171 67.4615 229.441 67.517 229.713 67.5178C229.985 67.5185 230.254 67.4645 230.505 67.359C231.012 67.1256 231.41 66.7066 231.617 66.1884C231.823 65.6703 231.823 65.0924 231.617 64.5742V64.5742Z" fill="#F28F8F"/>
<path d="M216.008 49.5618L219.183 46.8687C219.018 46.6518 218.811 46.4708 218.575 46.3369C218.338 46.203 218.076 46.1189 217.805 46.09C217.535 46.061 217.261 46.0877 217.002 46.1684C216.742 46.2491 216.501 46.3821 216.295 46.5592C215.869 46.9259 215.601 47.4432 215.547 48.0029C215.494 48.5625 215.659 49.1211 216.008 49.5618Z" fill="#263238"/>
<path d="M217.017 53.1143C217.046 53.4456 217.173 53.7609 217.38 54.0209C217.588 54.2809 217.867 54.4742 218.183 54.5767C218.5 54.6792 218.839 54.6864 219.16 54.5974C219.48 54.5084 219.768 54.3271 219.986 54.0761C220.204 53.8251 220.344 53.5155 220.387 53.1857C220.431 52.8559 220.377 52.5206 220.231 52.2215C220.086 51.9224 219.856 51.6726 219.569 51.5033C219.283 51.334 218.953 51.2526 218.621 51.2692C218.394 51.2837 218.172 51.3431 217.968 51.444C217.765 51.5448 217.583 51.6851 217.434 51.8567C217.284 52.0284 217.171 52.2279 217.099 52.4437C217.028 52.6596 216.999 52.8875 217.017 53.1143V53.1143Z" fill="#263238"/>
<path d="M224.466 51.2578L225.875 61.4343L219.664 61.0561L224.466 51.2578Z" fill="#F28F8F"/>
<path d="M263.475 277.203L359.671 221.668L179.141 117.485L82.9575 173.02L263.475 277.203Z" fill="#455A64"/>
<path d="M359.671 221.668V332.738L354.605 335.661V259.669L268.541 309.36V385.351L263.475 388.273V277.203L359.671 221.668Z" fill="#263238"/>
<path d="M354.605 335.66L349.54 332.738V262.592L354.605 259.669V335.66Z" fill="black"/>
<path d="M263.475 388.273L258.41 385.351V309.36L88.0114 211.022V287.013L82.9575 284.091V173.02L263.475 277.203V388.273Z" fill="#37474F"/>
<path d="M88.0114 287.013L93.0767 284.091V213.944L88.0114 211.022V287.013Z" fill="#263238"/>
<path d="M264.22 211.721L302.531 233.85C302.867 234.019 303.238 234.107 303.614 234.107C303.99 234.107 304.361 234.019 304.697 233.85L332.912 217.565C333.04 217.519 333.15 217.434 333.229 217.322C333.307 217.21 333.349 217.077 333.349 216.941C333.349 216.804 333.307 216.671 333.229 216.559C333.15 216.448 333.04 216.363 332.912 216.316L294.601 194.221C294.267 194.052 293.898 193.964 293.524 193.964C293.149 193.964 292.78 194.052 292.446 194.221L264.22 210.517C264.106 210.571 264.009 210.656 263.942 210.763C263.874 210.869 263.838 210.993 263.838 211.119C263.838 211.245 263.874 211.369 263.942 211.475C264.009 211.582 264.106 211.667 264.22 211.721Z" fill="#EBEBEB"/>
<path d="M292.446 194.221L265.653 209.692L302.531 230.962C302.867 231.131 303.238 231.219 303.614 231.219C303.99 231.219 304.361 231.131 304.697 230.962L331.491 215.491L294.601 194.221C294.267 194.052 293.898 193.964 293.524 193.964C293.149 193.964 292.78 194.052 292.446 194.221V194.221Z" fill="#E0E0E0"/>
<path d="M264.22 207.813L302.531 229.954C302.867 230.123 303.238 230.211 303.614 230.211C303.99 230.211 304.361 230.123 304.697 229.954L332.946 213.703C333.074 213.657 333.185 213.572 333.263 213.46C333.341 213.348 333.383 213.215 333.383 213.079C333.383 212.942 333.341 212.809 333.263 212.698C333.185 212.586 333.074 212.501 332.946 212.454L294.601 190.313C294.267 190.144 293.898 190.056 293.524 190.056C293.149 190.056 292.78 190.144 292.446 190.313L264.22 206.61C264.102 206.66 264.001 206.743 263.93 206.85C263.859 206.957 263.822 207.083 263.822 207.211C263.822 207.34 263.859 207.465 263.93 207.572C264.001 207.679 264.102 207.763 264.22 207.813Z" fill="#FAFAFA"/>
<path d="M232.728 168.849V168.425C232.708 168.051 232.6 167.687 232.413 167.362C232.226 167.038 231.965 166.762 231.651 166.557L167.991 129.805C167.657 129.636 167.288 129.547 166.913 129.547C166.539 129.547 166.17 129.636 165.836 129.805L152.806 137.322C152.493 137.527 152.231 137.803 152.044 138.128C151.857 138.452 151.749 138.816 151.729 139.19V139.626C151.749 140 151.857 140.364 152.044 140.689C152.231 141.013 152.493 141.289 152.806 141.494L216.455 178.246C216.791 178.415 217.162 178.504 217.538 178.504C217.914 178.504 218.285 178.415 218.621 178.246L231.651 170.717C231.965 170.512 232.226 170.236 232.413 169.912C232.6 169.587 232.708 169.223 232.728 168.849V168.849Z" fill="#E0E0E0"/>
<path d="M231.651 167.795L218.621 175.324C218.287 175.493 217.918 175.581 217.544 175.581C217.169 175.581 216.8 175.493 216.467 175.324L152.806 138.572C152.678 138.525 152.567 138.44 152.489 138.328C152.411 138.216 152.369 138.083 152.369 137.947C152.369 137.811 152.411 137.678 152.489 137.566C152.567 137.454 152.678 137.369 152.806 137.322L165.836 129.805C166.17 129.636 166.539 129.547 166.913 129.547C167.288 129.547 167.657 129.636 167.991 129.805L231.651 166.557C231.78 166.601 231.893 166.684 231.973 166.795C232.052 166.906 232.095 167.039 232.095 167.176C232.095 167.312 232.052 167.446 231.973 167.557C231.893 167.668 231.78 167.751 231.651 167.795Z" fill="#FAFAFA"/>
<path d="M171.795 138.365C172.941 136.52 179.027 131.111 180.219 129.999C181.41 128.888 186.602 128.131 191.151 126.71C195.311 124.785 200.766 121.737 207.975 117.439L212.478 130.412C205.729 132.372 198.99 134.114 195.873 134.996C193.249 136.004 193.34 136.784 191.197 137.998C187.232 140.29 184.642 139.809 184.642 139.809C183.464 140.927 182.212 141.965 180.895 142.915C178.076 144.84 175.256 146.353 171.795 145.207C168.002 143.969 170.672 140.222 171.795 138.365Z" fill="#FFA8A7"/>
<path d="M187.839 221.725C184.149 217.955 181.972 208.546 185.547 205.567H203.883C207.482 208.546 205.316 217.943 201.591 221.714L201.488 221.817C201.452 221.865 201.41 221.907 201.362 221.943C201.26 222.051 201.148 222.151 201.03 222.241L200.938 222.31C200.851 222.388 200.759 222.461 200.663 222.527L200.193 222.825C198.489 223.69 196.604 224.141 194.693 224.141C192.781 224.141 190.896 223.69 189.192 222.825V222.825C189.026 222.73 188.866 222.627 188.71 222.516L188.447 222.321L188.344 222.241L188.023 221.954L187.874 221.805L187.839 221.725Z" fill="#EBEBEB"/>
<path d="M202.302 204.363C206.485 206.77 206.485 210.689 202.302 213.096C199.957 214.288 197.363 214.909 194.733 214.909C192.102 214.909 189.508 214.288 187.163 213.096C182.992 210.689 182.992 206.77 187.163 204.363C189.508 203.172 192.102 202.551 194.733 202.551C197.363 202.551 199.957 203.172 202.302 204.363V204.363Z" fill="#FAFAFA"/>
<path d="M199.391 206.071C201.924 207.538 201.924 209.921 199.391 211.388C197.969 212.104 196.399 212.476 194.807 212.476C193.215 212.476 191.645 212.104 190.223 211.388C187.679 209.921 187.679 207.538 190.223 206.071C191.645 205.355 193.215 204.983 194.807 204.983C196.399 204.983 197.969 205.355 199.391 206.071V206.071Z" fill="#EBEBEB"/>
<path d="M190.131 208.592C191.554 207.877 193.123 207.504 194.715 207.504C196.307 207.504 197.877 207.877 199.299 208.592C199.91 208.932 200.433 209.411 200.824 209.99C200.461 210.567 199.971 211.054 199.391 211.411C197.969 212.127 196.399 212.499 194.807 212.499C193.215 212.499 191.645 212.127 190.223 211.411C189.607 211.078 189.084 210.598 188.699 210.013C189.055 209.431 189.547 208.944 190.131 208.592Z" fill="#E0E0E0"/>
<path d="M198.784 209.99C200.082 208.669 201.2 207.182 202.107 205.567C203.654 202.839 203.929 199.195 203.139 198.748C202.348 198.301 199.105 201.934 199.105 201.934C199.4 200.425 199.515 198.886 199.448 197.35C199.311 194.92 198.715 192.766 198.027 192.284C197.34 191.803 195.735 194.897 195.117 197.109C194.498 199.321 194.051 201.143 194.051 201.143C193.796 199.417 193.413 197.712 192.905 196.043C192.091 193.751 191.369 193.224 190.796 193.453C190.223 193.683 189.856 194.748 189.65 197.82C189.591 199.28 189.637 200.743 189.788 202.197C189.788 202.197 188.642 200.948 187.381 199.722C186.12 198.496 185.398 198.209 184.997 198.461C184.596 198.713 184.493 200.753 186.648 204.696C187.718 206.679 189.091 208.485 190.716 210.047C190.716 210.047 193.661 211.915 198.784 209.99Z" fill="#F763B6"/>
<path d="M213.315 239.546C213.202 239.495 213.104 239.416 213.031 239.315C212.959 239.214 212.914 239.096 212.902 238.973V238.09L255.545 214.024C255.852 213.866 256.192 213.784 256.536 213.784C256.881 213.784 257.221 213.866 257.528 214.024L295.85 236.142L251.626 261.663L213.315 239.546Z" fill="#F763B6"/>
<path opacity="0.2" d="M213.315 239.546C213.202 239.495 213.104 239.416 213.031 239.315C212.959 239.214 212.914 239.096 212.902 238.973V238.09L255.545 214.024C255.852 213.866 256.192 213.784 256.536 213.784C256.881 213.784 257.221 213.866 257.528 214.024L295.85 236.142L251.626 261.663L213.315 239.546Z" fill="black"/>
<path d="M213.315 238.686C213.196 238.644 213.094 238.567 213.021 238.464C212.948 238.362 212.909 238.239 212.909 238.113C212.909 237.987 212.948 237.865 213.021 237.762C213.094 237.659 213.196 237.582 213.315 237.54L255.545 213.165C255.852 213.007 256.192 212.925 256.536 212.925C256.881 212.925 257.221 213.007 257.528 213.165L295.85 235.283L251.626 260.804L213.315 238.686Z" fill="#F763B6"/>
<path opacity="0.5" d="M213.315 238.686C213.196 238.644 213.094 238.567 213.021 238.464C212.948 238.362 212.909 238.239 212.909 238.113C212.909 237.987 212.948 237.865 213.021 237.762C213.094 237.659 213.196 237.582 213.315 237.54L255.545 213.165C255.852 213.007 256.192 212.925 256.536 212.925C256.881 212.925 257.221 213.007 257.528 213.165L295.85 235.283L251.626 260.804L213.315 238.686Z" fill="black"/>
<path d="M287.026 229.507L258.662 213.13C258.351 212.98 258.011 212.902 257.665 212.902C257.32 212.902 256.979 212.98 256.668 213.13L217.704 235.615L214.014 233.472V237.838H214.083C213.957 238.102 214.083 238.4 214.415 238.606L246.916 257.366L291.14 231.844V227.077L287.026 229.507Z" fill="#EBEBEB"/>
<path d="M214.438 233.884C214.319 233.843 214.217 233.765 214.144 233.662C214.071 233.56 214.032 233.437 214.032 233.311C214.032 233.185 214.071 233.063 214.144 232.96C214.217 232.857 214.319 232.78 214.438 232.738L256.691 208.363C257 208.205 257.341 208.123 257.688 208.123C258.035 208.123 258.377 208.205 258.685 208.363L291.186 227.123L246.939 252.667L214.438 233.884Z" fill="#FAFAFA"/>
<path d="M246.939 252.633V257.412L291.163 231.89V227.123L246.939 252.633Z" fill="#E6E6E6"/>
<path d="M247.466 250.765C247.351 250.825 247.227 250.868 247.099 250.891C246.908 250.941 246.706 250.941 246.515 250.891C246.45 250.88 246.387 250.857 246.331 250.822C246.033 250.662 246.068 250.364 246.412 250.169C246.571 250.083 246.747 250.033 246.927 250.02C247.139 249.992 247.355 250.028 247.546 250.123C247.565 250.118 247.585 250.118 247.603 250.123C247.833 250.375 247.787 250.581 247.466 250.765Z" fill="#263238"/>
<path d="M252.474 254.501C252.5 255.093 252.322 255.675 251.97 256.151C251.801 256.365 251.584 256.538 251.338 256.655C251.092 256.772 250.821 256.831 250.549 256.827V256.827C250.062 256.814 249.587 256.672 249.173 256.415L248.921 256.266L249.483 255.945C250.835 256.701 251.912 256.059 251.912 254.501C251.865 253.65 251.618 252.821 251.192 252.083C250.766 251.344 250.173 250.716 249.46 250.249C249.198 250.049 248.881 249.933 248.552 249.916C248.222 249.9 247.895 249.984 247.615 250.158C247.366 250.335 247.188 250.595 247.111 250.891C246.919 250.942 246.718 250.942 246.526 250.891C246.593 250.572 246.734 250.273 246.939 250.02C247.109 249.808 247.325 249.638 247.572 249.522C247.818 249.407 248.088 249.35 248.36 249.355C248.851 249.373 249.329 249.519 249.746 249.779C250.546 250.29 251.211 250.986 251.686 251.808C252.16 252.629 252.431 253.553 252.474 254.501V254.501Z" fill="#263238"/>
<path d="M251.041 249.997L212.902 231.352V232.039C212.915 232.21 212.966 232.376 213.051 232.525C213.136 232.674 213.254 232.801 213.395 232.899L251.041 250.914V249.997Z" fill="#F763B6"/>
<path opacity="0.2" d="M251.041 249.997L212.902 231.352V232.039C212.915 232.21 212.966 232.376 213.051 232.525C213.136 232.674 213.254 232.801 213.395 232.899L251.041 250.914V249.997Z" fill="black"/>
<path d="M213.315 231.925C212.765 231.604 212.765 231.088 213.315 230.779L255.545 206.403C255.852 206.245 256.192 206.163 256.536 206.163C256.881 206.163 257.221 206.245 257.528 206.403L295.85 224.797L251.626 250.375L213.315 231.925Z" fill="#F763B6"/>
<path d="M251.626 261.663L295.85 236.142V224.785L251.626 250.318V261.663Z" fill="#F763B6"/>
<path opacity="0.1" d="M251.626 261.663L295.85 236.142V224.785L251.626 250.318V261.663Z" fill="black"/>
<path d="M260.347 254.375C260.072 254.378 259.801 254.319 259.553 254.202C259.305 254.084 259.086 253.912 258.914 253.699C258.568 253.219 258.391 252.639 258.41 252.048C258.46 251.095 258.735 250.166 259.213 249.34C259.691 248.513 260.359 247.811 261.161 247.292C261.578 247.034 262.056 246.891 262.547 246.88C263.693 246.88 264.472 247.82 264.472 249.172C264.427 250.125 264.154 251.054 263.678 251.881C263.202 252.708 262.535 253.41 261.734 253.928C261.316 254.185 260.837 254.327 260.347 254.34V254.375Z" fill="#455A64"/>
<path d="M258.983 252.049C258.983 253.619 260.129 254.249 261.447 253.47C262.161 253.001 262.755 252.371 263.181 251.63C263.607 250.89 263.853 250.059 263.899 249.206C263.899 247.648 262.753 247.006 261.447 247.797C260.733 248.264 260.138 248.892 259.71 249.63C259.283 250.369 259.033 251.197 258.983 252.049V252.049Z" fill="#F5F5F5"/>
<path d="M267.899 246.341V247.201C267.899 248.92 269.114 249.619 270.604 248.759L289.765 237.7C290.55 237.187 291.204 236.497 291.674 235.685C292.143 234.872 292.416 233.961 292.469 233.025V232.165C292.469 230.446 291.254 229.747 289.765 230.607L270.604 241.666C269.818 242.178 269.163 242.869 268.693 243.681C268.224 244.493 267.952 245.404 267.899 246.341Z" fill="#F5F5F5"/>
<path d="M251.03 261.331V250.031L251.626 250.318V261.663L251.03 261.331Z" fill="#F763B6"/>
<path opacity="0.2" d="M251.03 261.331V250.031L251.626 250.318V261.663L251.03 261.331Z" fill="black"/>
<path d="M295.437 223.02C295.424 223.158 295.379 223.291 295.305 223.408C295.231 223.526 295.132 223.624 295.013 223.696L251.637 248.714C251.504 248.781 251.357 248.816 251.208 248.816C251.058 248.816 250.911 248.781 250.778 248.714L211.917 229.06V228.189L256.13 202.667L295.013 222.333C295.132 222.407 295.232 222.508 295.305 222.627C295.379 222.746 295.424 222.881 295.437 223.02V223.02Z" fill="#F763B6"/>
<path opacity="0.1" d="M251.213 247.957V248.817C251.365 248.819 251.514 248.784 251.649 248.713L295.002 223.708C295.123 223.634 295.225 223.534 295.3 223.415C295.376 223.296 295.423 223.161 295.437 223.02C295.423 222.879 295.377 222.744 295.301 222.625C295.226 222.505 295.123 222.405 295.002 222.333C295.243 222.47 295.243 222.688 295.002 222.825L251.649 247.854C251.517 247.93 251.365 247.965 251.213 247.957V247.957Z" fill="black"/>
<path opacity="0.5" d="M211.917 228.189L250.778 247.854C250.91 247.928 251.061 247.964 251.213 247.957C251.365 247.965 251.517 247.93 251.649 247.854L295.002 222.871C295.243 222.734 295.243 222.516 295.002 222.378L256.118 202.713L211.917 228.189Z" fill="black"/>
<path opacity="0.2" d="M211.917 228.189V229.06L250.778 248.714C250.91 248.788 251.061 248.824 251.213 248.817V247.957C251.061 247.964 250.91 247.928 250.778 247.854L211.917 228.189Z" fill="black"/>
<path d="M212.501 228.533L256.737 203.023V191.654L212.501 217.302V228.533Z" fill="#F763B6"/>
<path opacity="0.7" d="M212.501 228.533L256.737 203.023V191.654L212.501 217.302V228.533Z" fill="black"/>
<path d="M294.899 216.901C295.057 217.004 295.189 217.142 295.285 217.305C295.38 217.469 295.437 217.652 295.449 217.84V220.132C295.44 220.32 295.386 220.503 295.29 220.665C295.194 220.827 295.06 220.963 294.899 221.061L251.752 245.952C251.586 246.04 251.401 246.086 251.213 246.086C251.025 246.086 250.84 246.04 250.675 245.952L217.727 228.143V224.602L261.94 199.08L294.899 216.901Z" fill="#EBEBEB"/>
<path d="M261.94 199.08L294.899 216.901C294.965 216.923 295.022 216.965 295.063 217.022C295.104 217.078 295.126 217.146 295.126 217.216C295.126 217.285 295.104 217.353 295.063 217.41C295.022 217.466 294.965 217.509 294.899 217.531L251.752 242.422C251.586 242.51 251.401 242.557 251.213 242.557C251.025 242.557 250.84 242.51 250.675 242.422L217.727 224.602L261.94 199.08Z" fill="#FAFAFA"/>
<path d="M221.921 224.888C221.806 224.949 221.683 224.992 221.555 225.014C221.363 225.065 221.162 225.065 220.97 225.014C220.905 225.004 220.843 224.98 220.787 224.946C220.489 224.785 220.523 224.487 220.867 224.292C221.027 224.207 221.202 224.156 221.383 224.143C221.595 224.116 221.81 224.152 222.002 224.247C222.311 224.453 222.242 224.705 221.921 224.888Z" fill="#263238"/>
<path d="M251.213 242.537V246.089C251.404 246.094 251.593 246.05 251.763 245.963L294.91 221.083C295.064 220.977 295.191 220.837 295.283 220.675C295.374 220.512 295.427 220.33 295.437 220.144V217.852C295.42 217.531 295.275 217.23 295.036 217.015C295.197 217.176 295.151 217.393 294.91 217.542L251.763 242.422C251.595 242.513 251.404 242.553 251.213 242.537Z" fill="#E6E6E6"/>
<path d="M216.157 219.972C216.506 219.787 216.898 219.702 217.292 219.724C217.686 219.746 218.066 219.875 218.392 220.098C219.923 221.182 221.007 222.787 221.44 224.613L220.707 224.728C220.313 223.12 219.363 221.703 218.025 220.728C217.742 220.561 217.424 220.463 217.097 220.442C216.898 220.439 216.703 220.495 216.535 220.602C216.187 220.911 215.923 221.304 215.769 221.743C215.615 222.182 215.575 222.653 215.653 223.112C215.722 225.473 217.062 228.131 218.655 229.048C218.996 229.265 219.399 229.362 219.801 229.323L220.604 229.782C220.319 229.95 219.994 230.037 219.664 230.034C219.205 230.023 218.758 229.888 218.369 229.644C216.558 228.601 215.08 225.725 215 223.1C214.911 222.524 214.971 221.934 215.173 221.386C215.376 220.839 215.715 220.352 216.157 219.972Z" fill="#263238"/>
<path d="M295.437 215.8C295.424 215.94 295.379 216.074 295.305 216.193C295.232 216.313 295.132 216.413 295.013 216.488L251.637 241.505C251.504 241.573 251.357 241.608 251.208 241.608C251.058 241.608 250.911 241.573 250.778 241.505L211.917 217.749V216.889L256.13 191.356L295.013 215.124C295.132 215.196 295.231 215.295 295.305 215.412C295.379 215.53 295.424 215.663 295.437 215.8V215.8Z" fill="#F763B6"/>
<path opacity="0.1" d="M251.213 240.737V241.597C251.363 241.598 251.512 241.566 251.649 241.505L295.002 216.488C295.134 216.428 295.245 216.331 295.323 216.209C295.402 216.087 295.443 215.945 295.443 215.8C295.443 215.656 295.402 215.514 295.323 215.392C295.245 215.27 295.134 215.173 295.002 215.113C295.056 215.129 295.103 215.163 295.137 215.208C295.17 215.253 295.189 215.308 295.189 215.365C295.189 215.421 295.17 215.476 295.137 215.522C295.103 215.567 295.056 215.601 295.002 215.617L251.649 240.646C251.513 240.712 251.364 240.743 251.213 240.737V240.737Z" fill="black"/>
<path d="M211.917 216.889L250.778 240.646C250.913 240.711 251.063 240.743 251.213 240.737C251.364 240.743 251.513 240.712 251.649 240.646L295.002 215.617C295.056 215.601 295.103 215.567 295.137 215.522C295.17 215.476 295.189 215.421 295.189 215.365C295.189 215.308 295.17 215.253 295.137 215.208C295.103 215.163 295.056 215.129 295.002 215.113L256.118 191.356L211.917 216.889Z" fill="#F763B6"/>
<path opacity="0.2" d="M211.917 216.889V217.749L250.778 241.505C250.913 241.571 251.063 241.602 251.213 241.597V240.737C251.063 240.743 250.913 240.711 250.778 240.646L211.917 216.889Z" fill="black"/>
<path d="M211.917 228.189V216.901L212.501 217.302V228.533L211.917 228.189Z" fill="#F763B6"/>
<path opacity="0.2" d="M211.917 228.189V216.901L212.501 217.302V228.533L211.917 228.189Z" fill="black"/>
<path d="M213.315 216.717C213.202 216.667 213.104 216.587 213.031 216.487C212.959 216.386 212.914 216.268 212.902 216.144V215.262L255.545 191.196C255.855 191.048 256.193 190.97 256.536 190.97C256.88 190.97 257.218 191.048 257.528 191.196L295.85 213.325L251.626 238.847L213.315 216.717Z" fill="#F763B6"/>
<path opacity="0.2" d="M213.315 216.717C213.202 216.667 213.104 216.587 213.031 216.487C212.959 216.386 212.914 216.268 212.902 216.144V215.262L255.545 191.196C255.855 191.048 256.193 190.97 256.536 190.97C256.88 190.97 257.218 191.048 257.528 191.196L295.85 213.325L251.626 238.847L213.315 216.717Z" fill="black"/>
<path d="M213.315 215.858C212.765 215.537 212.765 215.021 213.315 214.712L255.545 190.325C255.855 190.176 256.193 190.099 256.536 190.099C256.88 190.099 257.218 190.176 257.528 190.325L295.85 212.454L251.626 237.975L213.315 215.858Z" fill="#F763B6"/>
<path opacity="0.5" d="M213.315 215.858C212.765 215.537 212.765 215.021 213.315 214.712L255.545 190.325C255.855 190.176 256.193 190.099 256.536 190.099C256.88 190.099 257.218 190.176 257.528 190.325L295.85 212.454L251.626 237.975L213.315 215.858Z" fill="black"/>
<path d="M287.026 206.678L258.662 190.302C258.354 190.144 258.012 190.062 257.665 190.062C257.319 190.062 256.977 190.144 256.668 190.302L217.704 212.787L214.014 210.632V215.01H214.083C214.053 215.083 214.038 215.161 214.039 215.24C214.039 215.318 214.056 215.396 214.086 215.469C214.117 215.541 214.162 215.607 214.219 215.662C214.275 215.717 214.342 215.76 214.415 215.789L246.916 234.538L291.163 209.119V204.341L287.026 206.678Z" fill="#EBEBEB"/>
<path d="M214.438 211.056C214.319 211.014 214.217 210.937 214.144 210.834C214.071 210.731 214.032 210.609 214.032 210.483C214.032 210.357 214.071 210.235 214.144 210.132C214.217 210.029 214.319 209.952 214.438 209.91L256.691 185.523C257.002 185.373 257.343 185.295 257.688 185.295C258.033 185.295 258.374 185.373 258.685 185.523L291.186 204.283L246.962 229.805L214.438 211.056Z" fill="#FAFAFA"/>
<path d="M246.939 229.805V234.572L291.163 209.062V204.283L246.939 229.805Z" fill="#E6E6E6"/>
<path d="M247.466 227.937C247.351 227.997 247.227 228.04 247.099 228.063C246.908 228.113 246.706 228.113 246.515 228.063C246.45 228.052 246.387 228.029 246.331 227.994C246.033 227.834 246.068 227.536 246.412 227.341C246.571 227.255 246.747 227.205 246.927 227.192C247.139 227.164 247.355 227.2 247.546 227.295C247.565 227.29 247.585 227.29 247.603 227.295C247.833 227.455 247.787 227.753 247.466 227.937Z" fill="#263238"/>
<path d="M252.474 231.672C252.5 232.264 252.322 232.847 251.97 233.323C251.801 233.537 251.584 233.71 251.338 233.827C251.092 233.944 250.821 234.003 250.549 233.999C250.062 233.986 249.587 233.843 249.173 233.586L248.921 233.437L249.483 233.116C250.835 233.873 251.912 233.231 251.912 231.672C251.865 230.821 251.618 229.993 251.192 229.255C250.766 228.516 250.173 227.888 249.46 227.421C249.198 227.22 248.881 227.104 248.552 227.088C248.222 227.071 247.895 227.156 247.615 227.329C247.366 227.507 247.188 227.767 247.111 228.063C246.919 228.113 246.718 228.113 246.526 228.063C246.593 227.744 246.734 227.445 246.939 227.192C247.109 226.979 247.325 226.809 247.572 226.694C247.818 226.579 248.088 226.522 248.36 226.527C248.85 226.54 249.329 226.682 249.746 226.94C250.545 227.454 251.21 228.152 251.684 228.975C252.159 229.798 252.43 230.723 252.474 231.672V231.672Z" fill="#263238"/>
<path d="M251.041 227.157L212.902 208.523V209.119C212.915 209.29 212.966 209.456 213.051 209.605C213.136 209.754 213.254 209.882 213.395 209.979L251.041 228.028V227.157Z" fill="#F763B6"/>
<path opacity="0.2" d="M251.041 227.157L212.902 208.523V209.119C212.915 209.29 212.966 209.456 213.051 209.605C213.136 209.754 213.254 209.882 213.395 209.979L251.041 228.028V227.157Z" fill="black"/>
<path d="M213.315 209.119C212.765 208.81 212.765 208.294 213.315 207.973L255.545 183.563C255.855 183.415 256.193 183.338 256.536 183.338C256.88 183.338 257.218 183.415 257.528 183.563L295.85 201.968L251.626 227.455L213.315 209.119Z" fill="#F763B6"/>
<path d="M251.626 238.835L295.85 213.314V201.945L251.626 227.49V238.835Z" fill="#F763B6"/>
<path opacity="0.1" d="M251.626 238.835L295.85 213.314V201.945L251.626 227.49V238.835Z" fill="black"/>
<path d="M260.347 231.547C260.072 231.55 259.801 231.491 259.553 231.373C259.305 231.256 259.086 231.084 258.914 230.87C258.568 230.391 258.391 229.811 258.41 229.22C258.46 228.266 258.735 227.338 259.213 226.511C259.691 225.685 260.359 224.983 261.161 224.464C261.578 224.206 262.056 224.063 262.547 224.052C263.693 224.052 264.472 224.991 264.472 226.344C264.427 227.297 264.154 228.226 263.678 229.053C263.202 229.88 262.535 230.582 261.734 231.1C261.316 231.357 260.837 231.499 260.347 231.512V231.547Z" fill="#455A64"/>
<path d="M258.983 229.22C258.983 230.779 260.129 231.421 261.447 230.63C262.161 230.164 262.756 229.536 263.182 228.797C263.608 228.059 263.854 227.23 263.899 226.378C263.899 224.808 262.753 224.178 261.447 224.957C260.733 225.427 260.139 226.058 259.711 226.798C259.284 227.538 259.034 228.367 258.983 229.22V229.22Z" fill="#F5F5F5"/>
<path d="M267.899 223.513V224.372C267.899 226.091 269.114 226.791 270.604 225.931L289.765 214.849C290.552 214.338 291.207 213.648 291.677 212.835C292.147 212.023 292.419 211.111 292.469 210.174V209.314C292.469 207.595 291.254 206.896 289.765 207.767L270.604 218.826C269.816 219.34 269.161 220.032 268.691 220.846C268.221 221.66 267.95 222.574 267.899 223.513V223.513Z" fill="#F5F5F5"/>
<path d="M251.03 238.491V227.192L251.626 227.49V238.835L251.03 238.491Z" fill="#F763B6"/>
<path opacity="0.2" d="M251.03 238.491V227.192L251.626 227.49V238.835L251.03 238.491Z" fill="black"/>
<path d="M295.437 199.504C295.424 199.644 295.379 199.778 295.305 199.897C295.232 200.016 295.132 200.117 295.013 200.192L251.637 225.163C251.504 225.231 251.357 225.266 251.208 225.266C251.058 225.266 250.911 225.231 250.778 225.163L211.917 205.509V204.638L256.13 179.117L295.013 198.805C295.133 198.881 295.234 198.984 295.308 199.105C295.381 199.226 295.426 199.363 295.437 199.504V199.504Z" fill="#F763B6"/>
<path opacity="0.1" d="M251.213 224.453V225.312C251.364 225.309 251.513 225.274 251.649 225.209L295.002 200.192C295.13 200.13 295.239 200.033 295.315 199.913C295.391 199.792 295.431 199.653 295.431 199.51C295.431 199.367 295.391 199.228 295.315 199.107C295.239 198.987 295.13 198.89 295.002 198.828C295.243 198.966 295.243 199.183 295.002 199.321L251.649 224.35C251.514 224.42 251.365 224.455 251.213 224.453Z" fill="black"/>
<path opacity="0.5" d="M211.917 204.684L250.778 224.35C250.913 224.419 251.062 224.454 251.213 224.453C251.365 224.455 251.515 224.42 251.649 224.35L295.002 199.321C295.243 199.183 295.243 198.966 295.002 198.828L256.118 179.163L211.917 204.684Z" fill="black"/>
<path opacity="0.2" d="M211.917 204.684V205.555L250.778 225.163C250.91 225.238 251.061 225.273 251.213 225.266V224.407C251.062 224.408 250.913 224.373 250.778 224.304L211.917 204.684Z" fill="black"/>
<path d="M212.501 205.028L256.737 179.518V168.15L212.501 193.797V205.028Z" fill="#F763B6"/>
<path opacity="0.7" d="M212.501 205.028L256.737 179.518V168.15L212.501 193.797V205.028Z" fill="black"/>
<path d="M294.899 193.396C295.057 193.499 295.189 193.638 295.285 193.801C295.38 193.964 295.437 194.147 295.449 194.336V196.628C295.437 196.817 295.38 197 295.285 197.163C295.189 197.326 295.057 197.465 294.899 197.568L251.752 222.459C251.586 222.547 251.401 222.593 251.213 222.593C251.025 222.593 250.84 222.547 250.675 222.459L217.727 204.638V201.097L261.94 175.564L294.899 193.396Z" fill="#EBEBEB"/>
<path d="M261.94 175.564L294.899 193.396C294.967 193.415 295.026 193.455 295.069 193.511C295.112 193.567 295.135 193.635 295.135 193.706C295.135 193.776 295.112 193.844 295.069 193.9C295.026 193.956 294.967 193.996 294.899 194.015L251.752 218.918C251.586 219.006 251.401 219.052 251.213 219.052C251.025 219.052 250.84 219.006 250.675 218.918L217.727 201.097L261.94 175.564Z" fill="#FAFAFA"/>
<path d="M221.921 201.384C221.806 201.444 221.683 201.487 221.555 201.51C221.363 201.56 221.162 201.56 220.97 201.51C220.905 201.499 220.843 201.476 220.787 201.441C220.489 201.281 220.523 200.983 220.867 200.788C221.027 200.702 221.202 200.652 221.383 200.639C221.595 200.611 221.81 200.647 222.002 200.742C222.311 200.948 222.242 201.2 221.921 201.384Z" fill="#263238"/>
<path d="M251.213 219.032V222.585C251.404 222.589 251.593 222.546 251.763 222.459L294.91 197.568C295.067 197.467 295.197 197.33 295.288 197.169C295.38 197.007 295.431 196.825 295.437 196.639V194.347C295.433 194.188 295.394 194.031 295.325 193.887C295.256 193.743 295.158 193.615 295.036 193.511C295.197 193.671 295.151 193.877 294.91 194.026L251.763 218.918C251.595 219.009 251.404 219.049 251.213 219.032Z" fill="#E6E6E6"/>
<path d="M216.157 196.513C216.507 196.331 216.9 196.247 217.294 196.271C217.687 196.295 218.067 196.427 218.392 196.651C219.923 197.735 221.007 199.34 221.44 201.166L220.707 201.281C220.316 199.672 219.365 198.254 218.025 197.281C217.745 197.109 217.425 197.011 217.097 196.995C216.9 196.995 216.707 197.047 216.535 197.144C216.187 197.455 215.923 197.85 215.769 198.29C215.615 198.731 215.575 199.204 215.653 199.665C215.722 202.026 217.062 204.684 218.655 205.601C218.996 205.818 219.399 205.915 219.801 205.876L220.604 206.335C220.317 206.498 219.994 206.584 219.664 206.587C219.205 206.575 218.758 206.441 218.369 206.197C216.558 205.154 215.08 202.278 215 199.653C214.909 199.075 214.968 198.483 215.171 197.933C215.373 197.383 215.713 196.895 216.157 196.513Z" fill="#263238"/>
<path d="M295.437 192.296C295.424 192.434 295.379 192.567 295.305 192.684C295.231 192.801 295.132 192.9 295.013 192.972L251.637 217.989C251.504 218.057 251.357 218.092 251.208 218.092C251.058 218.092 250.911 218.057 250.778 217.989L211.917 194.221V193.35L256.13 167.863L295.013 191.62C295.13 191.693 295.229 191.792 295.303 191.909C295.376 192.026 295.422 192.159 295.437 192.296V192.296Z" fill="#F763B6"/>
<path opacity="0.1" d="M251.213 217.233V218.092C251.365 218.095 251.514 218.06 251.649 217.989L295.002 192.984C295.123 192.91 295.225 192.81 295.3 192.691C295.376 192.571 295.423 192.436 295.437 192.296C295.423 192.155 295.377 192.02 295.301 191.9C295.226 191.781 295.123 191.681 295.002 191.608C295.243 191.746 295.243 191.975 295.002 192.101L251.649 217.141C251.515 217.213 251.364 217.245 251.213 217.233V217.233Z" fill="black"/>
<path d="M211.917 193.373L250.778 217.141C250.91 217.216 251.061 217.251 251.213 217.244C251.365 217.253 251.517 217.217 251.649 217.141L295.002 192.113C295.243 191.987 295.243 191.757 295.002 191.62L256.118 167.863L211.917 193.373Z" fill="#F763B6"/>
<path opacity="0.2" d="M211.917 193.373V194.221L250.778 217.966C250.91 218.041 251.061 218.077 251.213 218.07V217.21C251.061 217.217 250.91 217.181 250.778 217.107L211.917 193.373Z" fill="black"/>
<path d="M211.917 204.684V193.396L212.501 193.797V205.028L211.917 204.684Z" fill="#F763B6"/>
<path opacity="0.2" d="M211.917 204.684V193.396L212.501 193.797V205.028L211.917 204.684Z" fill="black"/>
<path d="M213.315 193.201C213.202 193.154 213.104 193.077 213.031 192.978C212.958 192.879 212.914 192.762 212.902 192.64V191.757L255.545 167.691C255.855 167.543 256.193 167.466 256.536 167.466C256.88 167.466 257.218 167.543 257.528 167.691L295.85 189.821L251.626 215.33L213.315 193.201Z" fill="#F763B6"/>
<path opacity="0.2" d="M213.315 193.201C213.202 193.154 213.104 193.077 213.031 192.978C212.958 192.879 212.914 192.762 212.902 192.64V191.757L255.545 167.691C255.855 167.543 256.193 167.466 256.536 167.466C256.88 167.466 257.218 167.543 257.528 167.691L295.85 189.821L251.626 215.33L213.315 193.201Z" fill="black"/>
<path d="M213.315 192.342C212.765 192.032 212.765 191.517 213.315 191.196L255.545 166.82C255.855 166.672 256.193 166.595 256.536 166.595C256.88 166.595 257.218 166.672 257.528 166.82L295.85 188.95L251.626 214.46L213.315 192.342Z" fill="#F763B6"/>
<path opacity="0.5" d="M213.315 192.342C212.765 192.032 212.765 191.517 213.315 191.196L255.545 166.82C255.855 166.672 256.193 166.595 256.536 166.595C256.88 166.595 257.218 166.672 257.528 166.82L295.85 188.95L251.626 214.46L213.315 192.342Z" fill="black"/>
<path d="M287.026 183.162L258.662 166.797C258.354 166.639 258.012 166.557 257.665 166.557C257.319 166.557 256.977 166.639 256.668 166.797L217.704 189.282L214.014 187.127V191.505H214.083C213.957 191.78 214.083 192.067 214.415 192.284L246.939 211.067L291.163 185.557V180.779L287.026 183.162Z" fill="#EBEBEB"/>
<path d="M214.438 187.54C214.319 187.498 214.217 187.421 214.144 187.318C214.071 187.215 214.032 187.093 214.032 186.967C214.032 186.841 214.071 186.719 214.144 186.616C214.217 186.513 214.319 186.436 214.438 186.394L256.691 162.019C257 161.861 257.341 161.778 257.688 161.778C258.035 161.778 258.377 161.861 258.685 162.019L291.186 180.779L246.962 206.3L214.438 187.54Z" fill="#FAFAFA"/>
<path d="M246.939 206.3V211.068L291.163 185.558V180.779L246.939 206.3Z" fill="#E6E6E6"/>
<path d="M247.466 204.432C247.351 204.493 247.227 204.535 247.099 204.558C246.908 204.609 246.706 204.609 246.515 204.558C246.468 204.557 246.422 204.549 246.377 204.535C246.079 204.375 246.114 204.077 246.457 203.882C246.617 203.797 246.793 203.746 246.973 203.733C247.185 203.705 247.4 203.741 247.592 203.836C247.611 203.831 247.63 203.831 247.649 203.836C247.833 203.997 247.787 204.249 247.466 204.432Z" fill="#263238"/>
<path d="M252.474 208.168C252.5 208.76 252.322 209.342 251.97 209.818C251.801 210.033 251.584 210.205 251.338 210.322C251.092 210.44 250.821 210.499 250.549 210.495V210.495C250.062 210.481 249.587 210.339 249.173 210.082L248.921 209.933L249.483 209.612C250.835 210.368 251.912 209.727 251.912 208.168C251.865 207.317 251.618 206.489 251.192 205.75C250.766 205.012 250.173 204.384 249.46 203.916C249.198 203.716 248.881 203.6 248.552 203.583C248.222 203.567 247.895 203.651 247.615 203.825C247.366 204.003 247.188 204.262 247.111 204.558C246.919 204.609 246.718 204.609 246.526 204.558C246.593 204.239 246.734 203.941 246.939 203.687C247.109 203.475 247.325 203.305 247.572 203.19C247.818 203.074 248.088 203.017 248.36 203.023C248.85 203.036 249.329 203.178 249.746 203.435C250.545 203.949 251.21 204.647 251.684 205.471C252.159 206.294 252.43 207.219 252.474 208.168V208.168Z" fill="#263238"/>
<path d="M251.041 203.653L212.902 185.053V185.672C212.915 185.843 212.966 186.009 213.051 186.158C213.136 186.307 213.254 186.434 213.395 186.532L251.041 204.535V203.653Z" fill="#F763B6"/>
<path opacity="0.2" d="M251.041 203.653L212.902 185.053V185.672C212.915 185.843 212.966 186.009 213.051 186.158C213.136 186.307 213.254 186.434 213.395 186.532L251.041 204.535V203.653Z" fill="black"/>
<path d="M213.315 185.58C212.765 185.271 212.765 184.755 213.315 184.434L255.545 160.059C255.852 159.901 256.192 159.819 256.536 159.819C256.881 159.819 257.221 159.901 257.528 160.059L295.85 178.452L251.626 203.974L213.315 185.58Z" fill="#F763B6"/>
<path d="M251.626 215.319L295.85 189.809V178.441L251.626 203.974V215.319Z" fill="#F763B6"/>
<path opacity="0.1" d="M251.626 215.319L295.85 189.809V178.441L251.626 203.974V215.319Z" fill="black"/>
<path d="M260.347 208.03C260.072 208.034 259.801 207.975 259.553 207.857C259.305 207.74 259.086 207.568 258.914 207.354C258.567 206.876 258.389 206.295 258.41 205.704C258.459 204.752 258.734 203.825 259.212 203C259.69 202.175 260.358 201.475 261.161 200.96C261.578 200.701 262.056 200.558 262.547 200.547C263.693 200.547 264.472 201.475 264.472 202.839C264.429 203.791 264.157 204.719 263.681 205.545C263.204 206.37 262.536 207.069 261.734 207.584C261.316 207.841 260.837 207.983 260.347 207.996V208.03Z" fill="#455A64"/>
<path d="M258.983 205.681C258.983 207.251 260.129 207.881 261.447 207.102C262.161 206.636 262.756 206.009 263.182 205.27C263.608 204.531 263.854 203.702 263.899 202.851C263.899 201.281 262.753 200.65 261.447 201.429C260.734 201.897 260.139 202.525 259.712 203.264C259.284 204.002 259.034 204.83 258.983 205.681V205.681Z" fill="#F5F5F5"/>
<path d="M267.899 200.008V200.868C267.899 202.587 269.114 203.286 270.604 202.427L289.765 191.356C290.551 190.844 291.205 190.153 291.675 189.341C292.145 188.529 292.417 187.617 292.469 186.681V185.821C292.469 184.102 291.254 183.403 289.765 184.262L270.604 195.367C269.821 195.875 269.168 196.56 268.699 197.366C268.229 198.172 267.955 199.077 267.899 200.008V200.008Z" fill="#F5F5F5"/>
<path d="M251.03 214.987V203.687L251.626 203.974V215.319L251.03 214.987Z" fill="#F763B6"/>
<path opacity="0.2" d="M251.03 214.987V203.687L251.626 203.974V215.319L251.03 214.987Z" fill="black"/>
<path d="M234.287 158.386C241.163 156.392 265.664 149.527 273.113 147.121C278.305 145.436 281.135 144.244 281.238 139.763C281.376 135.592 275.188 101.43 272.953 93.0066C270.982 85.6264 263.212 80.0454 256.542 79.6213C254.307 87.0016 253.196 103.687 259.063 108.867C261.241 117.542 263.785 133.323 263.785 133.323C263.785 133.323 251.236 139.844 241.277 144.645C236.304 147.041 229.646 149.229 225.68 149.642C222.529 149.974 216.879 151.453 215.676 152.564C212.775 155.511 210.072 158.646 207.585 161.95C206.439 163.795 203.792 167.542 207.585 168.746C211.023 169.834 213.865 168.356 216.684 166.454C218.004 165.502 219.26 164.465 220.443 163.348C223.252 163.654 226.087 163.094 228.568 161.744C230.711 160.495 234.287 158.386 234.287 158.386Z" fill="#FFA8A7"/>
<path d="M109.338 162.615L104.754 107.435C104.708 106.538 104.895 105.644 105.297 104.841C105.699 104.038 106.301 103.352 107.046 102.851C107.862 102.451 108.762 102.25 109.67 102.266C110.579 102.282 111.471 102.514 112.272 102.942L172.689 137.827C173.488 138.347 174.165 139.032 174.675 139.837C175.185 140.642 175.516 141.547 175.646 142.491L180.23 197.659C180.277 198.556 180.091 199.45 179.689 200.254C179.287 201.057 178.684 201.743 177.938 202.243C177.118 202.636 176.217 202.832 175.307 202.814C174.398 202.796 173.505 202.565 172.701 202.14L112.295 167.267C111.498 166.749 110.821 166.065 110.311 165.263C109.801 164.46 109.469 163.557 109.338 162.615V162.615Z" fill="#E0E0E0"/>
<path d="M109.338 162.615L104.754 107.435C104.708 106.538 104.895 105.644 105.297 104.841C105.699 104.038 106.301 103.352 107.046 102.851C107.862 102.451 108.762 102.25 109.67 102.266C110.579 102.282 111.471 102.514 112.272 102.942L172.689 137.827C173.493 138.324 174.168 139.003 174.66 139.809L165.263 145.23V197.843L112.295 167.267C111.498 166.749 110.821 166.065 110.311 165.263C109.801 164.46 109.469 163.557 109.338 162.615V162.615Z" fill="#FAFAFA"/>
<path d="M175.153 200.604L170.569 145.436C170.442 144.493 170.112 143.588 169.604 142.783C169.096 141.978 168.421 141.292 167.624 140.772L107.207 105.887C105.717 105.028 104.617 105.727 104.754 107.435L109.338 162.614C109.468 163.556 109.797 164.458 110.306 165.261C110.814 166.064 111.488 166.748 112.284 167.267L172.701 202.151C174.179 203.011 175.325 202.323 175.153 200.604Z" fill="#F0F0F0"/>
<path d="M143.971 156.334C143.8 154.854 143.317 153.427 142.555 152.147C141.792 150.867 140.767 149.763 139.547 148.908C137.335 147.625 135.731 148.908 135.96 151.705C136.129 153.187 136.611 154.616 137.374 155.898C138.136 157.18 139.162 158.286 140.384 159.142C142.595 160.414 144.2 159.165 143.971 156.334Z" fill="#F763B6"/>
<path d="M145.025 174.487L124.775 162.786L127.308 161.331L147.546 173.02L145.025 174.487Z" fill="#FAFAFA"/>
<path d="M120.798 189.717L138.882 200.158C139.233 200.349 139.629 200.441 140.028 200.421C140.372 200.412 140.708 200.326 141.014 200.169L149.036 195.585C149.343 195.383 149.597 195.11 149.777 194.788C149.956 194.467 150.056 194.108 150.067 193.74V193.316C150.067 192.628 149.597 192.342 148.99 192.686L144.188 195.459L143.111 196.078L143.352 194.863L147.523 173.089L145.002 174.556L124.752 162.867L119.927 187.941C119.893 188.289 119.956 188.639 120.11 188.953C120.264 189.267 120.502 189.532 120.798 189.717V189.717Z" fill="#F5F5F5"/>
<path d="M149.758 192.56L143.592 188.996L142.332 197.293L149.758 192.56Z" fill="#E0E0E0"/>
<path d="M145.025 174.487L147.546 173.02L143.375 194.794C143.237 195.459 143.615 195.734 144.211 195.39L148.967 192.64C149.575 192.296 150.044 192.582 150.044 193.27V193.694C150.033 194.062 149.934 194.421 149.754 194.743C149.575 195.064 149.32 195.337 149.013 195.539L140.991 200.123C140.685 200.28 140.349 200.366 140.005 200.375L145.025 174.487Z" fill="#EBEBEB"/>
<path d="M227.044 89.1102C228.19 91.4595 230.161 92.3304 233.599 92.4909C235.309 92.494 237.002 92.1526 238.577 91.4871C240.153 90.8216 241.578 89.8456 242.767 88.6174L238.355 84.6637L233.233 89.0529L232.488 84.572L227.044 89.1102Z" fill="#F763B6"/>
<path opacity="0.1" d="M227.044 89.1102C228.19 91.4595 230.161 92.3304 233.599 92.4909C235.309 92.494 237.002 92.1526 238.577 91.4871C240.153 90.8216 241.578 89.8456 242.767 88.6174L238.355 84.6637L233.233 89.0529L232.488 84.572L227.044 89.1102Z" fill="black"/>
<path d="M229.634 87.6433C229.234 89.1371 229.14 90.6964 229.359 92.2273C229.61 93.5897 230.215 94.8622 231.112 95.9174C231.674 96.2249 232.299 96.3992 232.939 96.427C233.579 96.4548 234.216 96.3354 234.803 96.0779C235.84 95.0726 236.646 93.8541 237.167 92.5067C237.687 91.1593 237.909 89.7151 237.816 88.2736L233.232 89.0987L229.634 87.6433Z" fill="#F763B6"/>
<path d="M231.112 95.8716C231.112 95.8716 227.537 126.676 227.468 129.106C227.399 131.535 231.353 140.096 233.462 140.038C235.57 139.981 239.192 131.81 239.111 129.575C239.031 127.341 234.803 95.9976 234.803 95.9976L231.112 95.8716Z" fill="#F763B6"/>
<path opacity="0.1" d="M234.803 96.032C234.228 96.333 233.584 96.4767 232.936 96.4485C232.288 96.4203 231.659 96.2213 231.112 95.8716V96.3529C231.664 96.7448 232.303 96.9965 232.974 97.0864C233.645 97.1762 234.327 97.1015 234.963 96.8686L234.803 96.032Z" fill="black"/>
<path d="M233.187 89.0528L248.234 76.1832L248.131 72.2524C248.131 72.2524 250.274 72.6535 252.886 79.0138C250.73 85.0472 246.718 90.2426 241.426 93.8545L237.794 88.2391L233.187 89.0528Z" fill="#E0E0E0"/>
<path d="M231.33 74.7737C231.33 74.7737 229.233 75.3467 227.606 78.6815C226.288 81.3861 226.127 91.2302 226.127 91.2302L229.634 87.6433L233.187 89.0872C232.648 85.844 231.64 79.9192 231.64 79.9192L231.33 74.7737Z" fill="#E0E0E0"/>
<path d="M256.542 79.6214C256.542 79.6214 263.842 79.0598 268.747 83.6438C273.652 88.2278 274.477 92.1586 276.483 103.71C278.488 115.262 279.817 125.106 279.817 125.106C279.817 125.106 271.635 130.893 261.596 128.693L258.158 109.406C256.285 105.719 254.858 101.822 253.906 97.7969C252.394 89.9354 254.124 82.1769 256.542 79.6214Z" fill="#E0E0E0"/>
</svg>
